DoulosSIL-Regular.ufo
<glyph name="QuotMrk" format="1">
  <advance width="835"/>
  <unicode hex="0022"/>
  <outline>
    <contour>
      <point x="702" y="1281" type="curve"/>
      <point x="702" y="1339"/>
      <point x="664" y="1388"/>
      <point x="601" y="1388" type="curve" smooth="yes"/>
      <point x="536" y="1388"/>
      <point x="499" y="1352"/>
      <point x="499" y="1267" type="curve" smooth="yes"/>
      <point x="499" y="1236"/>
      <point x="506" y="1181"/>
      <point x="523" y="1096" type="curve" smooth="yes"/>
      <point x="576" y="805" type="line"/>
      <point x="625" y="805" type="line"/>
      <point x="680" y="1096" type="line" smooth="yes"/>
      <point x="698" y="1194"/>
      <point x="702" y="1254"/>
    </contour>
    <contour>
      <point x="335" y="1279" type="curve"/>
      <point x="335" y="1344"/>
      <point x="292" y="1388"/>
      <point x="233" y="1388" type="curve" smooth="yes"/>
      <point x="175" y="1388"/>
      <point x="134" y="1358"/>
      <point x="134" y="1267" type="curve" smooth="yes"/>
      <point x="134" y="1236"/>
      <point x="140" y="1181"/>
      <point x="156" y="1100" type="curve" smooth="yes"/>
      <point x="211" y="805" type="line"/>
      <point x="252" y="805" type="line"/>
      <point x="307" y="1098" type="line" smooth="yes"/>
      <point x="325" y="1192"/>
      <point x="335" y="1254"/>
    </contour>
  </outline>
</glyph>
<glyph name="NumSgn" format="2">
  <advance width="1025"/>
  <unicode hex="0023"/>
  <outline>
    <contour>
      <point x="989" y="427" type="line"/>
      <point x="989" y="510" type="line"/>
      <point x="733" y="510" type="line"/>
      <point x="805" y="854" type="line"/>
      <point x="989" y="854" type="line"/>
      <point x="989" y="933" type="line"/>
      <point x="818" y="933" type="line"/>
      <point x="912" y="1388" type="line"/>
      <point x="830" y="1388" type="line"/>
      <point x="733" y="933" type="line"/>
      <point x="397" y="933" type="line"/>
      <point x="485" y="1388" type="line"/>
      <point x="404" y="1388" type="line"/>
      <point x="314" y="933" type="line"/>
      <point x="36" y="933" type="line"/>
      <point x="36" y="854" type="line"/>
      <point x="294" y="854" type="line"/>
      <point x="222" y="510" type="line"/>
      <point x="36" y="510" type="line"/>
      <point x="36" y="427" type="line"/>
      <point x="207" y="427" type="line"/>
      <point x="115" y="-30" type="line"/>
      <point x="199" y="-30" type="line"/>
      <point x="294" y="427" type="line"/>
      <point x="632" y="427" type="line"/>
      <point x="542" y="-30" type="line"/>
      <point x="623" y="-30" type="line"/>
      <point x="715" y="427" type="line"/>
    </contour>
    <contour>
      <point x="720" y="854" type="line"/>
      <point x="649" y="510" type="line"/>
      <point x="307" y="510" type="line"/>
      <point x="378" y="854" type="line"/>
    </contour>
  </outline>
</glyph>
<glyph name="DollarSgn" format="1">
  <advance width="1025"/>
  <unicode hex="0024"/>
  <outline>
    <contour>
      <point x="922" y="337" type="curve"/>
      <point x="922" y="519"/>
      <point x="822" y="593"/>
      <point x="526" y="805" type="curve"/>
      <point x="526" y="1313" type="line"/>
      <point x="728" y="1293"/>
      <point x="803" y="1179"/>
      <point x="818" y="991" type="curve"/>
      <point x="857" y="991" type="line"/>
      <point x="857" y="1291" type="line"/>
      <point x="749" y="1332"/>
      <point x="682" y="1356"/>
      <point x="664" y="1362" type="curve"/>
      <point x="627" y="1369"/>
      <point x="579" y="1378"/>
      <point x="526" y="1380" type="curve"/>
      <point x="526" y="1472" type="line"/>
      <point x="463" y="1472" type="line"/>
      <point x="463" y="1380" type="line"/>
      <point x="327" y="1371"/>
      <point x="109" y="1283"/>
      <point x="109" y="1055" type="curve" smooth="yes"/>
      <point x="109" y="857"/>
      <point x="239" y="767"/>
      <point x="463" y="621" type="curve"/>
      <point x="463" y="38" type="line"/>
      <point x="269" y="55"/>
      <point x="166" y="146"/>
      <point x="152" y="335" type="curve"/>
      <point x="109" y="335" type="line"/>
      <point x="109" y="51" type="line"/>
      <point x="203" y="10"/>
      <point x="346" y="-24"/>
      <point x="463" y="-30" type="curve"/>
      <point x="463" y="-156" type="line"/>
      <point x="526" y="-156" type="line"/>
      <point x="526" y="-30" type="line"/>
      <point x="731" y="-17"/>
      <point x="922" y="120"/>
    </contour>
    <contour>
      <point x="463" y="848" type="line"/>
      <point x="391" y="893"/>
      <point x="264" y="978"/>
      <point x="264" y="1117" type="curve" smooth="yes"/>
      <point x="264" y="1271"/>
      <point x="398" y="1303"/>
      <point x="463" y="1313" type="curve"/>
    </contour>
    <contour>
      <point x="763" y="288" type="curve"/>
      <point x="763" y="107"/>
      <point x="600" y="43"/>
      <point x="526" y="38" type="curve"/>
      <point x="526" y="577" type="line"/>
      <point x="678" y="471"/>
      <point x="763" y="406"/>
    </contour>
  </outline>
</glyph>
<glyph name="Asterisk" format="2">
  <advance width="1025"/>
  <unicode hex="002A"/>
  <outline>
    <contour>
      <point x="881" y="1175" type="curve" smooth="yes"/>
      <point x="881" y="1216"/>
      <point x="841" y="1247"/>
      <point x="803" y="1247" type="curve" smooth="yes"/>
      <point x="720" y="1247"/>
      <point x="615" y="1098"/>
      <point x="534" y="1042" type="curve"/>
      <point x="550" y="1132"/>
      <point x="595" y="1234"/>
      <point x="595" y="1320" type="curve" smooth="yes"/>
      <point x="595" y="1366"/>
      <point x="570" y="1423"/>
      <point x="519" y="1423" type="curve" smooth="yes"/>
      <point x="459" y="1423"/>
      <point x="432" y="1369"/>
      <point x="432" y="1317" type="curve" smooth="yes"/>
      <point x="432" y="1256"/>
      <point x="485" y="1125"/>
      <point x="495" y="1042" type="curve"/>
      <point x="435" y="1090"/>
      <point x="339" y="1207"/>
      <point x="259" y="1241" type="curve" smooth="yes"/>
      <point x="245" y="1247"/>
      <point x="232" y="1249"/>
      <point x="220" y="1249" type="curve" smooth="yes"/>
      <point x="177" y="1249"/>
      <point x="146" y="1220"/>
      <point x="146" y="1177" type="curve" smooth="yes"/>
      <point x="146" y="1057"/>
      <point x="391" y="1053"/>
      <point x="474" y="1008" type="curve"/>
      <point x="431" y="994"/>
      <point x="305" y="971"/>
      <point x="222" y="928" type="curve" smooth="yes"/>
      <point x="177" y="905"/>
      <point x="146" y="874"/>
      <point x="146" y="835" type="curve" smooth="yes"/>
      <point x="146" y="794"/>
      <point x="188" y="765"/>
      <point x="227" y="765" type="curve" smooth="yes"/>
      <point x="305" y="765"/>
      <point x="422" y="920"/>
      <point x="497" y="974" type="curve"/>
      <point x="477" y="887"/>
      <point x="432" y="782"/>
      <point x="432" y="696" type="curve" smooth="yes"/>
      <point x="432" y="651"/>
      <point x="457" y="593"/>
      <point x="508" y="593" type="curve" smooth="yes"/>
      <point x="568" y="593"/>
      <point x="595" y="647"/>
      <point x="595" y="700" type="curve" smooth="yes"/>
      <point x="595" y="790"/>
      <point x="534" y="875"/>
      <point x="534" y="972" type="curve"/>
      <point x="585" y="933"/>
      <point x="656" y="846"/>
      <point x="725" y="798" type="curve" smooth="yes"/>
      <point x="753" y="779"/>
      <point x="780" y="767"/>
      <point x="805" y="767" type="curve" smooth="yes"/>
      <point x="846" y="767"/>
      <point x="879" y="796"/>
      <point x="879" y="839" type="curve" smooth="yes"/>
      <point x="879" y="872"/>
      <point x="857" y="898"/>
      <point x="825" y="918" type="curve" smooth="yes"/>
      <point x="751" y="963"/>
      <point x="620" y="982"/>
      <point x="558" y="1008" type="curve"/>
      <point x="615" y="1030"/>
      <point x="744" y="1047"/>
      <point x="821" y="1091" type="curve" smooth="yes"/>
      <point x="857" y="1112"/>
      <point x="881" y="1139"/>
    </contour>
  </outline>
</glyph>
<glyph name="PlusSgn" format="2">
  <advance width="1971"/>
  <unicode hex="002B"/>
  <outline>
    <contour>
      <point x="1576" y="530" type="line"/>
      <point x="1576" y="653" type="line"/>
      <point x="1046" y="653" type="line"/>
      <point x="1046" y="1183" type="line"/>
      <point x="925" y="1183" type="line"/>
      <point x="925" y="653" type="line"/>
      <point x="395" y="653" type="line"/>
      <point x="395" y="530" type="line"/>
      <point x="925" y="530" type="line"/>
      <point x="925" y="0" type="line"/>
      <point x="1046" y="0" type="line"/>
      <point x="1046" y="530" type="line"/>
    </contour>
  </outline>
</glyph>
<glyph name="Comma" format="2">
  <advance width="512"/>
  <unicode hex="002C"/>
  <outline>
    <contour>
      <point x="408" y="-10" type="curve"/>
      <point x="408" y="128"/>
      <point x="318" y="199"/>
      <point x="241" y="199" type="curve" smooth="yes"/>
      <point x="171" y="199"/>
      <point x="111" y="154"/>
      <point x="111" y="83" type="curve" smooth="yes"/>
      <point x="111" y="4"/>
      <point x="162" y="-30"/>
      <point x="217" y="-30" type="curve" smooth="yes"/>
      <point x="248" y="-30"/>
      <point x="272" y="0"/>
      <point x="303" y="0" type="curve" smooth="yes"/>
      <point x="321" y="0"/>
      <point x="325" y="-24"/>
      <point x="325" y="-39" type="curve" smooth="yes"/>
      <point x="325" y="-171"/>
      <point x="211" y="-269"/>
      <point x="111" y="-297" type="curve"/>
      <point x="111" y="-343" type="line"/>
      <point x="269" y="-288"/>
      <point x="408" y="-181"/>
    </contour>
  </outline>
</glyph>
<glyph name="HyphenMinus" format="2">
  <advance width="682"/>
  <unicode hex="002D"/>
  <anchor x="342" y="1000" name="U"/>
  <outline>
    <contour>
      <point x="600" y="382" type="line"/>
      <point x="600" y="534" type="line"/>
      <point x="83" y="534" type="line"/>
      <point x="83" y="382" type="line"/>
    </contour>
  </outline>
</glyph>
<glyph name="Solidus" format="1">
  <advance width="570"/>
  <unicode hex="002F"/>
  <outline>
    <contour>
      <point x="584" y="1423" type="line"/>
      <point x="505" y="1423" type="line"/>
      <point x="12" y="-30" type="line"/>
      <point x="95" y="-30" type="line"/>
    </contour>
  </outline>
</glyph>
<glyph name="DigitZero" format="2">
  <advance width="1025"/>
  <unicode hex="0030"/>
  <anchor x="513" y="-100" name="L"/>
  <anchor x="513" y="1435" name="U"/>
  <outline>
    <contour>
      <point x="952" y="690" type="curve" smooth="yes"/>
      <point x="952" y="1119"/>
      <point x="745" y="1386"/>
      <point x="517" y="1386" type="curve" smooth="yes"/>
      <point x="284" y="1386"/>
      <point x="73" y="1102"/>
      <point x="73" y="670" type="curve" smooth="yes"/>
      <point x="73" y="318"/>
      <point x="241" y="-24"/>
      <point x="506" y="-24" type="curve" smooth="yes"/>
      <point x="796" y="-24"/>
      <point x="952" y="325"/>
    </contour>
    <contour>
      <point x="756" y="735" type="curve" smooth="yes"/>
      <point x="756" y="210"/>
      <point x="654" y="39"/>
      <point x="510" y="39" type="curve" smooth="yes"/>
      <point x="365" y="39"/>
      <point x="270" y="243"/>
      <point x="270" y="647" type="curve" smooth="yes"/>
      <point x="270" y="1191"/>
      <point x="402" y="1320"/>
      <point x="515" y="1320" type="curve" smooth="yes"/>
      <point x="672" y="1320"/>
      <point x="756" y="1096"/>
    </contour>
  </outline>
</glyph>
<glyph name="DigitOne" format="2">
  <advance width="1025"/>
  <unicode hex="0031"/>
  <anchor x="508" y="-100" name="L"/>
  <anchor x="508" y="1435" name="U"/>
  <outline>
    <contour>
      <point x="775" y="0" type="line"/>
      <point x="775" y="38" type="line"/>
      <point x="604" y="38"/>
      <point x="605" y="68"/>
      <point x="605" y="241" type="curve" smooth="yes"/>
      <point x="605" y="1386" type="line"/>
      <point x="570" y="1386" type="line"/>
      <point x="241" y="1224" type="line"/>
      <point x="254" y="1192" type="line"/>
      <point x="421" y="1269"/>
      <point x="440" y="1190"/>
      <point x="440" y="1057" type="curve" smooth="yes"/>
      <point x="440" y="972" type="line"/>
      <point x="440" y="241" type="line" smooth="yes"/>
      <point x="440" y="69"/>
      <point x="435" y="38"/>
      <point x="264" y="38" type="curve"/>
      <point x="264" y="0" type="line"/>
    </contour>
  </outline>
</glyph>
<glyph name="DigitTwo" format="1">
  <advance width="1025"/>
  <unicode hex="0032"/>
  <outline>
    <contour>
      <point x="940" y="260" type="line"/>
      <point x="903" y="260" type="line"/>
      <point x="842" y="172" name="sv02"/>
      <point x="817" y="152"/>
      <point x="613" y="152" type="curve" smooth="yes"/>
      <point x="258" y="152" type="line" name="dh02"/>
      <point x="299" y="191" name="at01"/>
      <point x="401" y="298"/>
      <point x="568" y="479" type="curve" smooth="yes"/>
      <point x="680" y="602" name="sv01"/>
      <point x="857" y="816" name="dh01"/>
      <point x="857" y="1029" type="curve" smooth="yes"/>
      <point x="857" y="1251" name="mh01"/>
      <point x="662" y="1386"/>
      <point x="469" y="1386" type="curve" smooth="yes" name="ab01"/>
      <point x="171" y="1386"/>
      <point x="101" y="1124"/>
      <point x="85" y="1003" type="curve"/>
      <point x="120" y="1003" type="line"/>
      <point x="147" y="1079"/>
      <point x="227" y="1232"/>
      <point x="418" y="1232" type="curve" smooth="yes"/>
      <point x="502" y="1232"/>
      <point x="686" y="1168"/>
      <point x="686" y="936" type="curve" smooth="yes"/>
      <point x="686" y="825"/>
      <point x="638" y="701"/>
      <point x="542" y="564" type="curve"/>
      <point x="446" y="424"/>
      <point x="280" y="253"/>
      <point x="45" y="38" type="curve"/>
      <point x="45" y="0" type="line"/>
      <point x="844" y="0" type="line"/>
    </contour>
    <contour>
      <point x="493" y="-100" type="move" name="L"/>
    </contour>
    <contour>
      <point x="493" y="1435" type="move" name="U"/>
    </contour>
  </outline>
</glyph>
<glyph name="DigitThree" format="1">
  <advance width="1025"/>
  <unicode hex="0033"/>
  <outline>
    <contour>
      <point x="856" y="449" type="curve" smooth="yes"/>
      <point x="856" y="678"/>
      <point x="690" y="773"/>
      <point x="603" y="805" type="curve"/>
      <point x="727" y="910"/>
      <point x="786" y="1013"/>
      <point x="786" y="1110" type="curve" smooth="yes"/>
      <point x="786" y="1181"/>
      <point x="733" y="1386"/>
      <point x="471" y="1386" type="curve" smooth="yes"/>
      <point x="223" y="1386"/>
      <point x="145" y="1182"/>
      <point x="105" y="1098" type="curve"/>
      <point x="138" y="1082" type="line"/>
      <point x="207" y="1192"/>
      <point x="294" y="1247"/>
      <point x="398" y="1247" type="curve" smooth="yes"/>
      <point x="486" y="1247"/>
      <point x="621" y="1194"/>
      <point x="621" y="1019" type="curve" smooth="yes"/>
      <point x="621" y="770"/>
      <point x="363" y="708"/>
      <point x="312" y="704" type="curve"/>
      <point x="312" y="672" type="line"/>
      <point x="386" y="671"/>
      <point x="452" y="659"/>
      <point x="510" y="635" type="curve" smooth="yes"/>
      <point x="609" y="595"/>
      <point x="707" y="508"/>
      <point x="707" y="327" type="curve" smooth="yes"/>
      <point x="707" y="167"/>
      <point x="572" y="64"/>
      <point x="453" y="64" type="curve" smooth="yes"/>
      <point x="316" y="64"/>
      <point x="262" y="156"/>
      <point x="164" y="156" type="curve" smooth="yes"/>
      <point x="122" y="156"/>
      <point x="85" y="124"/>
      <point x="85" y="85" type="curve" smooth="yes"/>
      <point x="85" y="55"/>
      <point x="92" y="-24"/>
      <point x="320" y="-24" type="curve" smooth="yes"/>
      <point x="652" y="-24"/>
      <point x="856" y="172"/>
    </contour>
    <contour>
      <point x="471" y="-100" type="move" name="L"/>
    </contour>
    <contour>
      <point x="471" y="1435" type="move" name="U"/>
    </contour>
  </outline>
</glyph>
<glyph name="DigitFour" format="1">
  <advance width="1025"/>
  <unicode hex="0034"/>
  <outline>
    <contour>
      <point x="952" y="359" type="line" name="dv01"/>
      <point x="952" y="500" type="line" name="dv02"/>
      <point x="773" y="500" type="line"/>
      <point x="773" y="1386" type="line" name="at01"/>
      <point x="662" y="1386" type="line"/>
      <point x="32" y="485" type="line"/>
      <point x="32" y="359" type="line" name="sv01"/>
      <point x="607" y="359" type="line" name="dh01"/>
      <point x="607" y="0" type="line" name="ab01"/>
      <point x="773" y="0" type="line"/>
      <point x="773" y="359" type="line" name="dh02"/>
    </contour>
    <contour>
      <point x="607" y="500" type="line" name="sh01"/>
      <point x="130" y="500" type="line" name="mh01"/>
      <point x="607" y="1175" type="line" name="iv01"/>
    </contour>
    <contour>
      <point x="492" y="1435" type="move" name="U"/>
    </contour>
    <contour>
      <point x="492" y="-100" type="move" name="L"/>
    </contour>
  </outline>
</glyph>
<glyph name="DigitFive" format="1">
  <advance width="1025"/>
  <unicode hex="0035"/>
  <outline>
    <contour>
      <point x="889" y="1356" type="line"/>
      <point x="404" y="1356" type="line" name="at01"/>
      <point x="144" y="830" type="line" name="av01"/>
      <point x="268" y="827"/>
      <point x="442" y="809"/>
      <point x="587" y="688" type="curve" name="sv04"/>
      <point x="705" y="592" name="sv03"/>
      <point x="737" y="464"/>
      <point x="737" y="382" type="curve" smooth="yes" name="ab01"/>
      <point x="737" y="206"/>
      <point x="599" y="79" name="sv02"/>
      <point x="444" y="79" type="curve" smooth="yes" name="sv01"/>
      <point x="309" y="79"/>
      <point x="272" y="181"/>
      <point x="177" y="181" type="curve" smooth="yes"/>
      <point x="110" y="181"/>
      <point x="98" y="129"/>
      <point x="98" y="109" type="curve" smooth="yes"/>
      <point x="98" y="38"/>
      <point x="175" y="-24"/>
      <point x="331" y="-24" type="curve" smooth="yes"/>
      <point x="556" y="-24"/>
      <point x="867" y="149"/>
      <point x="867" y="489" type="curve" smooth="yes"/>
      <point x="867" y="873"/>
      <point x="442" y="993"/>
      <point x="314" y="1005" type="curve"/>
      <point x="404" y="1187" type="line"/>
      <point x="812" y="1187" type="line"/>
    </contour>
    <contour>
      <point x="494" y="-100" type="move" name="L"/>
    </contour>
    <contour>
      <point x="494" y="1435" type="move" name="U"/>
    </contour>
  </outline>
</glyph>
<glyph name="DigitSix" format="1">
  <advance width="1025"/>
  <unicode hex="0036"/>
  <outline>
    <contour>
      <point x="946" y="457" type="curve" smooth="yes"/>
      <point x="946" y="756" name="dv02"/>
      <point x="726" y="857" name="iv01"/>
      <point x="603" y="857" type="curve" smooth="yes"/>
      <point x="506" y="857"/>
      <point x="409" y="823" name="at01"/>
      <point x="314" y="756" type="curve"/>
      <point x="365" y="974"/>
      <point x="467" y="1106" name="dh01"/>
      <point x="536" y="1175" type="curve" smooth="yes" name="ab01"/>
      <point x="637" y="1275" name="dh04"/>
      <point x="761" y="1341"/>
      <point x="918" y="1348" type="curve" name="sv01"/>
      <point x="918" y="1386" type="line" name="dh02"/>
      <point x="861" y="1386" type="line" smooth="yes"/>
      <point x="724" y="1386" name="dv01"/>
      <point x="540" y="1332" name="dh03"/>
      <point x="369" y="1171" type="curve" smooth="yes"/>
      <point x="233" y="1043"/>
      <point x="89" y="830"/>
      <point x="89" y="532" type="curve" smooth="yes"/>
      <point x="89" y="231"/>
      <point x="264" y="-24"/>
      <point x="515" y="-24" type="curve" smooth="yes"/>
      <point x="779" y="-24"/>
      <point x="946" y="218"/>
    </contour>
    <contour>
      <point x="767" y="348" type="curve" smooth="yes"/>
      <point x="767" y="143"/>
      <point x="662" y="37"/>
      <point x="544" y="32" type="curve"/>
      <point x="374" y="28"/>
      <point x="278" y="280"/>
      <point x="278" y="467" type="curve" smooth="yes"/>
      <point x="278" y="523"/>
      <point x="286" y="595"/>
      <point x="297" y="684" type="curve"/>
      <point x="355" y="721"/>
      <point x="427" y="771"/>
      <point x="506" y="771" type="curve" smooth="yes"/>
      <point x="690" y="771"/>
      <point x="767" y="559"/>
    </contour>
    <contour>
      <point x="518" y="-100" type="move" name="L"/>
    </contour>
    <contour>
      <point x="518" y="1435" type="move" name="U"/>
    </contour>
  </outline>
</glyph>
<glyph name="DigitSeven" format="2">
  <advance width="1025"/>
  <unicode hex="0037"/>
  <anchor x="503" y="-100" name="L"/>
  <anchor x="503" y="1435" name="U"/>
  <outline>
    <contour>
      <point x="931" y="1320" type="line"/>
      <point x="931" y="1356" type="line"/>
      <point x="207" y="1356" type="line"/>
      <point x="75" y="1037" type="line"/>
      <point x="105" y="1027" type="line"/>
      <point x="155" y="1121"/>
      <point x="202" y="1192"/>
      <point x="402" y="1192" type="curve" smooth="yes"/>
      <point x="775" y="1192" type="line"/>
      <point x="369" y="-30" type="line"/>
      <point x="479" y="-30" type="line"/>
    </contour>
  </outline>
</glyph>
<glyph name="DigitEight" format="1">
  <advance width="1025"/>
  <unicode hex="0038"/>
  <outline>
    <contour>
      <point x="907" y="321" type="curve" smooth="yes"/>
      <point x="907" y="522" name="ih01"/>
      <point x="715" y="663" name="sh07"/>
      <point x="598" y="753" type="curve" name="at01"/>
      <point x="711" y="825" name="sh05"/>
      <point x="877" y="931" name="iv01"/>
      <point x="877" y="1092" type="curve" smooth="yes" name="sh01"/>
      <point x="877" y="1171" name="ab01"/>
      <point x="808" y="1386" name="sh04"/>
      <point x="512" y="1386" type="curve" smooth="yes"/>
      <point x="316" y="1386" name="iv02"/>
      <point x="140" y="1265" name="sh08"/>
      <point x="140" y="1062" type="curve" smooth="yes" name="sv01"/>
      <point x="140" y="881" name="sh06"/>
      <point x="288" y="773"/>
      <point x="395" y="682" type="curve" name="sv02"/>
      <point x="294" y="613" name="sh02"/>
      <point x="122" y="481" name="iv03"/>
      <point x="122" y="310" type="curve" smooth="yes" name="sh03"/>
      <point x="122" y="155" name="ah01"/>
      <point x="258" y="-24" name="sh09"/>
      <point x="512" y="-24" type="curve" smooth="yes"/>
      <point x="826" y="-24"/>
      <point x="907" y="200"/>
    </contour>
    <contour>
      <point x="733" y="1104" type="curve" smooth="yes"/>
      <point x="733" y="948"/>
      <point x="653" y="886"/>
      <point x="551" y="790" type="curve"/>
      <point x="382" y="927"/>
      <point x="286" y="993"/>
      <point x="286" y="1130" type="curve" smooth="yes"/>
      <point x="286" y="1255"/>
      <point x="391" y="1326"/>
      <point x="515" y="1326" type="curve" smooth="yes"/>
      <point x="623" y="1326"/>
      <point x="733" y="1276"/>
    </contour>
    <contour>
      <point x="765" y="241" type="curve" smooth="yes"/>
      <point x="765" y="108"/>
      <point x="657" y="32"/>
      <point x="526" y="32" type="curve" smooth="yes"/>
      <point x="386" y="32"/>
      <point x="276" y="133"/>
      <point x="276" y="314" type="curve" smooth="yes"/>
      <point x="276" y="496"/>
      <point x="386" y="599"/>
      <point x="442" y="647" type="curve"/>
      <point x="565" y="544"/>
      <point x="765" y="412"/>
    </contour>
    <contour>
      <point x="515" y="-100" type="move" name="L"/>
    </contour>
    <contour>
      <point x="515" y="1435" type="move" name="U"/>
    </contour>
  </outline>
</glyph>
<glyph name="DigitNine" format="1">
  <advance width="1025"/>
  <unicode hex="0039"/>
  <outline>
    <contour>
      <point x="936" y="826" type="curve" smooth="yes"/>
      <point x="936" y="1086" name="at01"/>
      <point x="781" y="1386" name="dh01"/>
      <point x="504" y="1386" type="curve" smooth="yes" name="dv01"/>
      <point x="282" y="1386" name="mh01"/>
      <point x="83" y="1184"/>
      <point x="83" y="899" type="curve" smooth="yes"/>
      <point x="83" y="695" name="ab01"/>
      <point x="204" y="495"/>
      <point x="427" y="495" type="curve" smooth="yes"/>
      <point x="515" y="495" name="dh04"/>
      <point x="608" y="527"/>
      <point x="711" y="598" type="curve" name="sv02"/>
      <point x="666" y="411" name="dv02"/>
      <point x="579" y="276" name="dh02"/>
      <point x="479" y="167" type="curve" name="sv01"/>
      <point x="350" y="30" name="dh03"/>
      <point x="179" y="11"/>
      <point x="109" y="8" type="curve"/>
      <point x="109" y="-30" type="line"/>
      <point x="166" y="-30" type="line" smooth="yes"/>
      <point x="454" y="-30"/>
      <point x="654" y="178"/>
      <point x="707" y="239" type="curve"/>
      <point x="860" y="407"/>
      <point x="936" y="603"/>
    </contour>
    <contour>
      <point x="747" y="877" type="curve" smooth="yes"/>
      <point x="747" y="826"/>
      <point x="739" y="757"/>
      <point x="728" y="670" type="curve"/>
      <point x="701" y="635"/>
      <point x="587" y="585"/>
      <point x="508" y="585" type="curve" smooth="yes"/>
      <point x="360" y="585"/>
      <point x="260" y="755"/>
      <point x="260" y="1003" type="curve" smooth="yes"/>
      <point x="260" y="1211"/>
      <point x="361" y="1315"/>
      <point x="481" y="1320" type="curve" smooth="yes"/>
      <point x="600" y="1325"/>
      <point x="747" y="1169"/>
    </contour>
    <contour>
      <point x="510" y="1435" type="move" name="U"/>
    </contour>
    <contour>
      <point x="510" y="-100" type="move" name="L"/>
    </contour>
  </outline>
</glyph>
<glyph name="Colon" format="2">
  <advance width="572"/>
  <unicode hex="003A"/>
  <outline>
    <contour>
      <point x="398" y="833" type="curve"/>
      <point x="398" y="897"/>
      <point x="346" y="944"/>
      <point x="288" y="944" type="curve" smooth="yes"/>
      <point x="227" y="944"/>
      <point x="175" y="897"/>
      <point x="175" y="833" type="curve" smooth="yes"/>
      <point x="175" y="773"/>
      <point x="227" y="724"/>
      <point x="288" y="724" type="curve" smooth="yes"/>
      <point x="341" y="724"/>
      <point x="398" y="767"/>
    </contour>
    <contour>
      <point x="398" y="85" type="curve"/>
      <point x="398" y="154"/>
      <point x="335" y="195"/>
      <point x="286" y="195" type="curve" smooth="yes"/>
      <point x="237" y="195"/>
      <point x="173" y="158"/>
      <point x="173" y="85" type="curve" smooth="yes"/>
      <point x="173" y="17"/>
      <point x="229" y="-30"/>
      <point x="286" y="-30" type="curve" smooth="yes"/>
      <point x="341" y="-30"/>
      <point x="398" y="15"/>
    </contour>
  </outline>
</glyph>
<glyph name="Semicolon" format="1">
  <advance width="572"/>
  <unicode hex="003B"/>
  <outline>
    <contour>
      <point x="423" y="835" type="curve"/>
      <point x="423" y="899"/>
      <point x="372" y="946"/>
      <point x="314" y="946" type="curve" smooth="yes"/>
      <point x="252" y="946"/>
      <point x="201" y="899"/>
      <point x="201" y="835" type="curve" smooth="yes"/>
      <point x="201" y="775"/>
      <point x="252" y="726"/>
      <point x="314" y="726" type="curve" smooth="yes"/>
      <point x="367" y="726"/>
      <point x="423" y="769"/>
    </contour>
    <contour>
      <point x="469" y="-10" type="curve"/>
      <point x="469" y="128"/>
      <point x="378" y="199"/>
      <point x="301" y="199" type="curve" smooth="yes"/>
      <point x="233" y="199"/>
      <point x="171" y="154"/>
      <point x="171" y="83" type="curve" smooth="yes"/>
      <point x="171" y="4"/>
      <point x="222" y="-30"/>
      <point x="278" y="-30" type="curve" smooth="yes"/>
      <point x="310" y="-30"/>
      <point x="333" y="0"/>
      <point x="365" y="0" type="curve" smooth="yes"/>
      <point x="382" y="0"/>
      <point x="386" y="-24"/>
      <point x="386" y="-39" type="curve" smooth="yes"/>
      <point x="386" y="-171"/>
      <point x="272" y="-269"/>
      <point x="171" y="-297" type="curve"/>
      <point x="171" y="-343" type="line"/>
      <point x="329" y="-288"/>
      <point x="469" y="-181"/>
    </contour>
  </outline>
</glyph>
<glyph name="LTSgn" format="2">
  <advance width="1971"/>
  <unicode hex="003C"/>
  <outline>
    <contour>
      <point x="1576" y="77" type="line"/>
      <point x="1576" y="199" type="line"/>
      <point x="521" y="591" type="line"/>
      <point x="1576" y="984" type="line"/>
      <point x="1576" y="1106" type="line"/>
      <point x="395" y="653" type="line"/>
      <point x="395" y="530" type="line"/>
    </contour>
  </outline>
</glyph>
<glyph name="QstnMrk" format="2">
  <advance width="910"/>
  <unicode hex="003F"/>
  <outline>
    <contour>
      <point x="828" y="1072" type="curve"/>
      <point x="828" y="1269"/>
      <point x="670" y="1388"/>
      <point x="453" y="1388" type="curve" smooth="yes"/>
      <point x="220" y="1388"/>
      <point x="92" y="1249"/>
      <point x="92" y="1100" type="curve" smooth="yes"/>
      <point x="92" y="970"/>
      <point x="175" y="942"/>
      <point x="203" y="942" type="curve" smooth="yes"/>
      <point x="239" y="942"/>
      <point x="284" y="972"/>
      <point x="284" y="1029" type="curve" smooth="yes"/>
      <point x="284" y="1074"/>
      <point x="220" y="1145"/>
      <point x="220" y="1200" type="curve" smooth="yes"/>
      <point x="220" y="1260"/>
      <point x="282" y="1332"/>
      <point x="410" y="1332" type="curve" smooth="yes"/>
      <point x="515" y="1332"/>
      <point x="643" y="1258"/>
      <point x="643" y="1057" type="curve" smooth="yes"/>
      <point x="643" y="952"/>
      <point x="589" y="828"/>
      <point x="548" y="758" type="curve" smooth="yes"/>
      <point x="459" y="611"/>
      <point x="420" y="479"/>
      <point x="412" y="320" type="curve"/>
      <point x="455" y="320" type="line"/>
      <point x="463" y="506"/>
      <point x="530" y="581"/>
      <point x="672" y="741" type="curve" smooth="yes"/>
      <point x="733" y="810"/>
      <point x="828" y="920"/>
    </contour>
    <contour>
      <point x="551" y="85" type="curve"/>
      <point x="551" y="152"/>
      <point x="497" y="197"/>
      <point x="442" y="197" type="curve" smooth="yes"/>
      <point x="382" y="197"/>
      <point x="327" y="150"/>
      <point x="327" y="85" type="curve" smooth="yes"/>
      <point x="327" y="13"/>
      <point x="384" y="-28"/>
      <point x="442" y="-28" type="curve" smooth="yes"/>
      <point x="493" y="-28"/>
      <point x="551" y="12"/>
    </contour>
  </outline>
</glyph>
<glyph name="LtnCapA" format="2">
  <advance width="1472"/>
  <unicode hex="0041"/>
  <anchor x="735" y="0" name="H"/>
  <anchor x="735" y="-100" name="L"/>
  <anchor x="1300" y="0" name="O"/>
  <anchor x="735" y="1435" name="U"/>
  <outline>
    <contour>
      <point x="1456" y="0" type="line"/>
      <point x="1456" y="38" type="line" name="sv04"/>
      <point x="1343" y="46"/>
      <point x="1304" y="71"/>
      <point x="1224" y="260" type="curve" name="at01"/>
      <point x="753" y="1388" type="line"/>
      <point x="717" y="1388" type="line" name="sv02"/>
      <point x="241" y="270" type="line" name="ab01"/>
      <point x="176" y="122"/>
      <point x="131" y="46" name="sv03"/>
      <point x="15" y="38" type="curve"/>
      <point x="15" y="0" type="line" name="dv01"/>
      <point x="444" y="0" type="line"/>
      <point x="444" y="38" type="line"/>
      <point x="254" y="54" name="sv01"/>
      <point x="269" y="115" name="ab02"/>
      <point x="320" y="239" type="curve"/>
      <point x="412" y="455" type="line" name="dv02"/>
      <point x="938" y="455" type="line"/>
      <point x="1019" y="260" type="line" smooth="yes"/>
      <point x="1064" y="151"/>
      <point x="1110" y="41"/>
      <point x="922" y="38" type="curve"/>
      <point x="922" y="0" type="line"/>
    </contour>
    <contour>
      <point x="910" y="528" type="line"/>
      <point x="444" y="528" type="line"/>
      <point x="680" y="1078" type="line"/>
    </contour>
  </outline>
</glyph>
<glyph name="LtnCapB" format="1">
  <advance width="1332"/>
  <unicode hex="0042"/>
  <outline>
    <contour>
      <point x="1254" y="371" type="curve" smooth="yes"/>
      <point x="1254" y="525" name="iv01"/>
      <point x="1159" y="654" name="dh04"/>
      <point x="946" y="694" type="curve" name="at01"/>
      <point x="1110" y="744"/>
      <point x="1192" y="862" name="sv02"/>
      <point x="1192" y="993" type="curve" smooth="yes"/>
      <point x="1192" y="1155"/>
      <point x="1100" y="1356" name="dh01"/>
      <point x="621" y="1356" type="curve" smooth="yes"/>
      <point x="36" y="1356" type="line"/>
      <point x="36" y="1320" type="line"/>
      <point x="85" y="1320" type="line" smooth="yes" name="sv01"/>
      <point x="138" y="1320" name="ab01"/>
      <point x="174" y="1305"/>
      <point x="201" y="1277" type="curve"/>
      <point x="220" y="1254" name="sh01"/>
      <point x="229" y="1201"/>
      <point x="229" y="1117" type="curve" smooth="yes" name="dv02"/>
      <point x="229" y="241" type="line" smooth="yes"/>
      <point x="229" y="164" name="dh02"/>
      <point x="220" y="115" name="sv03"/>
      <point x="207" y="92" type="curve" name="dh03"/>
      <point x="182" y="56"/>
      <point x="141" y="38" name="sv04"/>
      <point x="85" y="38" type="curve" smooth="yes" name="sh03"/>
      <point x="36" y="38" type="line"/>
      <point x="36" y="0" type="line" name="dv01"/>
      <point x="674" y="0" type="line" smooth="yes" name="sh02"/>
      <point x="906" y="0"/>
      <point x="1032" y="31" name="ah01"/>
      <point x="1117" y="98" type="curve" smooth="yes"/>
      <point x="1206" y="168"/>
      <point x="1254" y="276"/>
    </contour>
    <contour>
      <point x="982" y="1003" type="curve" smooth="yes"/>
      <point x="982" y="833"/>
      <point x="877" y="733"/>
      <point x="613" y="733" type="curve" smooth="yes"/>
      <point x="533" y="733"/>
      <point x="474" y="735"/>
      <point x="422" y="747" type="curve"/>
      <point x="422" y="1269" type="line"/>
      <point x="475" y="1284"/>
      <point x="535" y="1289"/>
      <point x="603" y="1289" type="curve" smooth="yes"/>
      <point x="859" y="1289"/>
      <point x="982" y="1158"/>
    </contour>
    <contour>
      <point x="1023" y="355" type="curve" smooth="yes"/>
      <point x="1023" y="190"/>
      <point x="893" y="71"/>
      <point x="653" y="71" type="curve" smooth="yes"/>
      <point x="576" y="71"/>
      <point x="501" y="81"/>
      <point x="422" y="98" type="curve"/>
      <point x="422" y="654" type="line"/>
      <point x="459" y="662"/>
      <point x="515" y="664"/>
      <point x="600" y="664" type="curve" smooth="yes"/>
      <point x="875" y="664"/>
      <point x="1023" y="535"/>
    </contour>
    <contour>
      <point x="645" y="-100" type="move" name="L"/>
    </contour>
    <contour>
      <point x="645" y="1435" type="move" name="U"/>
    </contour>
  </outline>
</glyph>
<glyph name="LtnCapC" format="1">
  <advance width="1368"/>
  <unicode hex="0043"/>
  <outline>
    <contour>
      <point x="1266" y="339" type="line" name="mh06"/>
      <point x="1107" y="113" name="mh05"/>
      <point x="988" y="57" name="dh02"/>
      <point x="810" y="57" type="curve" smooth="yes" name="sv01"/>
      <point x="504" y="57" name="mh04"/>
      <point x="301" y="268"/>
      <point x="301" y="656" type="curve" smooth="yes" name="mh03"/>
      <point x="301" y="1108"/>
      <point x="502" y="1317" name="mv01"/>
      <point x="781" y="1317" type="curve" smooth="yes" name="at01"/>
      <point x="992" y="1317" name="dh01"/>
      <point x="1151" y="1204" name="mh02"/>
      <point x="1234" y="927" type="curve" name="mh01"/>
      <point x="1266" y="927" type="line"/>
      <point x="1234" y="1388" type="line"/>
      <point x="1198" y="1388" type="line"/>
      <point x="1183" y="1324"/>
      <point x="1151" y="1293"/>
      <point x="1115" y="1293" type="curve" smooth="yes"/>
      <point x="1074" y="1293"/>
      <point x="970" y="1388"/>
      <point x="765" y="1388" type="curve" smooth="yes"/>
      <point x="348" y="1388"/>
      <point x="73" y="1053"/>
      <point x="73" y="658" type="curve" smooth="yes"/>
      <point x="73" y="288"/>
      <point x="318" y="-32"/>
      <point x="733" y="-32" type="curve" smooth="yes"/>
      <point x="989" y="-32"/>
      <point x="1162" y="82"/>
      <point x="1295" y="318" type="curve"/>
    </contour>
    <contour>
      <point x="684" y="0" type="move" name="H"/>
    </contour>
    <contour>
      <point x="740" y="-100" type="move" name="L"/>
    </contour>
    <contour>
      <point x="740" y="1435" type="move" name="U"/>
    </contour>
  </outline>
</glyph>
<glyph name="LtnCapD" format="2">
  <advance width="1480"/>
  <unicode hex="0044"/>
  <anchor x="718" y="-100" name="L"/>
  <anchor x="718" y="1435" name="U"/>
  <outline>
    <contour>
      <point x="1401" y="686" type="curve" smooth="yes"/>
      <point x="1401" y="899"/>
      <point x="1317" y="1084"/>
      <point x="1192" y="1196" type="curve"/>
      <point x="1063" y="1309"/>
      <point x="888" y="1356"/>
      <point x="587" y="1356" type="curve" smooth="yes"/>
      <point x="36" y="1356" type="line"/>
      <point x="36" y="1320" type="line"/>
      <point x="87" y="1320" type="line" smooth="yes"/>
      <point x="138" y="1320"/>
      <point x="175" y="1305"/>
      <point x="203" y="1277" type="curve"/>
      <point x="220" y="1254"/>
      <point x="229" y="1200"/>
      <point x="229" y="1117" type="curve" smooth="yes"/>
      <point x="229" y="241" type="line" smooth="yes"/>
      <point x="229" y="164"/>
      <point x="220" y="115"/>
      <point x="207" y="92" type="curve" smooth="yes"/>
      <point x="186" y="55"/>
      <point x="144" y="38"/>
      <point x="87" y="38" type="curve" smooth="yes"/>
      <point x="36" y="38" type="line"/>
      <point x="36" y="0" type="line"/>
      <point x="643" y="0" type="line" smooth="yes"/>
      <point x="1166" y="0"/>
      <point x="1401" y="305"/>
    </contour>
    <contour>
      <point x="1175" y="676" type="curve" smooth="yes"/>
      <point x="1175" y="297"/>
      <point x="941" y="66"/>
      <point x="634" y="69" type="curve" smooth="yes"/>
      <point x="577" y="69"/>
      <point x="506" y="81"/>
      <point x="422" y="98" type="curve"/>
      <point x="422" y="1251" type="line"/>
      <point x="501" y="1274"/>
      <point x="567" y="1281"/>
      <point x="627" y="1281" type="curve" smooth="yes"/>
      <point x="946" y="1281"/>
      <point x="1175" y="1051"/>
    </contour>
  </outline>
</glyph>
<glyph name="LtnCapE" format="1">
  <advance width="1251"/>
  <unicode hex="0045"/>
  <outline>
    <contour>
      <point x="1206" y="341" type="line" name="mh01"/>
      <point x="1165" y="341" type="line"/>
      <point x="1038" y="118" name="sv03"/>
      <point x="993" y="73"/>
      <point x="771" y="73" type="curve" smooth="yes" name="sh02"/>
      <point x="542" y="73" type="line" smooth="yes" name="sh01"/>
      <point x="448" y="73" name="dv01"/>
      <point x="427" y="110"/>
      <point x="427" y="164" type="curve" smooth="yes"/>
      <point x="427" y="224" type="line" name="mv02"/>
      <point x="427" y="672" type="line" name="mv01"/>
      <point x="726" y="672" type="line" smooth="yes"/>
      <point x="908" y="672"/>
      <point x="921" y="612" name="dv02"/>
      <point x="940" y="471" type="curve" name="dh02"/>
      <point x="978" y="471" type="line"/>
      <point x="978" y="942" type="line"/>
      <point x="940" y="942" type="line"/>
      <point x="921" y="805" name="at01"/>
      <point x="910" y="747"/>
      <point x="726" y="747" type="curve" smooth="yes" name="sv02"/>
      <point x="427" y="747" type="line"/>
      <point x="427" y="1283" type="line"/>
      <point x="803" y="1283" type="line" smooth="yes" name="dh01"/>
      <point x="1041" y="1283"/>
      <point x="1036" y="1177"/>
      <point x="1064" y="1061" type="curve"/>
      <point x="1104" y="1061" type="line" name="sv01"/>
      <point x="1088" y="1356" type="line" name="ab01"/>
      <point x="43" y="1356" type="line"/>
      <point x="43" y="1320" type="line"/>
      <point x="90" y="1320" type="line" smooth="yes"/>
      <point x="147" y="1320"/>
      <point x="187" y="1306"/>
      <point x="211" y="1279" type="curve" smooth="yes"/>
      <point x="227" y="1262"/>
      <point x="237" y="1209"/>
      <point x="237" y="1121" type="curve" smooth="yes"/>
      <point x="237" y="241" type="line" smooth="yes"/>
      <point x="237" y="121"/>
      <point x="224" y="93"/>
      <point x="197" y="69" type="curve" smooth="yes"/>
      <point x="170" y="45"/>
      <point x="112" y="38"/>
      <point x="90" y="38" type="curve" smooth="yes"/>
      <point x="43" y="38" type="line"/>
      <point x="43" y="0" type="line"/>
      <point x="1088" y="0" type="line"/>
    </contour>
    <contour>
      <point x="624" y="0" type="move" name="H"/>
    </contour>
    <contour>
      <point x="624" y="-100" type="move" name="L"/>
    </contour>
    <contour>
      <point x="1044" y="0" type="move" name="O"/>
    </contour>
    <contour>
      <point x="1251" y="1100" type="move" name="R"/>
    </contour>
    <contour>
      <point x="624" y="1435" type="move" name="U"/>
    </contour>
  </outline>
</glyph>
<glyph name="LtnCapF" format="1">
  <advance width="1139"/>
  <unicode hex="0046"/>
  <outline>
    <contour>
      <point x="1057" y="1061" type="line"/>
      <point x="1042" y="1356" type="line" name="at02"/>
      <point x="34" y="1356" type="line"/>
      <point x="34" y="1320" type="line" name="sv03"/>
      <point x="83" y="1320" type="line" smooth="yes"/>
      <point x="126" y="1320"/>
      <point x="171" y="1303" name="dh01"/>
      <point x="199" y="1275" type="curve" smooth="yes"/>
      <point x="219" y="1255"/>
      <point x="227" y="1215"/>
      <point x="227" y="1117" type="curve" smooth="yes" name="sv02"/>
      <point x="227" y="241" type="line" smooth="yes" name="ab01"/>
      <point x="227" y="160"/>
      <point x="219" y="108" name="sv01"/>
      <point x="203" y="87" type="curve" smooth="yes"/>
      <point x="176" y="54"/>
      <point x="136" y="38" name="sh01"/>
      <point x="83" y="38" type="curve" smooth="yes" name="dv01"/>
      <point x="34" y="38" type="line"/>
      <point x="34" y="0" type="line"/>
      <point x="615" y="0" type="line"/>
      <point x="615" y="38" type="line" name="at01"/>
      <point x="566" y="38" type="line" smooth="yes"/>
      <point x="519" y="38"/>
      <point x="469" y="54" name="dv02"/>
      <point x="442" y="89" type="curve" name="dh02"/>
      <point x="422" y="109"/>
      <point x="420" y="153" name="mv01"/>
      <point x="420" y="241" type="curve" smooth="yes"/>
      <point x="420" y="666" type="line"/>
      <point x="666" y="666" type="line" smooth="yes"/>
      <point x="803" y="666"/>
      <point x="844" y="603"/>
      <point x="844" y="475" type="curve"/>
      <point x="881" y="475" type="line"/>
      <point x="881" y="934" type="line"/>
      <point x="844" y="934" type="line"/>
      <point x="825" y="794"/>
      <point x="783" y="751"/>
      <point x="666" y="751" type="curve" smooth="yes"/>
      <point x="420" y="751" type="line"/>
      <point x="420" y="1283" type="line"/>
      <point x="720" y="1283" type="line" smooth="yes"/>
      <point x="917" y="1283"/>
      <point x="973" y="1226"/>
      <point x="1021" y="1061" type="curve"/>
    </contour>
    <contour>
      <point x="545" y="-100" type="move" name="L"/>
    </contour>
    <contour>
      <point x="545" y="1435" type="move" name="U"/>
    </contour>
  </outline>
</glyph>
<glyph name="LtnCapG" format="1">
  <advance width="1480"/>
  <unicode hex="0047"/>
  <outline>
    <contour>
      <point x="1450" y="704" type="line"/>
      <point x="1450" y="739" type="line"/>
      <point x="927" y="739" type="line" name="iv01"/>
      <point x="927" y="704" type="line"/>
      <point x="1074" y="699" name="ah02"/>
      <point x="1104" y="675"/>
      <point x="1104" y="504" type="curve" smooth="yes" name="sv01"/>
      <point x="1104" y="113" type="line" name="sh04"/>
      <point x="1015" y="58" name="mh02"/>
      <point x="920" y="38"/>
      <point x="824" y="38" type="curve" smooth="yes" name="sh03"/>
      <point x="526" y="38" name="at01"/>
      <point x="297" y="314"/>
      <point x="301" y="702" type="curve" smooth="yes"/>
      <point x="304" y="1051" name="mh01"/>
      <point x="480" y="1318" name="sh02"/>
      <point x="810" y="1318" type="curve" smooth="yes" name="ab01"/>
      <point x="1013" y="1318"/>
      <point x="1172" y="1218" name="sh01"/>
      <point x="1260" y="960" type="curve"/>
      <point x="1293" y="960" type="line"/>
      <point x="1260" y="1388" type="line" name="ah01"/>
      <point x="1222" y="1388" type="line"/>
      <point x="1214" y="1317"/>
      <point x="1190" y="1301"/>
      <point x="1173" y="1301" type="curve" smooth="yes"/>
      <point x="1123" y="1301"/>
      <point x="1017" y="1388"/>
      <point x="790" y="1388" type="curve" smooth="yes"/>
      <point x="321" y="1388"/>
      <point x="71" y="990"/>
      <point x="71" y="658" type="curve" smooth="yes"/>
      <point x="71" y="271"/>
      <point x="351" y="-32"/>
      <point x="822" y="-32" type="curve" smooth="yes"/>
      <point x="993" y="-32"/>
      <point x="1148" y="3"/>
      <point x="1299" y="90" type="curve"/>
      <point x="1299" y="504" type="line" smooth="yes"/>
      <point x="1299" y="577"/>
      <point x="1305" y="627"/>
      <point x="1320" y="651" type="curve"/>
      <point x="1339" y="686"/>
      <point x="1372" y="704"/>
      <point x="1427" y="704" type="curve" smooth="yes"/>
    </contour>
    <contour>
      <point x="761" y="0" type="move" name="H"/>
    </contour>
    <contour>
      <point x="760" y="-100" type="move" name="L"/>
    </contour>
    <contour>
      <point x="760" y="1435" type="move" name="U"/>
    </contour>
  </outline>
</glyph>
<glyph name="LtnCapH" format="1">
  <advance width="1480"/>
  <unicode hex="0048"/>
  <outline>
    <contour>
      <point x="1439" y="0" type="line" name="ab01"/>
      <point x="1439" y="38" type="line" name="sv08"/>
      <point x="1390" y="38" type="line" smooth="yes"/>
      <point x="1343" y="38"/>
      <point x="1291" y="52"/>
      <point x="1267" y="87" type="curve" smooth="yes" name="sh05"/>
      <point x="1245" y="117"/>
      <point x="1243" y="153"/>
      <point x="1243" y="241" type="curve" smooth="yes" name="sv07"/>
      <point x="1243" y="1117" type="line" smooth="yes" name="at01"/>
      <point x="1243" y="1224"/>
      <point x="1244" y="1245" name="sv06"/>
      <point x="1273" y="1277" type="curve"/>
      <point x="1301" y="1305"/>
      <point x="1350" y="1320" name="ah02"/>
      <point x="1390" y="1320" type="curve" smooth="yes"/>
      <point x="1439" y="1320" type="line" name="dv02"/>
      <point x="1439" y="1356" type="line" name="sh03"/>
      <point x="857" y="1356" type="line"/>
      <point x="857" y="1320" type="line"/>
      <point x="907" y="1320" type="line" smooth="yes" name="sv05"/>
      <point x="952" y="1320" name="at02"/>
      <point x="996" y="1304"/>
      <point x="1023" y="1277" type="curve" smooth="yes" name="sv04"/>
      <point x="1042" y="1258"/>
      <point x="1053" y="1216"/>
      <point x="1053" y="1117" type="curve" smooth="yes" name="sh02"/>
      <point x="1053" y="728" type="line"/>
      <point x="420" y="728" type="line"/>
      <point x="420" y="1117" type="line" smooth="yes"/>
      <point x="420" y="1221" name="sv01"/>
      <point x="432" y="1255" name="ab02"/>
      <point x="451" y="1277" type="curve" smooth="yes"/>
      <point x="479" y="1309" name="sv02"/>
      <point x="523" y="1320"/>
      <point x="568" y="1320" type="curve" smooth="yes"/>
      <point x="617" y="1320" type="line" name="sh04"/>
      <point x="617" y="1356" type="line" name="dv01"/>
      <point x="36" y="1356" type="line" name="sh01"/>
      <point x="36" y="1320" type="line"/>
      <point x="85" y="1320" type="line" smooth="yes"/>
      <point x="124" y="1320"/>
      <point x="182" y="1299" name="sv03"/>
      <point x="201" y="1275" type="curve" smooth="yes"/>
      <point x="222" y="1248" name="ah01"/>
      <point x="229" y="1213"/>
      <point x="229" y="1117" type="curve" smooth="yes"/>
      <point x="229" y="241" type="line" smooth="yes"/>
      <point x="229" y="160"/>
      <point x="221" y="108"/>
      <point x="205" y="87" type="curve" smooth="yes"/>
      <point x="178" y="54"/>
      <point x="138" y="38"/>
      <point x="85" y="38" type="curve" smooth="yes"/>
      <point x="36" y="38" type="line"/>
      <point x="36" y="0" type="line"/>
      <point x="617" y="0" type="line"/>
      <point x="617" y="38" type="line"/>
      <point x="568" y="38" type="line" smooth="yes"/>
      <point x="521" y="38"/>
      <point x="469" y="57"/>
      <point x="446" y="85" type="curve" smooth="yes"/>
      <point x="427" y="108"/>
      <point x="420" y="149"/>
      <point x="420" y="241" type="curve" smooth="yes"/>
      <point x="420" y="654" type="line"/>
      <point x="1053" y="654" type="line"/>
      <point x="1053" y="241" type="line" smooth="yes"/>
      <point x="1053" y="157"/>
      <point x="1042" y="107"/>
      <point x="1027" y="87" type="curve" smooth="yes"/>
      <point x="1002" y="54"/>
      <point x="962" y="38"/>
      <point x="907" y="38" type="curve" smooth="yes"/>
      <point x="857" y="38" type="line"/>
      <point x="857" y="0" type="line"/>
    </contour>
    <contour>
      <point x="737" y="1435" type="move" name="U"/>
    </contour>
    <contour>
      <point x="737" y="-100" type="move" name="L"/>
    </contour>
    <contour>
      <point x="320" y="0" type="move" name="H"/>
    </contour>
  </outline>
</glyph>
<glyph name="LtnCapI" format="2">
  <advance width="682"/>
  <unicode hex="0049"/>
  <anchor x="341" y="0" name="H"/>
  <anchor x="341" y="-100" name="L"/>
  <anchor x="510" y="0" name="O"/>
  <anchor x="682" y="1100" name="R"/>
  <anchor x="341" y="1435" name="U"/>
  <outline>
    <contour>
      <point x="632" y="0" type="line"/>
      <point x="632" y="38" type="line"/>
      <point x="583" y="38" type="line" smooth="yes"/>
      <point x="536" y="38"/>
      <point x="474" y="64"/>
      <point x="461" y="85" type="curve" smooth="yes"/>
      <point x="446" y="109"/>
      <point x="438" y="153"/>
      <point x="438" y="241" type="curve" smooth="yes"/>
      <point x="438" y="1117" type="line" smooth="yes"/>
      <point x="438" y="1198"/>
      <point x="446" y="1250"/>
      <point x="463" y="1271" type="curve" smooth="yes"/>
      <point x="489" y="1304"/>
      <point x="530" y="1320"/>
      <point x="583" y="1320" type="curve" smooth="yes"/>
      <point x="632" y="1320" type="line"/>
      <point x="632" y="1356" type="line"/>
      <point x="51" y="1356" type="line"/>
      <point x="51" y="1320" type="line"/>
      <point x="100" y="1320" type="line" smooth="yes"/>
      <point x="147" y="1320"/>
      <point x="196" y="1300"/>
      <point x="222" y="1269" type="curve" smooth="yes"/>
      <point x="243" y="1244"/>
      <point x="244" y="1210"/>
      <point x="244" y="1117" type="curve" smooth="yes"/>
      <point x="244" y="241" type="line" smooth="yes"/>
      <point x="244" y="157"/>
      <point x="235" y="106"/>
      <point x="220" y="87" type="curve" smooth="yes"/>
      <point x="192" y="52"/>
      <point x="156" y="38"/>
      <point x="100" y="38" type="curve" smooth="yes"/>
      <point x="51" y="38" type="line"/>
      <point x="51" y="0" type="line"/>
    </contour>
  </outline>
</glyph>
<glyph name="LtnCapK" format="1">
  <advance width="1480"/>
  <unicode hex="004B"/>
  <outline>
    <contour>
      <point x="1497" y="0" type="line" name="ab01"/>
      <point x="1497" y="38" type="line" name="sv08"/>
      <point x="1438" y="43"/>
      <point x="1383" y="56"/>
      <point x="1324" y="87" type="curve"/>
      <point x="1265" y="116"/>
      <point x="1195" y="172"/>
      <point x="1113" y="254" type="curve" smooth="yes" name="sv06"/>
      <point x="613" y="753" type="line" name="mh03"/>
      <point x="820" y="960" type="line" smooth="yes"/>
      <point x="1078" y="1218" name="sv07"/>
      <point x="1062" y="1210"/>
      <point x="1151" y="1266" type="curve" smooth="yes"/>
      <point x="1223" y="1311"/>
      <point x="1264" y="1320"/>
      <point x="1320" y="1320" type="curve" name="iv01"/>
      <point x="1320" y="1356" type="line" name="dh02"/>
      <point x="820" y="1356" type="line"/>
      <point x="820" y="1320" type="line"/>
      <point x="852" y="1320" type="line" smooth="yes" name="sv04"/>
      <point x="919" y="1320" name="at01"/>
      <point x="942" y="1291"/>
      <point x="942" y="1264" type="curve" smooth="yes" name="sv05"/>
      <point x="942" y="1241"/>
      <point x="933" y="1217"/>
      <point x="916" y="1192" type="curve" smooth="yes" name="dh01"/>
      <point x="875" y="1132"/>
      <point x="757" y="1002"/>
      <point x="558" y="818" type="curve" smooth="yes"/>
      <point x="478" y="745" name="sv01"/>
      <point x="435" y="704" name="ab02"/>
      <point x="420" y="692" type="curve"/>
      <point x="420" y="1117" type="line" smooth="yes" name="sv02"/>
      <point x="420" y="1232"/>
      <point x="432" y="1260"/>
      <point x="453" y="1281" type="curve" smooth="yes" name="sh01"/>
      <point x="481" y="1309"/>
      <point x="526" y="1320" name="mh02"/>
      <point x="566" y="1320" type="curve" smooth="yes" name="mh01"/>
      <point x="613" y="1320" type="line"/>
      <point x="613" y="1356" type="line" name="sv03"/>
      <point x="36" y="1356" type="line"/>
      <point x="36" y="1320" type="line"/>
      <point x="83" y="1320" type="line" smooth="yes"/>
      <point x="127" y="1320"/>
      <point x="185" y="1296"/>
      <point x="201" y="1277" type="curve" smooth="yes"/>
      <point x="218" y="1256"/>
      <point x="227" y="1209"/>
      <point x="227" y="1117" type="curve" smooth="yes"/>
      <point x="227" y="241" type="line" smooth="yes"/>
      <point x="227" y="158"/>
      <point x="220" y="106"/>
      <point x="205" y="87" type="curve" smooth="yes"/>
      <point x="178" y="54"/>
      <point x="138" y="38"/>
      <point x="83" y="38" type="curve" smooth="yes"/>
      <point x="36" y="38" type="line"/>
      <point x="36" y="0" type="line"/>
      <point x="613" y="0" type="line"/>
      <point x="613" y="38" type="line"/>
      <point x="566" y="38" type="line" smooth="yes"/>
      <point x="517" y="38"/>
      <point x="467" y="55"/>
      <point x="444" y="87" type="curve" smooth="yes"/>
      <point x="423" y="115"/>
      <point x="420" y="154"/>
      <point x="420" y="241" type="curve" smooth="yes"/>
      <point x="420" y="560" type="line"/>
      <point x="479" y="619" type="line"/>
      <point x="887" y="213" type="line" smooth="yes"/>
      <point x="946" y="154"/>
      <point x="966" y="128"/>
      <point x="961" y="100" type="curve"/>
      <point x="958" y="65"/>
      <point x="929" y="38"/>
      <point x="852" y="38" type="curve"/>
      <point x="852" y="0" type="line"/>
    </contour>
    <contour>
      <point x="766" y="1435" type="move" name="U"/>
    </contour>
    <contour>
      <point x="766" y="-100" type="move" name="L"/>
    </contour>
    <contour>
      <point x="320" y="0" type="move" name="H"/>
    </contour>
  </outline>
</glyph>
<glyph name="LtnCapL" format="1">
  <advance width="1251"/>
  <unicode hex="004C"/>
  <outline>
    <contour>
      <point x="1210" y="369" type="line"/>
      <point x="1175" y="374" type="line" name="mh01"/>
      <point x="1124" y="254"/>
      <point x="1091" y="204" name="sv04"/>
      <point x="1023" y="146" type="curve"/>
      <point x="967" y="95"/>
      <point x="899" y="87" name="dh02"/>
      <point x="735" y="87" type="curve" smooth="yes" name="sv02"/>
      <point x="598" y="87" type="line" smooth="yes" name="at01"/>
      <point x="479" y="87"/>
      <point x="427" y="102" name="sv03"/>
      <point x="427" y="256" type="curve" smooth="yes" name="dh01"/>
      <point x="427" y="1149" type="line" smooth="yes"/>
      <point x="427" y="1304" name="sv01"/>
      <point x="508" y="1318" name="ab01"/>
      <point x="627" y="1318" type="curve" name="fh01"/>
      <point x="627" y="1356" type="line"/>
      <point x="38" y="1356" type="line"/>
      <point x="38" y="1318" type="line"/>
      <point x="156" y="1318"/>
      <point x="237" y="1304"/>
      <point x="237" y="1149" type="curve" smooth="yes"/>
      <point x="237" y="207" type="line" smooth="yes"/>
      <point x="237" y="53"/>
      <point x="156" y="38"/>
      <point x="38" y="38" type="curve"/>
      <point x="38" y="0" type="line"/>
      <point x="1092" y="0" type="line"/>
    </contour>
    <contour>
      <point x="624" y="0" type="move" name="H"/>
    </contour>
    <contour>
      <point x="624" y="-100" type="move" name="L"/>
    </contour>
    <contour>
      <point x="751" y="900" type="move" name="R"/>
    </contour>
    <contour>
      <point x="624" y="1435" type="move" name="U"/>
    </contour>
  </outline>
</glyph>
<glyph name="LtnCapM" format="1">
  <advance width="1823"/>
  <unicode hex="004D"/>
  <outline>
    <contour>
      <point x="1779" y="0" type="line" name="ab01"/>
      <point x="1779" y="38" type="line" name="sv01"/>
      <point x="1732" y="38" type="line" smooth="yes"/>
      <point x="1678" y="38"/>
      <point x="1639" y="52"/>
      <point x="1616" y="79" type="curve" smooth="yes" name="dh04"/>
      <point x="1597" y="100"/>
      <point x="1587" y="153"/>
      <point x="1587" y="237" type="curve" smooth="yes" name="sv06"/>
      <point x="1587" y="1121" type="line" smooth="yes" name="at01"/>
      <point x="1587" y="1198"/>
      <point x="1595" y="1245" name="ih01"/>
      <point x="1608" y="1269" type="curve" name="at02"/>
      <point x="1634" y="1303"/>
      <point x="1675" y="1320" name="sv05"/>
      <point x="1732" y="1320" type="curve" smooth="yes"/>
      <point x="1779" y="1320" type="line" name="dh01"/>
      <point x="1779" y="1356" type="line"/>
      <point x="1395" y="1356" type="line"/>
      <point x="910" y="295" type="line"/>
      <point x="418" y="1356" type="line" name="sv03"/>
      <point x="36" y="1356" type="line" name="ab02"/>
      <point x="36" y="1320" type="line"/>
      <point x="116" y="1320" name="sv04"/>
      <point x="152" y="1306"/>
      <point x="181" y="1283" type="curve" smooth="yes"/>
      <point x="217" y="1256"/>
      <point x="224" y="1206" name="dh02"/>
      <point x="224" y="1121" type="curve" smooth="yes" name="ab03"/>
      <point x="224" y="237" type="line" smooth="yes"/>
      <point x="224" y="157" name="dh03"/>
      <point x="217" y="111"/>
      <point x="205" y="90" type="curve"/>
      <point x="177" y="53"/>
      <point x="140" y="38" name="sv02"/>
      <point x="83" y="38" type="curve" smooth="yes"/>
      <point x="36" y="38" type="line"/>
      <point x="36" y="0" type="line" name="sh01"/>
      <point x="506" y="0" type="line"/>
      <point x="506" y="38" type="line"/>
      <point x="459" y="38" type="line" smooth="yes"/>
      <point x="403" y="38"/>
      <point x="364" y="52"/>
      <point x="343" y="79" type="curve"/>
      <point x="324" y="99"/>
      <point x="314" y="152"/>
      <point x="314" y="237" type="curve" smooth="yes"/>
      <point x="314" y="1141" type="line"/>
      <point x="837" y="0" type="line"/>
      <point x="871" y="0" type="line"/>
      <point x="1395" y="1141" type="line"/>
      <point x="1395" y="237" type="line" smooth="yes"/>
      <point x="1395" y="160"/>
      <point x="1388" y="111"/>
      <point x="1373" y="90" type="curve" smooth="yes"/>
      <point x="1348" y="53"/>
      <point x="1312" y="38"/>
      <point x="1249" y="38" type="curve" smooth="yes"/>
      <point x="1202" y="38" type="line"/>
      <point x="1202" y="0" type="line"/>
    </contour>
    <contour>
      <point x="1500" y="0" type="move" name="H"/>
    </contour>
    <contour>
      <point x="907" y="-100" type="move" name="L"/>
    </contour>
    <contour>
      <point x="907" y="1435" type="move" name="U"/>
    </contour>
  </outline>
</glyph>
<glyph name="LtnCapN" format="1">
  <advance width="1480"/>
  <unicode hex="004E"/>
  <outline>
    <contour>
      <point x="1450" y="1320" type="line" name="sv04"/>
      <point x="1450" y="1356" type="line" name="at01"/>
      <point x="980" y="1356" type="line"/>
      <point x="980" y="1320" type="line" name="sv05"/>
      <point x="1025" y="1320" type="line" smooth="yes"/>
      <point x="1079" y="1320"/>
      <point x="1118" y="1306" name="sh03"/>
      <point x="1143" y="1277" type="curve" name="iv01"/>
      <point x="1162" y="1259" name="at02"/>
      <point x="1171" y="1207"/>
      <point x="1171" y="1121" type="curve" smooth="yes" name="sv03"/>
      <point x="1171" y="339" type="line" name="sh01"/>
      <point x="343" y="1356" type="line"/>
      <point x="12" y="1356" type="line"/>
      <point x="12" y="1320" type="line"/>
      <point x="172" y="1320" name="sv01"/>
      <point x="214" y="1208" name="ab02"/>
      <point x="241" y="1179" type="curve"/>
      <point x="241" y="237" type="line" smooth="yes" name="sv02"/>
      <point x="241" y="157"/>
      <point x="233" y="111"/>
      <point x="217" y="90" type="curve"/>
      <point x="194" y="53" name="sh02"/>
      <point x="154" y="38" name="ab01"/>
      <point x="94" y="38" type="curve" smooth="yes"/>
      <point x="47" y="38" type="line" name="ah02"/>
      <point x="47" y="0" type="line"/>
      <point x="521" y="0" type="line"/>
      <point x="521" y="38" type="line" name="ah01"/>
      <point x="474" y="38" type="line" smooth="yes"/>
      <point x="419" y="38"/>
      <point x="380" y="52"/>
      <point x="355" y="79" type="curve" smooth="yes"/>
      <point x="336" y="101"/>
      <point x="327" y="154"/>
      <point x="327" y="237" type="curve" smooth="yes"/>
      <point x="327" y="1070" type="line"/>
      <point x="1224" y="-22" type="line"/>
      <point x="1260" y="-22" type="line"/>
      <point x="1260" y="1121" type="line" smooth="yes"/>
      <point x="1260" y="1197"/>
      <point x="1267" y="1246"/>
      <point x="1281" y="1269" type="curve" smooth="yes"/>
      <point x="1304" y="1304"/>
      <point x="1346" y="1320"/>
      <point x="1403" y="1320" type="curve" smooth="yes"/>
    </contour>
    <contour>
      <point x="731" y="1435" type="move" name="U"/>
    </contour>
    <contour>
      <point x="731" y="-100" type="move" name="L"/>
    </contour>
    <contour>
      <point x="1224" y="0" type="move" name="H"/>
    </contour>
  </outline>
</glyph>
<glyph name="LtnCapO" format="2">
  <advance width="1480"/>
  <unicode hex="004F"/>
  <anchor x="735" y="0" name="H"/>
  <anchor x="735" y="-100" name="L"/>
  <anchor x="990" y="0" name="O"/>
  <anchor x="1400" y="1320" name="R"/>
  <anchor x="735" y="1435" name="U"/>
  <outline>
    <contour>
      <point x="1399" y="686" type="curve" smooth="yes"/>
      <point x="1399" y="1091" name="at01"/>
      <point x="1106" y="1388" name="sh01"/>
      <point x="751" y="1388" type="curve" smooth="yes" name="ab01"/>
      <point x="365" y="1388" name="dh02"/>
      <point x="71" y="1088"/>
      <point x="71" y="682" type="curve" smooth="yes" name="sv02"/>
      <point x="71" y="255" name="sh02"/>
      <point x="365" y="-32" name="sv01"/>
      <point x="733" y="-32" type="curve" smooth="yes" name="dh01"/>
      <point x="1112" y="-32" name="ah01"/>
      <point x="1399" y="276"/>
    </contour>
    <contour>
      <point x="1173" y="660" type="curve" smooth="yes"/>
      <point x="1173" y="233"/>
      <point x="991" y="39"/>
      <point x="731" y="39" type="curve" smooth="yes"/>
      <point x="451" y="39"/>
      <point x="301" y="304"/>
      <point x="301" y="688" type="curve" smooth="yes"/>
      <point x="301" y="1077"/>
      <point x="457" y="1317"/>
      <point x="729" y="1317" type="curve" smooth="yes"/>
      <point x="1029" y="1317"/>
      <point x="1173" y="1074"/>
    </contour>
  </outline>
</glyph>
<glyph name="LtnCapQ" format="2">
  <advance width="1480"/>
  <unicode hex="0051"/>
  <anchor x="736" y="-500" name="L"/>
  <anchor x="736" y="1435" name="U"/>
  <outline>
    <contour>
      <point x="1401" y="678" type="curve" smooth="yes"/>
      <point x="1401" y="1092"/>
      <point x="1108" y="1388"/>
      <point x="747" y="1388" type="curve" smooth="yes"/>
      <point x="367" y="1388"/>
      <point x="71" y="1089"/>
      <point x="71" y="680" type="curve" smooth="yes"/>
      <point x="71" y="389"/>
      <point x="199" y="112"/>
      <point x="558" y="-13" type="curve"/>
      <point x="732" y="-205"/>
      <point x="1071" y="-389"/>
      <point x="1394" y="-402" type="curve"/>
      <point x="1394" y="-369" type="line"/>
      <point x="1187" y="-353"/>
      <point x="1036" y="-244"/>
      <point x="903" y="-13" type="curve"/>
      <point x="1202" y="78"/>
      <point x="1401" y="346"/>
    </contour>
    <contour>
      <point x="1173" y="653" type="curve" smooth="yes"/>
      <point x="1173" y="269"/>
      <point x="1013" y="38"/>
      <point x="733" y="38" type="curve" smooth="yes"/>
      <point x="453" y="38"/>
      <point x="301" y="300"/>
      <point x="301" y="680" type="curve" smooth="yes"/>
      <point x="301" y="1092"/>
      <point x="465" y="1313"/>
      <point x="733" y="1313" type="curve" smooth="yes"/>
      <point x="1019" y="1313"/>
      <point x="1173" y="1056"/>
    </contour>
  </outline>
</glyph>
<glyph name="LtnCapR" format="1">
  <advance width="1368"/>
  <unicode hex="0052"/>
  <outline>
    <contour>
      <point x="1386" y="0" type="line" name="ab01"/>
      <point x="1386" y="38" type="line" name="sv04"/>
      <point x="1236" y="54"/>
      <point x="1162" y="98" name="ih01"/>
      <point x="1038" y="270" type="curve" name="dh02"/>
      <point x="761" y="660" type="line"/>
      <point x="988" y="711" name="at01"/>
      <point x="1094" y="842"/>
      <point x="1094" y="1010" type="curve" smooth="yes" name="sv03"/>
      <point x="1094" y="1165"/>
      <point x="989" y="1279"/>
      <point x="850" y="1324" type="curve" smooth="yes" name="sh01"/>
      <point x="781" y="1347"/>
      <point x="673" y="1356"/>
      <point x="528" y="1356" type="curve" smooth="yes"/>
      <point x="36" y="1356" type="line" name="sv01"/>
      <point x="36" y="1320" type="line" name="ab02"/>
      <point x="87" y="1320" type="line" smooth="yes"/>
      <point x="138" y="1320" name="sv02"/>
      <point x="175" y="1305"/>
      <point x="203" y="1277" type="curve"/>
      <point x="220" y="1254" name="sh03"/>
      <point x="229" y="1200" name="iv01"/>
      <point x="229" y="1117" type="curve" smooth="yes"/>
      <point x="229" y="241" type="line" smooth="yes" name="mh01"/>
      <point x="229" y="163"/>
      <point x="222" y="113"/>
      <point x="209" y="92" type="curve" smooth="yes"/>
      <point x="186" y="56" name="iv02"/>
      <point x="146" y="38" name="sh02"/>
      <point x="87" y="38" type="curve" smooth="yes" name="sv05"/>
      <point x="36" y="38" type="line" name="dh01"/>
      <point x="36" y="0" type="line" name="ah01"/>
      <point x="617" y="0" type="line"/>
      <point x="617" y="38" type="line"/>
      <point x="564" y="38" type="line" smooth="yes"/>
      <point x="513" y="38"/>
      <point x="474" y="53"/>
      <point x="449" y="83" type="curve"/>
      <point x="430" y="102"/>
      <point x="420" y="154"/>
      <point x="420" y="241" type="curve" smooth="yes"/>
      <point x="420" y="634" type="line"/>
      <point x="443" y="630"/>
      <point x="461" y="630"/>
      <point x="481" y="630" type="curve" smooth="yes"/>
      <point x="502" y="630"/>
      <point x="528" y="633"/>
      <point x="564" y="634" type="curve"/>
      <point x="1023" y="0" type="line"/>
    </contour>
    <contour>
      <point x="869" y="993" type="curve" smooth="yes"/>
      <point x="869" y="822"/>
      <point x="743" y="698"/>
      <point x="477" y="698" type="curve" smooth="yes"/>
      <point x="420" y="698" type="line"/>
      <point x="420" y="1264" type="line"/>
      <point x="489" y="1275"/>
      <point x="542" y="1281"/>
      <point x="577" y="1281" type="curve" smooth="yes"/>
      <point x="756" y="1278"/>
      <point x="869" y="1163"/>
    </contour>
    <contour>
      <point x="320" y="0" type="move" name="H"/>
    </contour>
    <contour>
      <point x="711" y="-100" type="move" name="L"/>
    </contour>
    <contour>
      <point x="611" y="1435" type="move" name="U"/>
    </contour>
  </outline>
</glyph>
<glyph name="LtnCapU" format="1">
  <advance width="1480"/>
  <unicode hex="0055"/>
  <outline>
    <contour>
      <point x="1459" y="1320" type="line" name="sv04"/>
      <point x="1459" y="1356" type="line" name="at01"/>
      <point x="978" y="1356" type="line"/>
      <point x="978" y="1320" type="line" name="sv05"/>
      <point x="1029" y="1320" type="line" smooth="yes"/>
      <point x="1080" y="1320"/>
      <point x="1118" y="1306" name="dh03"/>
      <point x="1145" y="1277" type="curve" smooth="yes"/>
      <point x="1165" y="1254" name="sh01"/>
      <point x="1173" y="1201"/>
      <point x="1173" y="1117" type="curve" smooth="yes" name="sv03"/>
      <point x="1173" y="568" type="line"/>
      <point x="1173" y="519" type="line" smooth="yes" name="dh02"/>
      <point x="1173" y="425"/>
      <point x="1164" y="254"/>
      <point x="1078" y="175" type="curve" smooth="yes" name="sv01"/>
      <point x="1030" y="130" name="at02"/>
      <point x="915" y="53"/>
      <point x="753" y="53" type="curve" smooth="yes" name="sv02"/>
      <point x="408" y="53"/>
      <point x="400" y="348"/>
      <point x="400" y="525" type="curve" smooth="yes" name="dh01"/>
      <point x="400" y="1117" type="line" smooth="yes"/>
      <point x="400" y="1193" name="ab01"/>
      <point x="410" y="1240"/>
      <point x="425" y="1267" type="curve"/>
      <point x="449" y="1303" name="dh04"/>
      <point x="471" y="1320"/>
      <point x="526" y="1320" type="curve" smooth="yes"/>
      <point x="577" y="1320" type="line"/>
      <point x="577" y="1356" type="line" name="sh02"/>
      <point x="30" y="1356" type="line"/>
      <point x="30" y="1320" type="line"/>
      <point x="61" y="1320" type="line" smooth="yes"/>
      <point x="116" y="1320"/>
      <point x="152" y="1309"/>
      <point x="173" y="1281" type="curve"/>
      <point x="197" y="1254"/>
      <point x="207" y="1201"/>
      <point x="207" y="1117" type="curve" smooth="yes"/>
      <point x="207" y="585" type="line" smooth="yes"/>
      <point x="207" y="371"/>
      <point x="183" y="-32"/>
      <point x="739" y="-32" type="curve" smooth="yes"/>
      <point x="939" y="-32"/>
      <point x="1047" y="15"/>
      <point x="1145" y="118" type="curve" smooth="yes"/>
      <point x="1241" y="219"/>
      <point x="1264" y="371"/>
      <point x="1264" y="558" type="curve" smooth="yes"/>
      <point x="1264" y="1110" type="line" smooth="yes"/>
      <point x="1264" y="1186"/>
      <point x="1269" y="1232"/>
      <point x="1285" y="1251" type="curve"/>
      <point x="1316" y="1298"/>
      <point x="1351" y="1320"/>
      <point x="1407" y="1320" type="curve" smooth="yes"/>
    </contour>
    <contour>
      <point x="744" y="0" type="move" name="H"/>
    </contour>
    <contour>
      <point x="744" y="-100" type="move" name="L"/>
    </contour>
    <contour>
      <point x="1006" y="0" type="move" name="O"/>
    </contour>
    <contour>
      <point x="1490" y="1330" type="move" name="R"/>
    </contour>
    <contour>
      <point x="744" y="1435" type="move" name="U"/>
    </contour>
  </outline>
</glyph>
<glyph name="LtnCapV" format="1">
  <advance width="1480"/>
  <unicode hex="0056"/>
  <outline>
    <contour>
      <point x="1454" y="1356" type="line" name="at01"/>
      <point x="1037" y="1356" type="line"/>
      <point x="1037" y="1320" type="line"/>
      <point x="1134" y="1304"/>
      <point x="1159" y="1280"/>
      <point x="1171" y="1258" type="curve" smooth="yes" name="sh01"/>
      <point x="1192" y="1222" name="mh02"/>
      <point x="1173" y="1164" name="mh01"/>
      <point x="1134" y="1064" type="curve"/>
      <point x="814" y="276" type="line" name="at02"/>
      <point x="467" y="1072" type="line" smooth="yes"/>
      <point x="422" y="1176"/>
      <point x="410" y="1236"/>
      <point x="434" y="1271" type="curve"/>
      <point x="451" y="1299" name="ab01"/>
      <point x="492" y="1313" name="ah01"/>
      <point x="572" y="1320" type="curve" name="mv01"/>
      <point x="572" y="1356" type="line"/>
      <point x="17" y="1356" type="line"/>
      <point x="17" y="1320" type="line"/>
      <point x="81" y="1315"/>
      <point x="115" y="1303"/>
      <point x="146" y="1279" type="curve" smooth="yes"/>
      <point x="169" y="1261"/>
      <point x="187" y="1255"/>
      <point x="235" y="1139" type="curve"/>
      <point x="741" y="-32" type="line"/>
      <point x="779" y="-32" type="line"/>
      <point x="1251" y="1125" type="line"/>
      <point x="1280" y="1193"/>
      <point x="1311" y="1243"/>
      <point x="1346" y="1275" type="curve"/>
      <point x="1369" y="1299"/>
      <point x="1407" y="1313"/>
      <point x="1454" y="1320" type="curve"/>
    </contour>
    <contour>
      <point x="755" y="0" type="move" name="H"/>
    </contour>
    <contour>
      <point x="735" y="-100" type="move" name="L"/>
    </contour>
    <contour>
      <point x="856" y="0" type="move" name="O"/>
    </contour>
    <contour>
      <point x="735" y="1435" type="move" name="U"/>
    </contour>
  </outline>
</glyph>
<glyph name="LtnCapW" format="2">
  <advance width="1935"/>
  <unicode hex="0057"/>
  <anchor x="973" y="-100" name="L"/>
  <anchor x="973" y="1435" name="U"/>
  <outline>
    <contour>
      <point x="1918" y="1356" type="line"/>
      <point x="1514" y="1356" type="line"/>
      <point x="1514" y="1320" type="line"/>
      <point x="1577" y="1320"/>
      <point x="1623" y="1312"/>
      <point x="1648" y="1277" type="curve"/>
      <point x="1677" y="1240"/>
      <point x="1660" y="1185"/>
      <point x="1620" y="1064" type="curve"/>
      <point x="1362" y="316" type="line"/>
      <point x="1100" y="1055" type="line"/>
      <point x="1069" y="1139"/>
      <point x="1057" y="1196"/>
      <point x="1057" y="1232" type="curve" smooth="yes"/>
      <point x="1057" y="1291"/>
      <point x="1093" y="1320"/>
      <point x="1165" y="1320" type="curve" smooth="yes"/>
      <point x="1200" y="1320" type="line"/>
      <point x="1200" y="1356" type="line"/>
      <point x="672" y="1356" type="line"/>
      <point x="672" y="1320" type="line"/>
      <point x="729" y="1320"/>
      <point x="755" y="1310"/>
      <point x="782" y="1287" type="curve"/>
      <point x="819" y="1258"/>
      <point x="856" y="1177"/>
      <point x="885" y="1103" type="curve" smooth="yes"/>
      <point x="902" y="1060"/>
      <point x="918" y="1013"/>
      <point x="933" y="963" type="curve"/>
      <point x="707" y="316" type="line"/>
      <point x="442" y="1078" type="line"/>
      <point x="391" y="1227"/>
      <point x="395" y="1248"/>
      <point x="408" y="1275" type="curve" smooth="yes"/>
      <point x="423" y="1305"/>
      <point x="455" y="1320"/>
      <point x="504" y="1320" type="curve" smooth="yes"/>
      <point x="528" y="1320" type="line"/>
      <point x="528" y="1356" type="line"/>
      <point x="28" y="1356" type="line"/>
      <point x="28" y="1320" type="line"/>
      <point x="88" y="1320"/>
      <point x="126" y="1308"/>
      <point x="150" y="1277" type="curve"/>
      <point x="174" y="1261"/>
      <point x="180" y="1245"/>
      <point x="233" y="1096" type="curve" smooth="yes"/>
      <point x="634" y="-32" type="line"/>
      <point x="672" y="-32" type="line"/>
      <point x="980" y="835" type="line"/>
      <point x="1287" y="-32" type="line"/>
      <point x="1328" y="-32" type="line"/>
      <point x="1705" y="1064" type="line"/>
      <point x="1734" y="1152"/>
      <point x="1758" y="1207"/>
      <point x="1770" y="1230" type="curve" smooth="yes"/>
      <point x="1810" y="1305"/>
      <point x="1857" y="1320"/>
      <point x="1918" y="1320" type="curve"/>
    </contour>
  </outline>
</glyph>
<glyph name="LtnCapX" format="1">
  <advance width="1480"/>
  <unicode hex="0058"/>
  <outline>
    <contour>
      <point x="1454" y="0" type="line" name="ab02"/>
      <point x="1454" y="38" type="line"/>
      <point x="1334" y="46" name="mh08"/>
      <point x="1292" y="76" name="mh07"/>
      <point x="1127" y="318" type="curve"/>
      <point x="835" y="753" type="line"/>
      <point x="1108" y="1096" type="line" name="at01"/>
      <point x="1225" y="1245"/>
      <point x="1279" y="1312"/>
      <point x="1425" y="1320" type="curve"/>
      <point x="1425" y="1356" type="line" name="mh06"/>
      <point x="942" y="1356" type="line" name="ih04"/>
      <point x="942" y="1320" type="line" name="mh05"/>
      <point x="1040" y="1317"/>
      <point x="1059" y="1308"/>
      <point x="1078" y="1281" type="curve" name="at02"/>
      <point x="1105" y="1246"/>
      <point x="1084" y="1202"/>
      <point x="1027" y="1130" type="curve" smooth="yes"/>
      <point x="786" y="824" type="line" name="mh04"/>
      <point x="577" y="1136" type="line"/>
      <point x="516" y="1229"/>
      <point x="519" y="1260" name="ab01"/>
      <point x="560" y="1293" type="curve" smooth="yes"/>
      <point x="581" y="1309"/>
      <point x="618" y="1318"/>
      <point x="670" y="1320" type="curve" name="mh03"/>
      <point x="670" y="1356" type="line" name="ih01"/>
      <point x="43" y="1356" type="line" name="mh02"/>
      <point x="43" y="1320" type="line"/>
      <point x="177" y="1312" name="mh01"/>
      <point x="263" y="1266"/>
      <point x="402" y="1061" type="curve" smooth="yes" name="ih02"/>
      <point x="670" y="668" type="line" name="ih03"/>
      <point x="348" y="262" type="line" smooth="yes"/>
      <point x="257" y="148"/>
      <point x="133" y="41"/>
      <point x="13" y="38" type="curve"/>
      <point x="13" y="0" type="line"/>
      <point x="497" y="0" type="line"/>
      <point x="497" y="38" type="line"/>
      <point x="391" y="41"/>
      <point x="367" y="73"/>
      <point x="367" y="115" type="curve" smooth="yes"/>
      <point x="367" y="148"/>
      <point x="374" y="164"/>
      <point x="427" y="233" type="curve"/>
      <point x="713" y="598" type="line"/>
      <point x="942" y="248" type="line" smooth="yes"/>
      <point x="1016" y="134"/>
      <point x="1022" y="115"/>
      <point x="993" y="75" type="curve" smooth="yes"/>
      <point x="974" y="47"/>
      <point x="941" y="38"/>
      <point x="873" y="38" type="curve"/>
      <point x="873" y="0" type="line"/>
    </contour>
    <contour>
      <point x="733" y="-100" type="move" name="L"/>
    </contour>
    <contour>
      <point x="733" y="1435" type="move" name="U"/>
    </contour>
  </outline>
</glyph>
<glyph name="LtnCapY" format="2">
  <advance width="1480"/>
  <unicode hex="0059"/>
  <anchor x="733" y="-100" name="L"/>
  <anchor x="900" y="0" name="O"/>
  <anchor x="733" y="1435" name="U"/>
  <outline>
    <contour>
      <point x="1450" y="1320" type="line"/>
      <point x="1450" y="1356" type="line"/>
      <point x="978" y="1356" type="line"/>
      <point x="978" y="1320" type="line"/>
      <point x="1053" y="1320"/>
      <point x="1082" y="1300"/>
      <point x="1098" y="1273" type="curve"/>
      <point x="1135" y="1225"/>
      <point x="1114" y="1173"/>
      <point x="1055" y="1082" type="curve" smooth="yes"/>
      <point x="786" y="664" type="line"/>
      <point x="504" y="1100" type="line"/>
      <point x="463" y="1165"/>
      <point x="444" y="1209"/>
      <point x="444" y="1232" type="curve" smooth="yes"/>
      <point x="444" y="1305"/>
      <point x="533" y="1320"/>
      <point x="570" y="1320" type="curve" smooth="yes"/>
      <point x="600" y="1320" type="line"/>
      <point x="600" y="1356" type="line"/>
      <point x="17" y="1356" type="line"/>
      <point x="17" y="1320" type="line"/>
      <point x="72" y="1320"/>
      <point x="121" y="1291"/>
      <point x="156" y="1266" type="curve"/>
      <point x="193" y="1235"/>
      <point x="220" y="1190"/>
      <point x="264" y="1125" type="curve"/>
      <point x="634" y="558" type="line"/>
      <point x="634" y="237" type="line" smooth="yes"/>
      <point x="634" y="157"/>
      <point x="629" y="110"/>
      <point x="615" y="90" type="curve" smooth="yes"/>
      <point x="589" y="52"/>
      <point x="550" y="38"/>
      <point x="493" y="38" type="curve" smooth="yes"/>
      <point x="446" y="38" type="line"/>
      <point x="446" y="0" type="line"/>
      <point x="1021" y="0" type="line"/>
      <point x="1021" y="38" type="line"/>
      <point x="978" y="38" type="line" smooth="yes"/>
      <point x="921" y="38"/>
      <point x="881" y="53"/>
      <point x="857" y="79" type="curve" smooth="yes"/>
      <point x="838" y="99"/>
      <point x="828" y="152"/>
      <point x="828" y="237" type="curve" smooth="yes"/>
      <point x="828" y="576" type="line"/>
      <point x="1157" y="1090" type="line" smooth="yes"/>
      <point x="1198" y="1155"/>
      <point x="1230" y="1201"/>
      <point x="1258" y="1232" type="curve" smooth="yes"/>
      <point x="1314" y="1296"/>
      <point x="1393" y="1320"/>
      <point x="1425" y="1320" type="curve" smooth="yes"/>
    </contour>
  </outline>
</glyph>
<glyph name="LtnCapZ" format="1">
  <advance width="1251"/>
  <unicode hex="005A"/>
  <outline>
    <contour>
      <point x="1194" y="359" type="line"/>
      <point x="1163" y="365" type="line"/>
      <point x="1124" y="249"/>
      <point x="1086" y="175" name="sv02"/>
      <point x="1038" y="138" type="curve"/>
      <point x="993" y="99" name="at01"/>
      <point x="929" y="83"/>
      <point x="844" y="83" type="curve" smooth="yes"/>
      <point x="288" y="83" type="line"/>
      <point x="1179" y="1356" type="line"/>
      <point x="175" y="1356" type="line" name="sv01"/>
      <point x="148" y="1017" type="line"/>
      <point x="186" y="1017" type="line"/>
      <point x="207" y="1149" name="ab01"/>
      <point x="231" y="1196"/>
      <point x="266" y="1228" type="curve" smooth="yes"/>
      <point x="305" y="1263"/>
      <point x="359" y="1277"/>
      <point x="463" y="1277" type="curve" smooth="yes"/>
      <point x="895" y="1277" type="line"/>
      <point x="28" y="38" type="line"/>
      <point x="28" y="0" type="line"/>
      <point x="1132" y="0" type="line"/>
    </contour>
    <contour>
      <point x="611" y="-100" type="move" name="L"/>
    </contour>
    <contour>
      <point x="611" y="1435" type="move" name="U"/>
    </contour>
  </outline>
</glyph>
<glyph name="LftSqrBrac" format="2">
  <advance width="682"/>
  <unicode hex="005B"/>
  <outline>
    <contour>
      <point x="607" y="-406" type="line"/>
      <point x="607" y="-327" type="line"/>
      <point x="316" y="-327" type="line"/>
      <point x="316" y="1311" type="line"/>
      <point x="607" y="1311" type="line"/>
      <point x="607" y="1388" type="line"/>
      <point x="166" y="1388" type="line"/>
      <point x="166" y="-406" type="line"/>
    </contour>
  </outline>
</glyph>
<glyph name="ReverseSolidus" format="1">
  <advance width="570"/>
  <unicode hex="005C"/>
  <outline>
    <contour>
      <point x="577" y="-30" type="line"/>
      <point x="89" y="1423" type="line"/>
      <point x="2" y="1423" type="line"/>
      <point x="495" y="-30" type="line"/>
    </contour>
  </outline>
</glyph>
<glyph name="LowLine" format="1">
  <advance width="643"/>
  <unicode hex="005F"/>
  <outline>
    <contour>
      <point x="643" y="-295" type="line"/>
      <point x="643" y="-186" type="line"/>
      <point x="0" y="-186" type="line"/>
      <point x="0" y="-295" type="line"/>
    </contour>
  </outline>
</glyph>
<glyph name="LtnSmA" format="2">
  <advance width="910"/>
  <unicode hex="0061"/>
  <anchor x="445" y="0" name="H"/>
  <anchor x="445" y="-100" name="L"/>
  <anchor x="817" y="0" name="O"/>
  <anchor x="910" y="900" name="R"/>
  <anchor x="445" y="1000" name="U"/>
  <outline>
    <contour>
      <point x="909" y="190" type="line"/>
      <point x="835" y="116"/>
      <point x="825" y="109"/>
      <point x="800" y="109" type="curve" smooth="yes"/>
      <point x="775" y="109"/>
      <point x="763" y="122"/>
      <point x="756" y="158" type="curve"/>
      <point x="755" y="177"/>
      <point x="751" y="233"/>
      <point x="751" y="318" type="curve" smooth="yes"/>
      <point x="751" y="630" type="line" smooth="yes"/>
      <point x="751" y="823"/>
      <point x="709" y="942"/>
      <point x="444" y="942" type="curve" smooth="yes"/>
      <point x="268" y="942"/>
      <point x="109" y="857"/>
      <point x="109" y="713" type="curve" smooth="yes"/>
      <point x="109" y="653"/>
      <point x="140" y="617"/>
      <point x="193" y="617" type="curve" smooth="yes"/>
      <point x="244" y="617"/>
      <point x="279" y="654"/>
      <point x="276" y="711" type="curve"/>
      <point x="274" y="771" type="line"/>
      <point x="278" y="834"/>
      <point x="328" y="883"/>
      <point x="412" y="883" type="curve" smooth="yes"/>
      <point x="528" y="883"/>
      <point x="583" y="820"/>
      <point x="583" y="645" type="curve" smooth="yes"/>
      <point x="583" y="607" type="line"/>
      <point x="148" y="458"/>
      <point x="73" y="352"/>
      <point x="73" y="217" type="curve" smooth="yes"/>
      <point x="73" y="75"/>
      <point x="162" y="-17"/>
      <point x="292" y="-17" type="curve" smooth="yes"/>
      <point x="389" y="-17"/>
      <point x="422" y="6"/>
      <point x="583" y="132" type="curve"/>
      <point x="583" y="16"/>
      <point x="631" y="-17"/>
      <point x="690" y="-17" type="curve" smooth="yes"/>
      <point x="761" y="-17"/>
      <point x="834" y="33"/>
      <point x="909" y="132" type="curve"/>
    </contour>
    <contour>
      <point x="583" y="197" type="line"/>
      <point x="499" y="129"/>
      <point x="434" y="93"/>
      <point x="382" y="96" type="curve"/>
      <point x="305" y="99"/>
      <point x="243" y="169"/>
      <point x="243" y="264" type="curve" smooth="yes"/>
      <point x="243" y="352"/>
      <point x="274" y="428"/>
      <point x="583" y="548" type="curve"/>
    </contour>
  </outline>
</glyph>
<glyph name="LtnSmB" format="1">
  <advance width="1025"/>
  <unicode hex="0062"/>
  <outline>
    <contour>
      <point x="954" y="495" type="curve" smooth="yes"/>
      <point x="954" y="775" name="at02"/>
      <point x="790" y="942" name="sh04"/>
      <point x="603" y="942" type="curve" smooth="yes"/>
      <point x="500" y="942" name="at01"/>
      <point x="404" y="881"/>
      <point x="316" y="758" type="curve"/>
      <point x="316" y="1423" type="line"/>
      <point x="269" y="1423" type="line"/>
      <point x="-8" y="1313" type="line" name="sh02"/>
      <point x="6" y="1277" type="line" name="ab01"/>
      <point x="69" y="1297" name="sh01"/>
      <point x="95" y="1298"/>
      <point x="116" y="1279" type="curve" name="sv02"/>
      <point x="140" y="1260" name="sh03"/>
      <point x="148" y="1243"/>
      <point x="148" y="1037" type="curve" smooth="yes" name="sv01"/>
      <point x="148" y="89" type="line" name="ah02"/>
      <point x="267" y="8" name="ah01"/>
      <point x="376" y="-30" name="fh01"/>
      <point x="481" y="-30" type="curve" smooth="yes"/>
      <point x="733" y="-30"/>
      <point x="954" y="193"/>
    </contour>
    <contour>
      <point x="781" y="438" type="curve" smooth="yes"/>
      <point x="781" y="177"/>
      <point x="652" y="45"/>
      <point x="532" y="45" type="curve" smooth="yes"/>
      <point x="455" y="45"/>
      <point x="380" y="81"/>
      <point x="316" y="146" type="curve"/>
      <point x="316" y="696" type="line"/>
      <point x="418" y="790"/>
      <point x="472" y="803"/>
      <point x="523" y="803" type="curve" smooth="yes"/>
      <point x="662" y="803"/>
      <point x="781" y="668"/>
    </contour>
    <contour>
      <point x="540" y="1435" type="move" name="U"/>
    </contour>
    <contour>
      <point x="540" y="-100" type="move" name="L"/>
    </contour>
    <contour>
      <point x="1025" y="900" type="move" name="R"/>
    </contour>
    <contour>
      <point x="540" y="0" type="move" name="H"/>
    </contour>
  </outline>
</glyph>
<glyph name="LtnSmD" format="2">
  <advance width="1025"/>
  <unicode hex="0064"/>
  <anchor x="550" y="0" name="H"/>
  <anchor x="550" y="-100" name="L"/>
  <anchor x="971" y="900" name="R"/>
  <anchor x="547" y="1435" name="U"/>
  <outline>
    <contour>
      <point x="1033" y="85" type="line"/>
      <point x="1021" y="120" type="line"/>
      <point x="992" y="109"/>
      <point x="969" y="103"/>
      <point x="950" y="103" type="curve" smooth="yes"/>
      <point x="934" y="103"/>
      <point x="921" y="107"/>
      <point x="910" y="116" type="curve" smooth="yes"/>
      <point x="882" y="138"/>
      <point x="879" y="167"/>
      <point x="879" y="363" type="curve" smooth="yes"/>
      <point x="879" y="1423" type="line"/>
      <point x="833" y="1423" type="line"/>
      <point x="558" y="1313" type="line"/>
      <point x="572" y="1277" type="line"/>
      <point x="601" y="1287"/>
      <point x="624" y="1294"/>
      <point x="642" y="1294" type="curve" smooth="yes"/>
      <point x="657" y="1294"/>
      <point x="670" y="1289"/>
      <point x="680" y="1279" type="curve" smooth="yes"/>
      <point x="704" y="1255"/>
      <point x="711" y="1240"/>
      <point x="711" y="1037" type="curve" smooth="yes"/>
      <point x="711" y="867" type="line"/>
      <point x="658" y="920"/>
      <point x="592" y="944"/>
      <point x="512" y="944" type="curve" smooth="yes"/>
      <point x="227" y="944"/>
      <point x="67" y="656"/>
      <point x="67" y="420" type="curve" smooth="yes"/>
      <point x="67" y="161"/>
      <point x="241" y="-30"/>
      <point x="444" y="-30" type="curve" smooth="yes"/>
      <point x="551" y="-30"/>
      <point x="630" y="17"/>
      <point x="711" y="102" type="curve"/>
      <point x="711" y="-30" type="line"/>
      <point x="756" y="-30" type="line"/>
    </contour>
    <contour>
      <point x="711" y="173" type="line"/>
      <point x="654" y="113"/>
      <point x="598" y="83"/>
      <point x="534" y="83" type="curve" smooth="yes"/>
      <point x="406" y="83"/>
      <point x="252" y="203"/>
      <point x="252" y="500" type="curve" smooth="yes"/>
      <point x="252" y="736"/>
      <point x="365" y="883"/>
      <point x="500" y="883" type="curve" smooth="yes"/>
      <point x="632" y="883"/>
      <point x="711" y="747"/>
      <point x="711" y="647" type="curve" smooth="yes"/>
    </contour>
  </outline>
</glyph>
<glyph name="LtnSmF" format="1">
  <advance width="682"/>
  <unicode hex="0066"/>
  <outline>
    <contour>
      <point x="891" y="1251" type="curve" smooth="yes"/>
      <point x="891" y="1343" name="at01"/>
      <point x="755" y="1423"/>
      <point x="639" y="1423" type="curve" smooth="yes" name="sh02"/>
      <point x="575" y="1423" name="at03"/>
      <point x="254" y="1393" name="sv07"/>
      <point x="254" y="978" type="curve" smooth="yes" name="sv06"/>
      <point x="254" y="916" type="line" name="dh01"/>
      <point x="75" y="916" type="line"/>
      <point x="75" y="844" type="line"/>
      <point x="254" y="844" type="line" name="sv04"/>
      <point x="254" y="243" type="line" smooth="yes" name="ab01"/>
      <point x="254" y="126"/>
      <point x="245" y="98" name="sv05"/>
      <point x="213" y="69" type="curve" smooth="yes"/>
      <point x="182" y="42"/>
      <point x="154" y="38" name="dh02"/>
      <point x="122" y="38" type="curve" smooth="yes"/>
      <point x="81" y="38" type="line" name="sv03"/>
      <point x="81" y="0" type="line"/>
      <point x="632" y="0" type="line" name="at02"/>
      <point x="632" y="38" type="line" name="sh01"/>
      <point x="550" y="38" type="line" smooth="yes" name="sv02"/>
      <point x="506" y="38" name="sv01"/>
      <point x="473" y="52"/>
      <point x="451" y="81" type="curve"/>
      <point x="428" y="102"/>
      <point x="422" y="158"/>
      <point x="422" y="243" type="curve" smooth="yes"/>
      <point x="422" y="844" type="line"/>
      <point x="658" y="844" type="line"/>
      <point x="658" y="916" type="line"/>
      <point x="422" y="916" type="line"/>
      <point x="422" y="982" type="line" smooth="yes"/>
      <point x="422" y="1240"/>
      <point x="432" y="1348"/>
      <point x="560" y="1348" type="curve" smooth="yes"/>
      <point x="699" y="1348"/>
      <point x="707" y="1164"/>
      <point x="810" y="1168" type="curve"/>
      <point x="856" y="1168"/>
      <point x="891" y="1216"/>
    </contour>
    <contour>
      <point x="338" y="0" type="move" name="H"/>
    </contour>
    <contour>
      <point x="338" y="-100" type="move" name="L"/>
    </contour>
    <contour>
      <point x="570" y="1375" type="move" name="U"/>
    </contour>
  </outline>
</glyph>
<glyph name="LtnSmG" format="1">
  <advance width="1025"/>
  <unicode hex="0067"/>
  <outline>
    <contour>
      <point x="987" y="835" type="curve" smooth="yes"/>
      <point x="987" y="860"/>
      <point x="983" y="873"/>
      <point x="974" y="875" type="curve" smooth="yes"/>
      <point x="965" y="877"/>
      <point x="956" y="878"/>
      <point x="947" y="878" type="curve" smooth="yes"/>
      <point x="922" y="878"/>
      <point x="895" y="873"/>
      <point x="833" y="873" type="curve" smooth="yes"/>
      <point x="707" y="873"/>
      <point x="658" y="942"/>
      <point x="500" y="942" type="curve" smooth="yes"/>
      <point x="272" y="942"/>
      <point x="136" y="784"/>
      <point x="136" y="613" type="curve" smooth="yes"/>
      <point x="136" y="502"/>
      <point x="193" y="386"/>
      <point x="310" y="335" type="curve"/>
      <point x="171" y="217"/>
      <point x="150" y="165"/>
      <point x="150" y="118" type="curve" smooth="yes"/>
      <point x="150" y="71"/>
      <point x="183" y="47"/>
      <point x="244" y="8" type="curve"/>
      <point x="100" y="-136"/>
      <point x="61" y="-198"/>
      <point x="61" y="-252" type="curve" smooth="yes"/>
      <point x="61" y="-345"/>
      <point x="260" y="-444"/>
      <point x="463" y="-444" type="curve" smooth="yes"/>
      <point x="755" y="-444"/>
      <point x="976" y="-269"/>
      <point x="976" y="-85" type="curve" smooth="yes"/>
      <point x="976" y="127"/>
      <point x="728" y="132"/>
      <point x="656" y="132" type="curve"/>
      <point x="361" y="140"/>
      <point x="323" y="143"/>
      <point x="299" y="167" type="curve"/>
      <point x="258" y="205"/>
      <point x="305" y="275"/>
      <point x="359" y="316" type="curve"/>
      <point x="406" y="301"/>
      <point x="452" y="295"/>
      <point x="499" y="295" type="curve" smooth="yes"/>
      <point x="727" y="295"/>
      <point x="862" y="438"/>
      <point x="859" y="605" type="curve"/>
      <point x="859" y="681"/>
      <point x="840" y="741"/>
      <point x="805" y="788" type="curve"/>
      <point x="922" y="788" type="line"/>
      <point x="931" y="787"/>
      <point x="939" y="787"/>
      <point x="946" y="788" type="curve" smooth="yes"/>
      <point x="959" y="789"/>
      <point x="971" y="791"/>
      <point x="978" y="796" type="curve"/>
      <point x="985" y="805"/>
      <point x="987" y="828"/>
    </contour>
    <contour>
      <point x="682" y="579" type="curve" smooth="yes"/>
      <point x="682" y="415"/>
      <point x="607" y="345"/>
      <point x="510" y="345" type="curve" smooth="yes"/>
      <point x="383" y="345"/>
      <point x="310" y="475"/>
      <point x="310" y="656" type="curve" smooth="yes"/>
      <point x="310" y="824"/>
      <point x="387" y="895"/>
      <point x="483" y="895" type="curve" smooth="yes"/>
      <point x="607" y="895"/>
      <point x="682" y="767"/>
    </contour>
    <contour>
      <point x="903" y="-122" type="curve" smooth="yes"/>
      <point x="903" y="-218"/>
      <point x="790" y="-321"/>
      <point x="551" y="-321" type="curve" smooth="yes"/>
      <point x="346" y="-321"/>
      <point x="205" y="-259"/>
      <point x="205" y="-175" type="curve" smooth="yes"/>
      <point x="205" y="-114"/>
      <point x="242" y="-67"/>
      <point x="299" y="0" type="curve"/>
      <point x="380" y="-12"/>
      <point x="496" y="-15"/>
      <point x="647" y="-22" type="curve"/>
      <point x="857" y="-33"/>
      <point x="903" y="-57"/>
    </contour>
    <contour>
      <point x="520" y="-432" type="move" name="H"/>
    </contour>
    <contour>
      <point x="524" y="-500" type="move" name="L"/>
    </contour>
    <contour>
      <point x="1025" y="900" type="move" name="R"/>
    </contour>
    <contour>
      <point x="510" y="1000" type="move" name="U"/>
    </contour>
  </outline>
</glyph>
<glyph name="LtnSmH" format="2">
  <advance width="1025"/>
  <unicode hex="0068"/>
  <anchor x="251" y="0" name="H"/>
  <anchor x="513" y="-100" name="L"/>
  <anchor x="513" y="1435" name="U"/>
  <outline>
    <contour>
      <point x="1015" y="0" type="line"/>
      <point x="1015" y="38" type="line"/>
      <point x="893" y="38"/>
      <point x="877" y="71"/>
      <point x="877" y="188" type="curve" smooth="yes"/>
      <point x="877" y="530" type="line" smooth="yes"/>
      <point x="877" y="709"/>
      <point x="871" y="942"/>
      <point x="639" y="942" type="curve" smooth="yes"/>
      <point x="543" y="942"/>
      <point x="442" y="913"/>
      <point x="335" y="753" type="curve"/>
      <point x="335" y="1423" type="line"/>
      <point x="288" y="1423" type="line"/>
      <point x="12" y="1313" type="line"/>
      <point x="28" y="1277" type="line"/>
      <point x="57" y="1289"/>
      <point x="83" y="1293"/>
      <point x="100" y="1293" type="curve" smooth="yes"/>
      <point x="155" y="1293"/>
      <point x="167" y="1251"/>
      <point x="167" y="1155" type="curve" smooth="yes"/>
      <point x="167" y="188" type="line" smooth="yes"/>
      <point x="167" y="77"/>
      <point x="148" y="38"/>
      <point x="28" y="38" type="curve"/>
      <point x="28" y="0" type="line"/>
      <point x="481" y="0" type="line"/>
      <point x="481" y="38" type="line"/>
      <point x="350" y="38"/>
      <point x="335" y="64"/>
      <point x="335" y="188" type="curve" smooth="yes"/>
      <point x="335" y="690" type="line"/>
      <point x="434" y="805"/>
      <point x="501" y="822"/>
      <point x="562" y="822" type="curve" smooth="yes"/>
      <point x="703" y="822"/>
      <point x="709" y="699"/>
      <point x="709" y="530" type="curve" smooth="yes"/>
      <point x="709" y="188" type="line" smooth="yes"/>
      <point x="709" y="64"/>
      <point x="678" y="38"/>
      <point x="562" y="38" type="curve"/>
      <point x="562" y="0" type="line"/>
    </contour>
  </outline>
</glyph>
<glyph name="LtnSmI" format="2">
  <advance width="570"/>
  <unicode hex="0069"/>
  <anchor x="294" y="0" name="H"/>
  <anchor x="300" y="-100" name="L"/>
  <anchor x="444" y="0" name="O"/>
  <anchor x="570" y="900" name="R"/>
  <anchor x="294" y="1000" name="U"/>
  <outline>
    <contour>
      <point x="402" y="1228" type="curve" smooth="yes"/>
      <point x="402" y="1283"/>
      <point x="357" y="1328"/>
      <point x="301" y="1328" type="curve" smooth="yes"/>
      <point x="245" y="1328"/>
      <point x="199" y="1287"/>
      <point x="199" y="1228" type="curve" smooth="yes"/>
      <point x="199" y="1168"/>
      <point x="242" y="1125"/>
      <point x="301" y="1125" type="curve" smooth="yes"/>
      <point x="360" y="1125"/>
      <point x="402" y="1171"/>
    </contour>
    <contour>
      <point x="525" y="0" type="line"/>
      <point x="525" y="38" type="line"/>
      <point x="410" y="38"/>
      <point x="384" y="64"/>
      <point x="384" y="188" type="curve" smooth="yes"/>
      <point x="384" y="942" type="line"/>
      <point x="341" y="942" type="line"/>
      <point x="64" y="832" type="line"/>
      <point x="77" y="796" type="line"/>
      <point x="108" y="807"/>
      <point x="129" y="812"/>
      <point x="148" y="812" type="curve" smooth="yes"/>
      <point x="201" y="812"/>
      <point x="217" y="766"/>
      <point x="217" y="678" type="curve" smooth="yes"/>
      <point x="217" y="188" type="line" smooth="yes"/>
      <point x="217" y="64"/>
      <point x="193" y="38"/>
      <point x="77" y="38" type="curve"/>
      <point x="77" y="0" type="line"/>
    </contour>
  </outline>
</glyph>
<glyph name="LtnSmJ" format="1">
  <advance width="570"/>
  <unicode hex="006A"/>
  <outline>
    <contour>
      <point x="400" y="1228" type="curve" smooth="yes"/>
      <point x="400" y="1284" name="dv01"/>
      <point x="348" y="1330" name="ih01"/>
      <point x="297" y="1330" type="curve" smooth="yes" name="dv02"/>
      <point x="244" y="1330" name="sh03"/>
      <point x="195" y="1284"/>
      <point x="195" y="1228" type="curve" smooth="yes" name="at01"/>
      <point x="195" y="1168"/>
      <point x="238" y="1125"/>
      <point x="297" y="1125" type="curve" smooth="yes"/>
      <point x="357" y="1125" name="sh01"/>
      <point x="400" y="1173"/>
    </contour>
    <contour>
      <point x="384" y="942" type="line"/>
      <point x="341" y="942" type="line"/>
      <point x="64" y="832" type="line"/>
      <point x="75" y="796" type="line" name="ab01"/>
      <point x="132" y="816" name="sh02"/>
      <point x="161" y="818" name="ah01"/>
      <point x="188" y="798" type="curve" smooth="yes" name="sh04"/>
      <point x="209" y="782"/>
      <point x="217" y="730"/>
      <point x="217" y="558" type="curve" smooth="yes"/>
      <point x="217" y="-94" type="line" smooth="yes"/>
      <point x="217" y="-218"/>
      <point x="220" y="-363"/>
      <point x="124" y="-363" type="curve" smooth="yes"/>
      <point x="101" y="-363"/>
      <point x="74" y="-349"/>
      <point x="43" y="-320" type="curve"/>
      <point x="0" y="-276"/>
      <point x="-28" y="-256"/>
      <point x="-75" y="-256" type="curve" smooth="yes"/>
      <point x="-120" y="-256"/>
      <point x="-158" y="-294"/>
      <point x="-158" y="-343" type="curve"/>
      <point x="-155" y="-384"/>
      <point x="-106" y="-444"/>
      <point x="22" y="-444" type="curve" smooth="yes"/>
      <point x="231" y="-444"/>
      <point x="384" y="-297"/>
      <point x="384" y="19" type="curve" smooth="yes"/>
    </contour>
    <contour>
      <point x="121" y="-500" type="move" name="L"/>
    </contour>
    <contour>
      <point x="300" y="1000" type="move" name="U"/>
    </contour>
  </outline>
</glyph>
<glyph name="LtnSmK" format="2">
  <advance width="1025"/>
  <unicode hex="006B"/>
  <anchor x="250" y="0" name="H"/>
  <anchor x="525" y="-100" name="L"/>
  <anchor x="1025" y="900" name="R"/>
  <anchor x="525" y="1435" name="U"/>
  <outline>
    <contour>
      <point x="1037" y="0" type="line"/>
      <point x="1037" y="38" type="line"/>
      <point x="933" y="38"/>
      <point x="895" y="60"/>
      <point x="782" y="201" type="curve" smooth="yes"/>
      <point x="493" y="562" type="line"/>
      <point x="733" y="777" type="line" smooth="yes"/>
      <point x="779" y="819"/>
      <point x="818" y="844"/>
      <point x="854" y="859" type="curve" smooth="yes"/>
      <point x="889" y="874"/>
      <point x="934" y="883"/>
      <point x="989" y="885" type="curve"/>
      <point x="989" y="916" type="line"/>
      <point x="591" y="916" type="line"/>
      <point x="591" y="885" type="line"/>
      <point x="643" y="881"/>
      <point x="662" y="861"/>
      <point x="662" y="833" type="curve" smooth="yes"/>
      <point x="662" y="813"/>
      <point x="654" y="797"/>
      <point x="568" y="724" type="curve" smooth="yes"/>
      <point x="337" y="528" type="line"/>
      <point x="337" y="1423" type="line"/>
      <point x="290" y="1423" type="line"/>
      <point x="13" y="1313" type="line"/>
      <point x="34" y="1277" type="line"/>
      <point x="62" y="1289"/>
      <point x="83" y="1293"/>
      <point x="98" y="1293" type="curve" smooth="yes"/>
      <point x="118" y="1293"/>
      <point x="129" y="1286"/>
      <point x="138" y="1279" type="curve" smooth="yes"/>
      <point x="162" y="1260"/>
      <point x="166" y="1245"/>
      <point x="166" y="1035" type="curve" smooth="yes"/>
      <point x="166" y="201" type="line" smooth="yes"/>
      <point x="166" y="128"/>
      <point x="159" y="87"/>
      <point x="140" y="67" type="curve" smooth="yes"/>
      <point x="117" y="43"/>
      <point x="77" y="38"/>
      <point x="13" y="38" type="curve"/>
      <point x="13" y="0" type="line"/>
      <point x="483" y="0" type="line"/>
      <point x="483" y="38" type="line"/>
      <point x="397" y="38"/>
      <point x="384" y="45"/>
      <point x="359" y="71" type="curve" smooth="yes"/>
      <point x="340" y="91"/>
      <point x="337" y="121"/>
      <point x="337" y="207" type="curve" smooth="yes"/>
      <point x="337" y="506" type="line"/>
      <point x="617" y="152" type="line" smooth="yes"/>
      <point x="647" y="114"/>
      <point x="656" y="95"/>
      <point x="656" y="77" type="curve" smooth="yes"/>
      <point x="656" y="72"/>
      <point x="655" y="66"/>
      <point x="653" y="61" type="curve" smooth="yes"/>
      <point x="646" y="42"/>
      <point x="630" y="38"/>
      <point x="591" y="38" type="curve"/>
      <point x="591" y="0" type="line"/>
    </contour>
  </outline>
</glyph>
<glyph name="LtnSmL" format="1">
  <advance width="570"/>
  <unicode hex="006C"/>
  <outline>
    <contour>
      <point x="526" y="0" type="line"/>
      <point x="526" y="38" type="line" name="sh04"/>
      <point x="448" y="38"/>
      <point x="423" y="49" name="sh03"/>
      <point x="404" y="73" type="curve" smooth="yes"/>
      <point x="386" y="97" name="at01"/>
      <point x="378" y="126" name="mh01"/>
      <point x="378" y="207" type="curve" smooth="yes"/>
      <point x="378" y="1423" type="line"/>
      <point x="335" y="1423" type="line"/>
      <point x="59" y="1313" type="line"/>
      <point x="77" y="1277" type="line" name="sh01"/>
      <point x="105" y="1288"/>
      <point x="126" y="1292" name="sh02"/>
      <point x="142" y="1292" type="curve" smooth="yes" name="ab01"/>
      <point x="158" y="1292" name="ah01"/>
      <point x="171" y="1287" name="ah02"/>
      <point x="183" y="1279" type="curve"/>
      <point x="203" y="1261"/>
      <point x="211" y="1246"/>
      <point x="211" y="1038" type="curve" smooth="yes"/>
      <point x="211" y="207" type="line" smooth="yes"/>
      <point x="211" y="122"/>
      <point x="199" y="90"/>
      <point x="183" y="69" type="curve" smooth="yes"/>
      <point x="162" y="41"/>
      <point x="138" y="38"/>
      <point x="77" y="38" type="curve"/>
      <point x="77" y="0" type="line"/>
    </contour>
    <contour>
      <point x="293" y="0" type="move" name="H"/>
    </contour>
    <contour>
      <point x="292" y="-100" type="move" name="L"/>
    </contour>
    <contour>
      <point x="470" y="900" type="move" name="R"/>
    </contour>
    <contour>
      <point x="292" y="1475" type="move" name="U"/>
    </contour>
  </outline>
</glyph>
<glyph name="LtnSmM" format="1">
  <advance width="1595"/>
  <unicode hex="006D"/>
  <outline>
    <contour>
      <point x="1587" y="0" type="line" name="ab02"/>
      <point x="1587" y="38" type="line" name="sh14"/>
      <point x="1476" y="38" name="sh07"/>
      <point x="1448" y="67"/>
      <point x="1448" y="207" type="curve" smooth="yes" name="at03"/>
      <point x="1448" y="603" type="line" smooth="yes" name="iv03"/>
      <point x="1448" y="851" name="at02"/>
      <point x="1354" y="942" name="sh13"/>
      <point x="1206" y="942" type="curve" smooth="yes"/>
      <point x="1104" y="942" name="at01"/>
      <point x="1020" y="905"/>
      <point x="885" y="749" type="curve" name="sh12"/>
      <point x="856" y="882"/>
      <point x="761" y="942" name="sh01"/>
      <point x="653" y="942" type="curve" smooth="yes" name="sh11"/>
      <point x="561" y="942" name="ab01"/>
      <point x="485" y="909"/>
      <point x="335" y="749" type="curve" name="sh10"/>
      <point x="335" y="942" type="line" name="sh02"/>
      <point x="292" y="942" type="line"/>
      <point x="13" y="832" type="line" name="ih02"/>
      <point x="30" y="796" type="line" name="iv02"/>
      <point x="179" y="849" name="sh03"/>
      <point x="167" y="762" name="sh09"/>
      <point x="167" y="558" type="curve" smooth="yes"/>
      <point x="167" y="207" type="line" smooth="yes" name="ab04"/>
      <point x="167" y="64" name="sh08"/>
      <point x="146" y="38" name="sh04"/>
      <point x="30" y="38" type="curve"/>
      <point x="30" y="0" type="line" name="ih01"/>
      <point x="483" y="0" type="line" name="iv01"/>
      <point x="483" y="38" type="line" name="sh05"/>
      <point x="365" y="38" name="sh06"/>
      <point x="335" y="53" name="ab03"/>
      <point x="335" y="207" type="curve" smooth="yes" name="ah01"/>
      <point x="335" y="700" type="line" name="sh15"/>
      <point x="391" y="759"/>
      <point x="474" y="826"/>
      <point x="570" y="826" type="curve" smooth="yes"/>
      <point x="666" y="826"/>
      <point x="726" y="766"/>
      <point x="726" y="603" type="curve" smooth="yes"/>
      <point x="726" y="207" type="line" smooth="yes"/>
      <point x="726" y="91"/>
      <point x="732" y="38"/>
      <point x="576" y="38" type="curve"/>
      <point x="576" y="0" type="line"/>
      <point x="1040" y="0" type="line"/>
      <point x="1040" y="38" type="line"/>
      <point x="901" y="38"/>
      <point x="893" y="76"/>
      <point x="893" y="207" type="curve" smooth="yes"/>
      <point x="893" y="700" type="line"/>
      <point x="991" y="798"/>
      <point x="1069" y="824"/>
      <point x="1130" y="824" type="curve" smooth="yes"/>
      <point x="1232" y="824"/>
      <point x="1281" y="767"/>
      <point x="1281" y="603" type="curve" smooth="yes"/>
      <point x="1281" y="207" type="line" smooth="yes"/>
      <point x="1281" y="83"/>
      <point x="1277" y="38"/>
      <point x="1134" y="38" type="curve"/>
      <point x="1134" y="0" type="line"/>
    </contour>
    <contour>
      <point x="1365" y="0" type="move" name="H"/>
    </contour>
    <contour>
      <point x="800" y="-100" type="move" name="L"/>
    </contour>
    <contour>
      <point x="800" y="1000" type="move" name="U"/>
    </contour>
  </outline>
</glyph>
<glyph name="LtnSmN" format="2">
  <advance width="1025"/>
  <unicode hex="006E"/>
  <anchor x="790" y="0" name="H"/>
  <anchor x="515" y="-100" name="L"/>
  <anchor x="515" y="1000" name="U"/>
  <outline>
    <contour>
      <point x="1021" y="0" type="line"/>
      <point x="1021" y="38" type="line"/>
      <point x="898" y="38"/>
      <point x="879" y="71"/>
      <point x="879" y="207" type="curve" smooth="yes"/>
      <point x="879" y="600" type="line" smooth="yes"/>
      <point x="879" y="805"/>
      <point x="818" y="942"/>
      <point x="639" y="942" type="curve" smooth="yes"/>
      <point x="542" y="942"/>
      <point x="440" y="878"/>
      <point x="331" y="751" type="curve"/>
      <point x="331" y="942" type="line"/>
      <point x="290" y="942" type="line"/>
      <point x="10" y="832" type="line"/>
      <point x="26" y="796" type="line"/>
      <point x="51" y="807"/>
      <point x="73" y="812"/>
      <point x="91" y="812" type="curve" smooth="yes"/>
      <point x="108" y="812"/>
      <point x="123" y="807"/>
      <point x="134" y="798" type="curve" smooth="yes"/>
      <point x="154" y="782"/>
      <point x="164" y="756"/>
      <point x="164" y="548" type="curve" smooth="yes"/>
      <point x="164" y="207" type="line" smooth="yes"/>
      <point x="164" y="67"/>
      <point x="141" y="38"/>
      <point x="26" y="38" type="curve"/>
      <point x="26" y="0" type="line"/>
      <point x="481" y="0" type="line"/>
      <point x="481" y="38" type="line"/>
      <point x="348" y="38"/>
      <point x="331" y="64"/>
      <point x="331" y="207" type="curve" smooth="yes"/>
      <point x="331" y="690" type="line"/>
      <point x="411" y="778"/>
      <point x="491" y="820"/>
      <point x="568" y="820" type="curve" smooth="yes"/>
      <point x="676" y="820"/>
      <point x="711" y="747"/>
      <point x="711" y="581" type="curve" smooth="yes"/>
      <point x="711" y="207" type="line" smooth="yes"/>
      <point x="711" y="66"/>
      <point x="698" y="38"/>
      <point x="562" y="38" type="curve"/>
      <point x="562" y="0" type="line"/>
    </contour>
  </outline>
</glyph>
<glyph name="LtnSmO" format="2">
  <advance width="1025"/>
  <unicode hex="006F"/>
  <anchor x="511" y="0" name="H"/>
  <anchor x="511" y="-100" name="L"/>
  <anchor x="717" y="0" name="O"/>
  <anchor x="1025" y="900" name="R"/>
  <anchor x="511" y="1000" name="U"/>
  <outline>
    <contour>
      <point x="954" y="475" type="curve" smooth="yes"/>
      <point x="954" y="737"/>
      <point x="775" y="942"/>
      <point x="512" y="942" type="curve" smooth="yes"/>
      <point x="237" y="942"/>
      <point x="69" y="696"/>
      <point x="69" y="449" type="curve" smooth="yes"/>
      <point x="69" y="195"/>
      <point x="246" y="-30"/>
      <point x="502" y="-30" type="curve" smooth="yes"/>
      <point x="803" y="-30"/>
      <point x="954" y="239"/>
    </contour>
    <contour>
      <point x="767" y="398" type="curve" smooth="yes"/>
      <point x="767" y="136"/>
      <point x="676" y="43"/>
      <point x="544" y="43" type="curve" smooth="yes"/>
      <point x="368" y="43"/>
      <point x="254" y="270"/>
      <point x="254" y="532" type="curve" smooth="yes"/>
      <point x="254" y="798"/>
      <point x="376" y="879"/>
      <point x="481" y="879" type="curve" smooth="yes"/>
      <point x="657" y="879"/>
      <point x="767" y="670"/>
    </contour>
  </outline>
</glyph>
<glyph name="LtnSmP" format="2">
  <advance width="1025"/>
  <unicode hex="0070"/>
  <anchor x="230" y="-435" name="H"/>
  <anchor x="472" y="-500" name="L"/>
  <anchor x="1025" y="900" name="R"/>
  <anchor x="472" y="1000" name="U"/>
  <outline>
    <contour>
      <point x="956" y="493" type="curve" smooth="yes"/>
      <point x="956" y="746" name="at01"/>
      <point x="816" y="942" name="sh04"/>
      <point x="613" y="942" type="curve" smooth="yes" name="at02"/>
      <point x="502" y="942"/>
      <point x="412" y="887"/>
      <point x="318" y="726" type="curve"/>
      <point x="318" y="940" type="line"/>
      <point x="280" y="940" type="line" name="sh01"/>
      <point x="-6" y="826" type="line" name="iv02"/>
      <point x="6" y="792" type="line" name="sv01"/>
      <point x="65" y="816" name="ab01"/>
      <point x="94" y="811"/>
      <point x="115" y="796" type="curve" smooth="yes" name="sv02"/>
      <point x="148" y="771" name="sh03"/>
      <point x="148" y="749" name="iv01"/>
      <point x="148" y="647" type="curve" smooth="yes" name="ab02"/>
      <point x="148" y="-220" type="line" smooth="yes" name="dh02"/>
      <point x="148" y="-373"/>
      <point x="137" y="-397" name="sv04"/>
      <point x="-12" y="-402" type="curve"/>
      <point x="-12" y="-440" type="line"/>
      <point x="474" y="-440" type="line" name="sh02"/>
      <point x="474" y="-402" type="line" name="sv03"/>
      <point x="326" y="-397" name="dh01"/>
      <point x="318" y="-369" name="ah01"/>
      <point x="318" y="-224" type="curve" smooth="yes"/>
      <point x="318" y="53" type="line"/>
      <point x="403" y="-24"/>
      <point x="477" y="-30"/>
      <point x="536" y="-30" type="curve" smooth="yes"/>
      <point x="786" y="-30"/>
      <point x="956" y="205"/>
    </contour>
    <contour>
      <point x="796" y="398" type="curve" smooth="yes"/>
      <point x="796" y="171"/>
      <point x="688" y="32"/>
      <point x="532" y="32" type="curve" smooth="yes"/>
      <point x="414" y="32"/>
      <point x="346" y="108"/>
      <point x="327" y="177" type="curve"/>
      <point x="321" y="203"/>
      <point x="318" y="252"/>
      <point x="318" y="323" type="curve" smooth="yes"/>
      <point x="318" y="666" type="line"/>
      <point x="400" y="756"/>
      <point x="453" y="820"/>
      <point x="532" y="820" type="curve" smooth="yes"/>
      <point x="676" y="820"/>
      <point x="796" y="694"/>
    </contour>
  </outline>
</glyph>
<glyph name="LtnSmQ" format="2">
  <advance width="1025"/>
  <unicode hex="0071"/>
  <anchor x="358" y="-100" name="L"/>
  <anchor x="1025" y="900" name="R"/>
  <anchor x="548" y="1000" name="U"/>
  <outline>
    <contour>
      <point x="1029" y="-440" type="line"/>
      <point x="1029" y="-402" type="line"/>
      <point x="905" y="-402"/>
      <point x="879" y="-377"/>
      <point x="879" y="-237" type="curve" smooth="yes"/>
      <point x="879" y="942" type="line"/>
      <point x="844" y="942" type="line"/>
      <point x="809" y="918"/>
      <point x="769" y="899"/>
      <point x="729" y="879" type="curve"/>
      <point x="682" y="927"/>
      <point x="616" y="942"/>
      <point x="540" y="942" type="curve" smooth="yes"/>
      <point x="272" y="942"/>
      <point x="67" y="724"/>
      <point x="67" y="418" type="curve" smooth="yes"/>
      <point x="67" y="134"/>
      <point x="243" y="-30"/>
      <point x="410" y="-30" type="curve" smooth="yes"/>
      <point x="511" y="-30"/>
      <point x="594" y="17"/>
      <point x="711" y="160" type="curve"/>
      <point x="711" y="-237" type="line" smooth="yes"/>
      <point x="711" y="-388"/>
      <point x="678" y="-402"/>
      <point x="562" y="-402" type="curve"/>
      <point x="562" y="-440" type="line"/>
    </contour>
    <contour>
      <point x="711" y="220" type="line"/>
      <point x="650" y="151"/>
      <point x="600" y="113"/>
      <point x="515" y="113" type="curve" smooth="yes"/>
      <point x="367" y="113"/>
      <point x="237" y="238"/>
      <point x="237" y="491" type="curve" smooth="yes"/>
      <point x="237" y="749"/>
      <point x="360" y="873"/>
      <point x="508" y="873" type="curve" smooth="yes"/>
      <point x="645" y="873"/>
      <point x="711" y="784"/>
      <point x="711" y="653" type="curve" smooth="yes"/>
    </contour>
  </outline>
</glyph>
<glyph name="LtnSmR" format="2">
  <advance width="702"/>
  <unicode hex="0072"/>
  <anchor x="256" y="0" name="H"/>
  <anchor x="353" y="-100" name="L"/>
  <anchor x="353" y="1000" name="U"/>
  <outline>
    <contour>
      <point x="698" y="832" type="curve" smooth="yes"/>
      <point x="698" y="897"/>
      <point x="641" y="942"/>
      <point x="568" y="942" type="curve" smooth="yes"/>
      <point x="486" y="942"/>
      <point x="407" y="874"/>
      <point x="331" y="737" type="curve"/>
      <point x="331" y="942" type="line"/>
      <point x="292" y="942" type="line"/>
      <point x="8" y="832" type="line"/>
      <point x="17" y="796" type="line"/>
      <point x="73" y="820"/>
      <point x="105" y="814"/>
      <point x="134" y="798" type="curve"/>
      <point x="156" y="773"/>
      <point x="164" y="755"/>
      <point x="164" y="562" type="curve" smooth="yes"/>
      <point x="164" y="207" type="line" smooth="yes"/>
      <point x="164" y="51"/>
      <point x="132" y="38"/>
      <point x="17" y="38" type="curve"/>
      <point x="17" y="0" type="line"/>
      <point x="493" y="0" type="line"/>
      <point x="493" y="38" type="line"/>
      <point x="362" y="38"/>
      <point x="331" y="97"/>
      <point x="331" y="213" type="curve" smooth="yes"/>
      <point x="331" y="654" type="line"/>
      <point x="382" y="751"/>
      <point x="432" y="810"/>
      <point x="465" y="810" type="curve" smooth="yes"/>
      <point x="508" y="810"/>
      <point x="540" y="739"/>
      <point x="607" y="739" type="curve" smooth="yes"/>
      <point x="658" y="739"/>
      <point x="698" y="784"/>
    </contour>
  </outline>
</glyph>
<glyph name="LtnSmS" format="1">
  <advance width="798"/>
  <unicode hex="0073"/>
  <outline>
    <contour>
      <point x="726" y="231" type="curve" smooth="yes"/>
      <point x="726" y="347"/>
      <point x="654" y="440"/>
      <point x="515" y="504" type="curve"/>
      <point x="367" y="574" type="line"/>
      <point x="240" y="632"/>
      <point x="214" y="691"/>
      <point x="217" y="765" type="curve"/>
      <point x="218" y="836"/>
      <point x="272" y="885"/>
      <point x="395" y="885" type="curve" smooth="yes"/>
      <point x="510" y="885"/>
      <point x="595" y="827"/>
      <point x="643" y="630" type="curve"/>
      <point x="676" y="630" type="line"/>
      <point x="676" y="942" type="line"/>
      <point x="643" y="942" type="line"/>
      <point x="627" y="910"/>
      <point x="617" y="907"/>
      <point x="598" y="907" type="curve" smooth="yes"/>
      <point x="566" y="907"/>
      <point x="480" y="942"/>
      <point x="398" y="942" type="curve" smooth="yes"/>
      <point x="206" y="942"/>
      <point x="100" y="834"/>
      <point x="100" y="698" type="curve" smooth="yes"/>
      <point x="100" y="584"/>
      <point x="151" y="513"/>
      <point x="345" y="412" type="curve"/>
      <point x="543" y="311"/>
      <point x="580" y="257"/>
      <point x="577" y="167" type="curve"/>
      <point x="577" y="95"/>
      <point x="518" y="32"/>
      <point x="420" y="32" type="curve" smooth="yes"/>
      <point x="290" y="32"/>
      <point x="172" y="128"/>
      <point x="138" y="314" type="curve"/>
      <point x="105" y="314" type="line"/>
      <point x="105" y="-13" type="line"/>
      <point x="138" y="-13" type="line"/>
      <point x="146" y="4"/>
      <point x="158" y="32"/>
      <point x="173" y="32" type="curve"/>
      <point x="234" y="24"/>
      <point x="322" y="-30"/>
      <point x="420" y="-30" type="curve" smooth="yes"/>
      <point x="583" y="-30"/>
      <point x="726" y="91"/>
    </contour>
    <contour>
      <point x="413" y="0" type="move" name="H"/>
    </contour>
    <contour>
      <point x="413" y="-100" type="move" name="L"/>
    </contour>
    <contour>
      <point x="413" y="1000" type="move" name="U"/>
    </contour>
  </outline>
</glyph>
<glyph name="LtnSmT" format="2">
  <advance width="570"/>
  <unicode hex="0074"/>
  <anchor x="293" y="0" name="H"/>
  <anchor x="293" y="-100" name="L"/>
  <anchor x="570" y="900" name="R"/>
  <anchor x="285" y="1298" name="U"/>
  <outline>
    <contour>
      <point x="532" y="167" type="line"/>
      <point x="508" y="115"/>
      <point x="469" y="82"/>
      <point x="420" y="85" type="curve" smooth="yes" name="sh02"/>
      <point x="369" y="88"/>
      <point x="329" y="117" name="at01"/>
      <point x="329" y="237" type="curve" smooth="yes" name="sh03"/>
      <point x="329" y="848" type="line" name="av01"/>
      <point x="544" y="848" type="line"/>
      <point x="544" y="916" type="line"/>
      <point x="329" y="916" type="line" name="sv02"/>
      <point x="329" y="1218" type="line" name="sv01"/>
      <point x="299" y="1218" type="line" name="sh01"/>
      <point x="243" y="1086"/>
      <point x="222" y="1059" name="ab01"/>
      <point x="186" y="1015" type="curve" smooth="yes" name="iv01"/>
      <point x="134" y="954" name="ah01"/>
      <point x="70" y="899" name="sh04"/>
      <point x="15" y="879" type="curve"/>
      <point x="15" y="848" type="line"/>
      <point x="162" y="848" type="line"/>
      <point x="162" y="213" type="line" smooth="yes"/>
      <point x="162" y="8"/>
      <point x="256" y="-30"/>
      <point x="343" y="-30" type="curve" smooth="yes"/>
      <point x="422" y="-30"/>
      <point x="530" y="32"/>
      <point x="572" y="167" type="curve"/>
    </contour>
  </outline>
</glyph>
<glyph name="LtnSmU" format="2">
  <advance width="1025"/>
  <unicode hex="0075"/>
  <anchor x="475" y="0" name="H"/>
  <anchor x="513" y="-100" name="L"/>
  <anchor x="877" y="0" name="O"/>
  <anchor x="995" y="900" name="R"/>
  <anchor x="513" y="1000" name="U"/>
  <outline>
    <contour>
      <point x="1027" y="85" type="line"/>
      <point x="1013" y="120" type="line"/>
      <point x="984" y="109"/>
      <point x="952" y="105"/>
      <point x="933" y="105" type="curve" smooth="yes" name="sh05"/>
      <point x="889" y="105"/>
      <point x="871" y="134"/>
      <point x="871" y="243" type="curve" smooth="yes" name="sh03"/>
      <point x="871" y="916" type="line"/>
      <point x="556" y="916" type="line" name="sv01"/>
      <point x="556" y="879" type="line"/>
      <point x="660" y="876" name="sh02"/>
      <point x="704" y="856"/>
      <point x="704" y="745" type="curve" smooth="yes"/>
      <point x="704" y="224" type="line" name="sh01"/>
      <point x="600" y="123"/>
      <point x="528" y="94" name="ab01"/>
      <point x="475" y="94" type="curve" smooth="yes" name="sh04"/>
      <point x="343" y="94" name="ab02"/>
      <point x="323" y="199"/>
      <point x="323" y="303" type="curve" smooth="yes" name="ah01"/>
      <point x="323" y="916" type="line" name="sh06"/>
      <point x="0" y="916" type="line"/>
      <point x="0" y="879" type="line"/>
      <point x="116" y="879"/>
      <point x="156" y="857"/>
      <point x="156" y="737" type="curve" smooth="yes"/>
      <point x="156" y="327" type="line" smooth="yes"/>
      <point x="156" y="181"/>
      <point x="179" y="-30"/>
      <point x="393" y="-30" type="curve" smooth="yes"/>
      <point x="481" y="-30"/>
      <point x="550" y="4"/>
      <point x="704" y="166" type="curve"/>
      <point x="704" y="-30" type="line"/>
      <point x="749" y="-30" type="line"/>
    </contour>
  </outline>
</glyph>
<glyph name="LtnSmV" format="2">
  <advance width="1025"/>
  <unicode hex="0076"/>
  <anchor x="525" y="0" name="H"/>
  <anchor x="511" y="-100" name="L"/>
  <anchor x="620" y="0" name="O"/>
  <anchor x="511" y="1000" name="U"/>
  <outline>
    <contour>
      <point x="1008" y="916" type="line"/>
      <point x="707" y="916" type="line"/>
      <point x="707" y="879" type="line"/>
      <point x="781" y="879"/>
      <point x="798" y="868"/>
      <point x="805" y="856" type="curve" smooth="yes"/>
      <point x="810" y="848"/>
      <point x="812" y="840"/>
      <point x="812" y="830" type="curve" smooth="yes"/>
      <point x="812" y="810"/>
      <point x="803" y="784"/>
      <point x="788" y="747" type="curve" smooth="yes"/>
      <point x="574" y="220" type="line"/>
      <point x="361" y="726" type="line" smooth="yes"/>
      <point x="347" y="759"/>
      <point x="340" y="786"/>
      <point x="340" y="807" type="curve" smooth="yes"/>
      <point x="340" y="830"/>
      <point x="347" y="847"/>
      <point x="361" y="861" type="curve" smooth="yes"/>
      <point x="374" y="874"/>
      <point x="395" y="879"/>
      <point x="420" y="879" type="curve" smooth="yes"/>
      <point x="449" y="879" type="line"/>
      <point x="449" y="916" type="line"/>
      <point x="15" y="916" type="line"/>
      <point x="15" y="879" type="line"/>
      <point x="51" y="874"/>
      <point x="72" y="870"/>
      <point x="85" y="863" type="curve" smooth="yes"/>
      <point x="124" y="842"/>
      <point x="147" y="814"/>
      <point x="175" y="747" type="curve" smooth="yes"/>
      <point x="504" y="-30" type="line"/>
      <point x="546" y="-30" type="line"/>
      <point x="871" y="758" type="line" smooth="yes"/>
      <point x="891" y="806"/>
      <point x="910" y="836"/>
      <point x="933" y="859" type="curve" smooth="yes"/>
      <point x="948" y="874"/>
      <point x="972" y="876"/>
      <point x="1008" y="879" type="curve"/>
    </contour>
  </outline>
</glyph>
<glyph name="LtnSmW" format="2">
  <advance width="1480"/>
  <unicode hex="0077"/>
  <anchor x="737" y="-100" name="L"/>
  <anchor x="737" y="1000" name="U"/>
  <outline>
    <contour>
      <point x="1463" y="916" type="line"/>
      <point x="1173" y="916" type="line"/>
      <point x="1173" y="879" type="line"/>
      <point x="1258" y="879"/>
      <point x="1269" y="844"/>
      <point x="1269" y="828" type="curve" smooth="yes"/>
      <point x="1269" y="807"/>
      <point x="1261" y="778"/>
      <point x="1247" y="741" type="curve" smooth="yes"/>
      <point x="1057" y="237" type="line"/>
      <point x="848" y="763" type="line" smooth="yes"/>
      <point x="843" y="775"/>
      <point x="841" y="788"/>
      <point x="841" y="800" type="curve" smooth="yes"/>
      <point x="841" y="824"/>
      <point x="849" y="846"/>
      <point x="859" y="856" type="curve" smooth="yes"/>
      <point x="877" y="874"/>
      <point x="912" y="879"/>
      <point x="961" y="879" type="curve"/>
      <point x="961" y="916" type="line"/>
      <point x="525" y="916" type="line"/>
      <point x="525" y="879" type="line"/>
      <point x="564" y="877"/>
      <point x="592" y="872"/>
      <point x="607" y="863" type="curve" smooth="yes"/>
      <point x="633" y="848"/>
      <point x="655" y="820"/>
      <point x="670" y="781" type="curve" smooth="yes"/>
      <point x="722" y="645" type="line"/>
      <point x="525" y="215" type="line"/>
      <point x="327" y="741" type="line" smooth="yes"/>
      <point x="315" y="772"/>
      <point x="309" y="796"/>
      <point x="309" y="815" type="curve" smooth="yes"/>
      <point x="309" y="835"/>
      <point x="315" y="849"/>
      <point x="327" y="861" type="curve" smooth="yes"/>
      <point x="338" y="872"/>
      <point x="363" y="877"/>
      <point x="398" y="879" type="curve"/>
      <point x="398" y="916" type="line"/>
      <point x="12" y="916" type="line"/>
      <point x="12" y="879" type="line"/>
      <point x="53" y="871"/>
      <point x="85" y="858"/>
      <point x="100" y="839" type="curve"/>
      <point x="120" y="822"/>
      <point x="139" y="790"/>
      <point x="158" y="741" type="curve" smooth="yes"/>
      <point x="453" y="-30" type="line"/>
      <point x="491" y="-30" type="line"/>
      <point x="756" y="558" type="line"/>
      <point x="985" y="-30" type="line"/>
      <point x="1027" y="-30" type="line"/>
      <point x="1332" y="763" type="line" smooth="yes"/>
      <point x="1359" y="833"/>
      <point x="1404" y="871"/>
      <point x="1463" y="879" type="curve"/>
    </contour>
  </outline>
</glyph>
<glyph name="LtnSmX" format="1">
  <advance width="1025"/>
  <unicode hex="0078"/>
  <outline>
    <contour>
      <point x="1001" y="0" type="line" name="mh02"/>
      <point x="1001" y="38" type="line" name="sv04"/>
      <point x="961" y="39"/>
      <point x="918" y="51"/>
      <point x="907" y="64" type="curve"/>
      <point x="851" y="117" name="mv04"/>
      <point x="841" y="130" name="mh01"/>
      <point x="786" y="209" type="curve" smooth="yes" name="at01"/>
      <point x="558" y="536" type="line"/>
      <point x="682" y="705" type="line" smooth="yes"/>
      <point x="777" y="834"/>
      <point x="820" y="876" name="iv02"/>
      <point x="903" y="879" type="curve" name="mv03"/>
      <point x="903" y="916" type="line" name="fh01"/>
      <point x="593" y="916" type="line" name="at02"/>
      <point x="593" y="879" type="line"/>
      <point x="673" y="879"/>
      <point x="675" y="827" name="mv02"/>
      <point x="654" y="798" type="curve" name="mv01"/>
      <point x="519" y="601" type="line"/>
      <point x="388" y="806" type="line" name="sv01"/>
      <point x="375" y="829" name="ab01"/>
      <point x="379" y="884"/>
      <point x="459" y="879" type="curve" name="sv03"/>
      <point x="459" y="916" type="line"/>
      <point x="28" y="916" type="line" name="iv01"/>
      <point x="28" y="879" type="line"/>
      <point x="114" y="876" name="sv02"/>
      <point x="146" y="863"/>
      <point x="244" y="717" type="curve"/>
      <point x="418" y="465" type="line"/>
      <point x="224" y="209" type="line" smooth="yes"/>
      <point x="123" y="74"/>
      <point x="88" y="41"/>
      <point x="36" y="38" type="curve"/>
      <point x="36" y="0" type="line"/>
      <point x="335" y="0" type="line"/>
      <point x="335" y="38" type="line"/>
      <point x="233" y="41"/>
      <point x="233" y="105"/>
      <point x="260" y="140" type="curve" smooth="yes"/>
      <point x="459" y="406" type="line"/>
      <point x="649" y="126" type="line"/>
      <point x="665" y="99"/>
      <point x="669" y="38"/>
      <point x="568" y="38" type="curve"/>
      <point x="568" y="0" type="line"/>
    </contour>
    <contour>
      <point x="770" y="0" type="move" name="H"/>
    </contour>
    <contour>
      <point x="514" y="-100" type="move" name="L"/>
    </contour>
    <contour>
      <point x="514" y="1000" type="move" name="U"/>
    </contour>
  </outline>
</glyph>
<glyph name="LtnSmY" format="1">
  <advance width="1025"/>
  <unicode hex="0079"/>
  <outline>
    <contour>
      <point x="1013" y="916" type="line" name="at01"/>
      <point x="715" y="916" type="line"/>
      <point x="715" y="879" type="line" name="mh02"/>
      <point x="783" y="879"/>
      <point x="792" y="868"/>
      <point x="800" y="857" type="curve" smooth="yes" name="iv01"/>
      <point x="816" y="834"/>
      <point x="808" y="786"/>
      <point x="788" y="749" type="curve"/>
      <point x="583" y="243" type="line"/>
      <point x="361" y="704" type="line" smooth="yes" name="at02"/>
      <point x="338" y="751"/>
      <point x="327" y="784"/>
      <point x="327" y="812" type="curve" smooth="yes"/>
      <point x="327" y="856" name="av01"/>
      <point x="369" y="879"/>
      <point x="418" y="879" type="curve" smooth="yes"/>
      <point x="440" y="879" type="line" name="sv01"/>
      <point x="440" y="916" type="line"/>
      <point x="12" y="916" type="line" name="ab01"/>
      <point x="12" y="879" type="line"/>
      <point x="111" y="871"/>
      <point x="151" y="775" name="mh01"/>
      <point x="175" y="728" type="curve"/>
      <point x="504" y="38" type="line"/>
      <point x="440" y="-122" type="line"/>
      <point x="392" y="-238"/>
      <point x="343" y="-274"/>
      <point x="301" y="-274" type="curve" smooth="yes"/>
      <point x="286" y="-274"/>
      <point x="204" y="-239"/>
      <point x="162" y="-239" type="curve" smooth="yes"/>
      <point x="94" y="-239"/>
      <point x="59" y="-276"/>
      <point x="59" y="-329" type="curve" smooth="yes"/>
      <point x="59" y="-393"/>
      <point x="115" y="-444"/>
      <point x="195" y="-444" type="curve" smooth="yes"/>
      <point x="310" y="-444"/>
      <point x="435" y="-346"/>
      <point x="504" y="-173" type="curve"/>
      <point x="877" y="741" type="line"/>
      <point x="927" y="860"/>
      <point x="954" y="876"/>
      <point x="1013" y="879" type="curve"/>
    </contour>
    <contour>
      <point x="513" y="-500" type="move" name="L"/>
    </contour>
    <contour>
      <point x="1025" y="900" type="move" name="R"/>
    </contour>
    <contour>
      <point x="550" y="1000" type="move" name="U"/>
    </contour>
  </outline>
</glyph>
<glyph name="LtnSmZ" format="2">
  <advance width="910"/>
  <unicode hex="007A"/>
  <anchor x="459" y="0" name="H"/>
  <anchor x="459" y="-100" name="L"/>
  <anchor x="459" y="1000" name="U"/>
  <outline>
    <contour>
      <point x="877" y="879" type="line"/>
      <point x="877" y="916" type="line"/>
      <point x="109" y="916" type="line"/>
      <point x="102" y="662" type="line"/>
      <point x="141" y="662" type="line"/>
      <point x="152" y="771"/>
      <point x="181" y="817"/>
      <point x="220" y="833" type="curve" smooth="yes"/>
      <point x="244" y="843"/>
      <point x="285" y="848"/>
      <point x="348" y="848" type="curve" smooth="yes"/>
      <point x="651" y="848" type="line"/>
      <point x="41" y="38" type="line"/>
      <point x="41" y="0" type="line"/>
      <point x="850" y="0" type="line"/>
      <point x="861" y="280" type="line"/>
      <point x="826" y="280" type="line"/>
      <point x="808" y="122"/>
      <point x="781" y="106"/>
      <point x="737" y="85" type="curve" smooth="yes"/>
      <point x="713" y="73"/>
      <point x="667" y="67"/>
      <point x="598" y="67" type="curve" smooth="yes"/>
      <point x="262" y="67" type="line"/>
    </contour>
  </outline>
</glyph>
<glyph name="LftCurlyBrac" format="1">
  <advance width="980"/>
  <unicode hex="007B"/>
  <outline>
    <contour>
      <point x="775" y="-442" type="curve"/>
      <point x="775" y="-406" type="line"/>
      <point x="643" y="-372"/>
      <point x="551" y="-288"/>
      <point x="551" y="-141" type="curve" smooth="yes"/>
      <point x="551" y="-47"/>
      <point x="595" y="38"/>
      <point x="595" y="132" type="curve" smooth="yes"/>
      <point x="595" y="312"/>
      <point x="481" y="434"/>
      <point x="321" y="491" type="curve"/>
      <point x="479" y="548"/>
      <point x="595" y="668"/>
      <point x="595" y="846" type="curve" smooth="yes"/>
      <point x="595" y="942"/>
      <point x="551" y="1029"/>
      <point x="551" y="1123" type="curve" smooth="yes"/>
      <point x="551" y="1269"/>
      <point x="643" y="1354"/>
      <point x="775" y="1388" type="curve"/>
      <point x="775" y="1423" type="line"/>
      <point x="589" y="1403"/>
      <point x="402" y="1245"/>
      <point x="402" y="1053" type="curve" smooth="yes"/>
      <point x="402" y="940"/>
      <point x="448" y="824"/>
      <point x="448" y="731" type="curve" smooth="yes"/>
      <point x="448" y="605"/>
      <point x="314" y="528"/>
      <point x="218" y="517" type="curve"/>
      <point x="218" y="465" type="line"/>
      <point x="316" y="453"/>
      <point x="448" y="374"/>
      <point x="448" y="246" type="curve" smooth="yes"/>
      <point x="448" y="158"/>
      <point x="402" y="49"/>
      <point x="402" y="-57" type="curve" smooth="yes"/>
      <point x="402" y="-258"/>
      <point x="583" y="-422"/>
    </contour>
  </outline>
</glyph>
<glyph name="VertLine" format="1">
  <advance width="660"/>
  <unicode hex="007C"/>
  <outline>
    <contour>
      <point x="380" y="-508" type="line"/>
      <point x="380" y="1569" type="line"/>
      <point x="280" y="1569" type="line"/>
      <point x="280" y="-508" type="line"/>
    </contour>
  </outline>
</glyph>
<glyph name="NoBreakSpace" format="1">
  <advance width="512"/>
  <unicode hex="00A0"/>
  <outline>
    <contour>
      <point x="256" y="0" type="move" name="H"/>
    </contour>
    <contour>
      <point x="256" y="-100" type="move" name="L"/>
    </contour>
    <contour>
      <point x="306" y="0" type="move" name="O"/>
    </contour>
    <contour>
      <point x="512" y="900" type="move" name="R"/>
    </contour>
    <contour>
      <point x="256" y="1435" type="move" name="U"/>
    </contour>
  </outline>
</glyph>
<glyph name="InvExclamationMrk" format="2">
  <advance width="682"/>
  <unicode hex="00A1"/>
  <outline>
    <contour>
      <point x="453" y="861" type="curve"/>
      <point x="453" y="942"/>
      <point x="386" y="976"/>
      <point x="341" y="976" type="curve" smooth="yes"/>
      <point x="282" y="976"/>
      <point x="231" y="925"/>
      <point x="231" y="861" type="curve" smooth="yes"/>
      <point x="231" y="794"/>
      <point x="290" y="753"/>
      <point x="341" y="753" type="curve" smooth="yes"/>
      <point x="393" y="753"/>
      <point x="453" y="790"/>
    </contour>
    <contour>
      <point x="455" y="-301" type="curve"/>
      <point x="455" y="-286"/>
      <point x="453" y="-272"/>
      <point x="448" y="-224" type="curve" smooth="yes"/>
      <point x="361" y="587" type="line"/>
      <point x="321" y="587" type="line"/>
      <point x="231" y="-224" type="line" smooth="yes"/>
      <point x="227" y="-252"/>
      <point x="227" y="-276"/>
      <point x="227" y="-292" type="curve" smooth="yes"/>
      <point x="227" y="-402"/>
      <point x="290" y="-442"/>
      <point x="339" y="-442" type="curve" smooth="yes"/>
      <point x="404" y="-442"/>
      <point x="455" y="-391"/>
    </contour>
  </outline>
</glyph>
<glyph name="PoundSgn" format="1">
  <advance width="1025"/>
  <unicode hex="00A3"/>
  <outline>
    <contour>
      <point x="978" y="303" type="curve"/>
      <point x="940" y="314" type="line"/>
      <point x="925" y="256"/>
      <point x="889" y="152"/>
      <point x="729" y="152" type="curve" smooth="yes"/>
      <point x="634" y="152"/>
      <point x="534" y="192"/>
      <point x="404" y="235" type="curve"/>
      <point x="481" y="436"/>
      <point x="465" y="613"/>
      <point x="465" y="660" type="curve"/>
      <point x="724" y="660" type="line"/>
      <point x="724" y="755" type="line"/>
      <point x="465" y="755" type="line"/>
      <point x="463" y="777"/>
      <point x="444" y="960"/>
      <point x="444" y="1049" type="curve" smooth="yes"/>
      <point x="444" y="1262"/>
      <point x="521" y="1330"/>
      <point x="625" y="1330" type="curve" smooth="yes"/>
      <point x="711" y="1330"/>
      <point x="747" y="1275"/>
      <point x="747" y="1215" type="curve" smooth="yes"/>
      <point x="747" y="1132"/>
      <point x="784" y="1098"/>
      <point x="826" y="1098" type="curve" smooth="yes"/>
      <point x="865" y="1098"/>
      <point x="903" y="1141"/>
      <point x="903" y="1181" type="curve" smooth="yes"/>
      <point x="903" y="1283"/>
      <point x="805" y="1386"/>
      <point x="651" y="1386" type="curve" smooth="yes"/>
      <point x="481" y="1386"/>
      <point x="278" y="1251"/>
      <point x="278" y="954" type="curve" smooth="yes"/>
      <point x="278" y="920"/>
      <point x="286" y="856"/>
      <point x="292" y="755" type="curve"/>
      <point x="98" y="755" type="line"/>
      <point x="98" y="660" type="line"/>
      <point x="292" y="660" type="line"/>
      <point x="305" y="499"/>
      <point x="320" y="355"/>
      <point x="310" y="252" type="curve"/>
      <point x="292" y="256"/>
      <point x="266" y="260"/>
      <point x="224" y="260" type="curve" smooth="yes"/>
      <point x="169" y="260"/>
      <point x="61" y="233"/>
      <point x="61" y="105" type="curve" smooth="yes"/>
      <point x="61" y="43"/>
      <point x="92" y="-24"/>
      <point x="177" y="-24" type="curve" smooth="yes"/>
      <point x="278" y="-24"/>
      <point x="339" y="85"/>
      <point x="365" y="138" type="curve"/>
      <point x="506" y="34"/>
      <point x="564" y="-24"/>
      <point x="690" y="-24" type="curve" smooth="yes"/>
      <point x="867" y="-24"/>
      <point x="960" y="150"/>
    </contour>
    <contour>
      <point x="299" y="171" type="curve"/>
      <point x="278" y="89"/>
      <point x="239" y="36"/>
      <point x="186" y="36" type="curve" smooth="yes"/>
      <point x="150" y="36"/>
      <point x="118" y="57"/>
      <point x="118" y="113" type="curve" smooth="yes"/>
      <point x="118" y="162"/>
      <point x="150" y="199"/>
      <point x="213" y="199" type="curve" smooth="yes"/>
      <point x="256" y="199"/>
      <point x="286" y="181"/>
    </contour>
  </outline>
</glyph>
<glyph name="YenSgn" format="1">
  <advance width="1025"/>
  <unicode hex="00A5"/>
  <outline>
    <contour>
      <point x="1005" y="353" type="line"/>
      <point x="1005" y="425" type="line"/>
      <point x="598" y="425" type="line"/>
      <point x="598" y="587" type="line"/>
      <point x="605" y="605" type="line"/>
      <point x="1005" y="605" type="line"/>
      <point x="1005" y="678" type="line"/>
      <point x="634" y="678" type="line"/>
      <point x="852" y="1165" type="line" smooth="yes"/>
      <point x="881" y="1230"/>
      <point x="910" y="1273"/>
      <point x="936" y="1295" type="curve" smooth="yes"/>
      <point x="956" y="1313"/>
      <point x="984" y="1320"/>
      <point x="1025" y="1320" type="curve"/>
      <point x="1025" y="1356" type="line"/>
      <point x="678" y="1356" type="line"/>
      <point x="678" y="1320" type="line"/>
      <point x="717" y="1318"/>
      <point x="745" y="1315"/>
      <point x="769" y="1299" type="curve" smooth="yes"/>
      <point x="806" y="1273"/>
      <point x="782" y="1216"/>
      <point x="769" y="1183" type="curve" smooth="yes"/>
      <point x="556" y="678" type="line"/>
      <point x="343" y="1198" type="line" smooth="yes"/>
      <point x="331" y="1230"/>
      <point x="301" y="1266"/>
      <point x="346" y="1295" type="curve" smooth="yes"/>
      <point x="374" y="1313"/>
      <point x="398" y="1317"/>
      <point x="446" y="1320" type="curve"/>
      <point x="446" y="1356" type="line"/>
      <point x="2" y="1356" type="line"/>
      <point x="2" y="1320" type="line"/>
      <point x="39" y="1317"/>
      <point x="69" y="1309"/>
      <point x="92" y="1289" type="curve"/>
      <point x="118" y="1271"/>
      <point x="141" y="1232"/>
      <point x="166" y="1175" type="curve" smooth="yes"/>
      <point x="378" y="678" type="line"/>
      <point x="19" y="678" type="line"/>
      <point x="19" y="605" type="line"/>
      <point x="412" y="605" type="line"/>
      <point x="425" y="570" type="line"/>
      <point x="425" y="425" type="line"/>
      <point x="19" y="425" type="line"/>
      <point x="19" y="353" type="line"/>
      <point x="425" y="353" type="line"/>
      <point x="425" y="244" type="line" smooth="yes"/>
      <point x="425" y="175"/>
      <point x="427" y="107"/>
      <point x="406" y="83" type="curve" smooth="yes"/>
      <point x="376" y="49"/>
      <point x="331" y="41"/>
      <point x="286" y="41" type="curve" smooth="yes"/>
      <point x="252" y="41" type="line"/>
      <point x="252" y="0" type="line"/>
      <point x="769" y="0" type="line"/>
      <point x="769" y="41" type="line"/>
      <point x="728" y="41" type="line" smooth="yes"/>
      <point x="696" y="41"/>
      <point x="647" y="53"/>
      <point x="623" y="81" type="curve" smooth="yes"/>
      <point x="598" y="111"/>
      <point x="598" y="169"/>
      <point x="598" y="244" type="curve" smooth="yes"/>
      <point x="598" y="353" type="line"/>
    </contour>
  </outline>
</glyph>
<glyph name="BrokenBar" format="1">
  <advance width="680"/>
  <unicode hex="00A6"/>
  <outline>
    <contour>
      <point x="390" y="662" type="line"/>
      <point x="390" y="1450" type="line"/>
      <point x="290" y="1450" type="line"/>
      <point x="290" y="662" type="line"/>
    </contour>
    <contour>
      <point x="390" y="-391" type="line"/>
      <point x="390" y="398" type="line"/>
      <point x="290" y="398" type="line"/>
      <point x="290" y="-391" type="line"/>
    </contour>
  </outline>
</glyph>
<glyph name="LftPtngDblAngQuotMrk" format="2">
  <advance width="1025"/>
  <unicode hex="00AB"/>
  <outline>
    <contour>
      <point x="960" y="-8" type="line"/>
      <point x="715" y="465" type="line"/>
      <point x="960" y="934" type="line"/>
      <point x="903" y="934" type="line"/>
      <point x="508" y="465" type="line"/>
      <point x="903" y="-8" type="line"/>
    </contour>
    <contour>
      <point x="506" y="-8" type="line"/>
      <point x="262" y="465" type="line"/>
      <point x="506" y="934" type="line"/>
      <point x="451" y="934" type="line"/>
      <point x="64" y="465" type="line"/>
      <point x="451" y="-8" type="line"/>
    </contour>
  </outline>
</glyph>
<glyph name="Hyphen_Soft" format="1">
  <advance width="682"/>
  <unicode hex="00AD"/>
  <outline>
    <component base="HyphenMinus"/>
    <contour>
      <point x="342" y="1000" type="move" name="U"/>
    </contour>
  </outline>
</glyph>
<glyph name="RegisteredSgn" format="2">
  <advance width="1557"/>
  <unicode hex="00AE"/>
  <outline>
    <contour>
      <point x="1490" y="678" type="curve"/>
      <point x="1490" y="1076"/>
      <point x="1179" y="1388"/>
      <point x="779" y="1388" type="curve" smooth="yes"/>
      <point x="427" y="1388"/>
      <point x="69" y="1121"/>
      <point x="69" y="678" type="curve" smooth="yes"/>
      <point x="69" y="272"/>
      <point x="388" y="-32"/>
      <point x="779" y="-32" type="curve" smooth="yes"/>
      <point x="1171" y="-32"/>
      <point x="1490" y="278"/>
    </contour>
    <contour>
      <point x="1427" y="678" type="curve"/>
      <point x="1427" y="301"/>
      <point x="1123" y="32"/>
      <point x="779" y="32" type="curve" smooth="yes"/>
      <point x="429" y="32"/>
      <point x="132" y="305"/>
      <point x="132" y="678" type="curve" smooth="yes"/>
      <point x="132" y="1078"/>
      <point x="461" y="1326"/>
      <point x="779" y="1326" type="curve" smooth="yes"/>
      <point x="1136" y="1326"/>
      <point x="1427" y="1042"/>
    </contour>
    <contour>
      <point x="1179" y="250" type="line"/>
      <point x="1179" y="284" type="line"/>
      <point x="1155" y="286"/>
      <point x="1138" y="290"/>
      <point x="1125" y="297" type="curve" smooth="yes"/>
      <point x="1104" y="312"/>
      <point x="1084" y="331"/>
      <point x="1057" y="371" type="curve" smooth="yes"/>
      <point x="850" y="668" type="line"/>
      <point x="929" y="688"/>
      <point x="1070" y="741"/>
      <point x="1070" y="891" type="curve" smooth="yes"/>
      <point x="1070" y="1013"/>
      <point x="963" y="1115"/>
      <point x="773" y="1115" type="curve" smooth="yes"/>
      <point x="386" y="1115" type="line"/>
      <point x="386" y="1078" type="line"/>
      <point x="416" y="1078"/>
      <point x="438" y="1074"/>
      <point x="449" y="1066" type="curve" smooth="yes"/>
      <point x="463" y="1057"/>
      <point x="471" y="1044"/>
      <point x="475" y="1031" type="curve" smooth="yes"/>
      <point x="477" y="1023"/>
      <point x="477" y="993"/>
      <point x="477" y="942" type="curve" smooth="yes"/>
      <point x="477" y="420" type="line" smooth="yes"/>
      <point x="477" y="369"/>
      <point x="477" y="329"/>
      <point x="461" y="310" type="curve" smooth="yes"/>
      <point x="442" y="284"/>
      <point x="406" y="284"/>
      <point x="374" y="284" type="curve"/>
      <point x="374" y="250" type="line"/>
      <point x="741" y="250" type="line"/>
      <point x="741" y="284" type="line"/>
      <point x="698" y="284"/>
      <point x="666" y="288"/>
      <point x="653" y="297" type="curve" smooth="yes"/>
      <point x="639" y="307"/>
      <point x="623" y="323"/>
      <point x="623" y="345" type="curve" smooth="yes"/>
      <point x="623" y="654" type="line"/>
      <point x="700" y="654" type="line"/>
      <point x="993" y="250" type="line"/>
    </contour>
    <contour>
      <point x="910" y="879" type="curve"/>
      <point x="910" y="702"/>
      <point x="709" y="698"/>
      <point x="623" y="698" type="curve"/>
      <point x="623" y="1057" type="line"/>
      <point x="654" y="1066"/>
      <point x="682" y="1070"/>
      <point x="707" y="1070" type="curve" smooth="yes"/>
      <point x="833" y="1070"/>
      <point x="910" y="980"/>
    </contour>
  </outline>
</glyph>
<glyph name="PlusMinusSgn" format="2">
  <advance width="1971"/>
  <unicode hex="00B1"/>
  <outline>
    <contour>
      <point x="1576" y="705" type="line"/>
      <point x="1576" y="828" type="line"/>
      <point x="1046" y="828" type="line"/>
      <point x="1046" y="1183" type="line"/>
      <point x="925" y="1183" type="line"/>
      <point x="925" y="828" type="line"/>
      <point x="395" y="828" type="line"/>
      <point x="395" y="705" type="line"/>
      <point x="925" y="705" type="line"/>
      <point x="925" y="351" type="line"/>
      <point x="1046" y="351" type="line"/>
      <point x="1046" y="705" type="line"/>
    </contour>
    <contour>
      <point x="1576" y="0" type="line"/>
      <point x="1576" y="122" type="line"/>
      <point x="395" y="122" type="line"/>
      <point x="395" y="0" type="line"/>
    </contour>
  </outline>
</glyph>
<glyph name="SupThree" format="1">
  <advance width="737"/>
  <unicode hex="00B3"/>
  <outline>
    <contour>
      <point x="615" y="1076" type="curve"/>
      <point x="615" y="1213"/>
      <point x="497" y="1269"/>
      <point x="434" y="1289" type="curve"/>
      <point x="523" y="1352"/>
      <point x="566" y="1413"/>
      <point x="566" y="1472" type="curve" smooth="yes"/>
      <point x="566" y="1514"/>
      <point x="528" y="1638"/>
      <point x="339" y="1638" type="curve" smooth="yes"/>
      <point x="162" y="1638"/>
      <point x="102" y="1516"/>
      <point x="75" y="1465" type="curve"/>
      <point x="98" y="1454" type="line"/>
      <point x="148" y="1522"/>
      <point x="211" y="1555"/>
      <point x="286" y="1555" type="curve" smooth="yes"/>
      <point x="351" y="1555"/>
      <point x="448" y="1523"/>
      <point x="448" y="1418" type="curve" smooth="yes"/>
      <point x="448" y="1267"/>
      <point x="260" y="1232"/>
      <point x="224" y="1228" type="curve"/>
      <point x="224" y="1210" type="line"/>
      <point x="224" y="1210"/>
      <point x="508" y="1218"/>
      <point x="508" y="1003" type="curve" smooth="yes"/>
      <point x="508" y="907"/>
      <point x="412" y="844"/>
      <point x="325" y="844" type="curve" smooth="yes"/>
      <point x="227" y="844"/>
      <point x="190" y="899"/>
      <point x="118" y="899" type="curve" smooth="yes"/>
      <point x="87" y="899"/>
      <point x="61" y="881"/>
      <point x="61" y="857" type="curve" smooth="yes"/>
      <point x="61" y="839"/>
      <point x="67" y="792"/>
      <point x="229" y="792" type="curve" smooth="yes"/>
      <point x="467" y="792"/>
      <point x="615" y="909"/>
    </contour>
    <contour>
      <point x="338" y="750" type="move" name="L"/>
    </contour>
    <contour>
      <point x="338" y="1625" type="move" name="U"/>
    </contour>
  </outline>
</glyph>
<glyph name="RtPtngDblAngQuotMrk" format="2">
  <advance width="1025"/>
  <unicode hex="00BB"/>
  <outline>
    <contour>
      <point x="961" y="463" type="line"/>
      <point x="574" y="934" type="line"/>
      <point x="519" y="934" type="line"/>
      <point x="763" y="463" type="line"/>
      <point x="519" y="-8" type="line"/>
      <point x="574" y="-8" type="line"/>
    </contour>
    <contour>
      <point x="517" y="463" type="line"/>
      <point x="122" y="934" type="line"/>
      <point x="65" y="934" type="line"/>
      <point x="310" y="463" type="line"/>
      <point x="65" y="-8" type="line"/>
      <point x="122" y="-8" type="line"/>
    </contour>
  </outline>
</glyph>
<glyph name="VulgFracOneHalf" format="1">
  <advance width="1518"/>
  <unicode hex="00BD"/>
  <outline>
    <contour>
      <point x="1382" y="150" type="line"/>
      <point x="1358" y="150" type="line"/>
      <point x="1320" y="96"/>
      <point x="1307" y="85"/>
      <point x="1183" y="85" type="curve" smooth="yes"/>
      <point x="968" y="85" type="line"/>
      <point x="993" y="107"/>
      <point x="1055" y="173"/>
      <point x="1155" y="282" type="curve" smooth="yes"/>
      <point x="1224" y="357"/>
      <point x="1330" y="487"/>
      <point x="1330" y="615" type="curve" smooth="yes"/>
      <point x="1330" y="751"/>
      <point x="1213" y="832"/>
      <point x="1096" y="832" type="curve" smooth="yes"/>
      <point x="914" y="832"/>
      <point x="871" y="674"/>
      <point x="863" y="601" type="curve"/>
      <point x="883" y="601" type="line"/>
      <point x="899" y="647"/>
      <point x="948" y="739"/>
      <point x="1064" y="739" type="curve" smooth="yes"/>
      <point x="1115" y="739"/>
      <point x="1226" y="700"/>
      <point x="1226" y="560" type="curve" smooth="yes"/>
      <point x="1226" y="491"/>
      <point x="1196" y="416"/>
      <point x="1139" y="333" type="curve" smooth="yes"/>
      <point x="1080" y="250"/>
      <point x="980" y="146"/>
      <point x="837" y="15" type="curve"/>
      <point x="837" y="-8" type="line"/>
      <point x="1322" y="-8" type="line"/>
    </contour>
    <contour>
      <point x="1194" y="1382" type="line"/>
      <point x="1098" y="1382" type="line"/>
      <point x="235" y="-15" type="line"/>
      <point x="333" y="-15" type="line"/>
    </contour>
    <contour>
      <point x="461" y="525" type="line"/>
      <point x="461" y="548" type="line"/>
      <point x="357" y="548"/>
      <point x="357" y="564"/>
      <point x="357" y="670" type="curve" smooth="yes"/>
      <point x="357" y="1364" type="line"/>
      <point x="335" y="1364" type="line"/>
      <point x="136" y="1267" type="line"/>
      <point x="144" y="1245" type="line"/>
      <point x="269" y="1303"/>
      <point x="256" y="1222"/>
      <point x="256" y="1112" type="curve" smooth="yes"/>
      <point x="256" y="670" type="line" smooth="yes"/>
      <point x="256" y="564"/>
      <point x="252" y="548"/>
      <point x="150" y="548" type="curve"/>
      <point x="150" y="525" type="line"/>
    </contour>
  </outline>
</glyph>
<glyph name="InvQstnMrk" format="2">
  <advance width="910"/>
  <unicode hex="00BF"/>
  <outline>
    <contour>
      <point x="577" y="861" type="curve"/>
      <point x="577" y="933"/>
      <point x="521" y="974"/>
      <point x="463" y="974" type="curve" smooth="yes"/>
      <point x="412" y="974"/>
      <point x="353" y="934"/>
      <point x="353" y="861" type="curve" smooth="yes"/>
      <point x="353" y="794"/>
      <point x="408" y="749"/>
      <point x="463" y="749" type="curve" smooth="yes"/>
      <point x="523" y="749"/>
      <point x="577" y="796"/>
    </contour>
    <contour>
      <point x="812" y="-154" type="curve"/>
      <point x="812" y="-24"/>
      <point x="729" y="4"/>
      <point x="702" y="4" type="curve" smooth="yes"/>
      <point x="666" y="4"/>
      <point x="621" y="-26"/>
      <point x="621" y="-83" type="curve" smooth="yes"/>
      <point x="621" y="-128"/>
      <point x="684" y="-199"/>
      <point x="684" y="-254" type="curve" smooth="yes"/>
      <point x="684" y="-314"/>
      <point x="623" y="-386"/>
      <point x="495" y="-386" type="curve" smooth="yes"/>
      <point x="391" y="-386"/>
      <point x="262" y="-312"/>
      <point x="262" y="-111" type="curve" smooth="yes"/>
      <point x="262" y="-6"/>
      <point x="316" y="118"/>
      <point x="357" y="188" type="curve" smooth="yes"/>
      <point x="446" y="335"/>
      <point x="485" y="467"/>
      <point x="493" y="627" type="curve"/>
      <point x="449" y="627" type="line"/>
      <point x="442" y="440"/>
      <point x="374" y="365"/>
      <point x="233" y="205" type="curve" smooth="yes"/>
      <point x="171" y="136"/>
      <point x="77" y="26"/>
      <point x="77" y="-126" type="curve" smooth="yes"/>
      <point x="77" y="-323"/>
      <point x="235" y="-442"/>
      <point x="451" y="-442" type="curve" smooth="yes"/>
      <point x="684" y="-442"/>
      <point x="812" y="-303"/>
    </contour>
  </outline>
</glyph>
<glyph name="LtnCapAAcute" format="1">
  <advance width="1472"/>
  <unicode hex="00C1"/>
  <outline>
    <component base="LtnCapA"/>
    <component base="CombAcute" xOffset="1247" yOffset="435"/>
    <contour>
      <point x="735" y="0" type="move" name="H"/>
    </contour>
    <contour>
      <point x="735" y="-100" type="move" name="L"/>
    </contour>
    <contour>
      <point x="1300" y="0" type="move" name="O"/>
    </contour>
    <contour>
      <point x="735" y="1870" type="move" name="U"/>
    </contour>
  </outline>
</glyph>
<glyph name="LtnCapAe" format="1">
  <advance width="1823"/>
  <unicode hex="00C6"/>
  <outline>
    <contour>
      <point x="1764" y="343" type="line"/>
      <point x="1728" y="343" type="line"/>
      <point x="1636" y="152"/>
      <point x="1551" y="73"/>
      <point x="1324" y="73" type="curve" smooth="yes"/>
      <point x="1143" y="73" type="line" smooth="yes"/>
      <point x="1064" y="73"/>
      <point x="1046" y="96"/>
      <point x="1035" y="115" type="curve" smooth="yes"/>
      <point x="1025" y="128"/>
      <point x="1027" y="169"/>
      <point x="1027" y="222" type="curve" smooth="yes"/>
      <point x="1027" y="672" type="line"/>
      <point x="1285" y="672" type="line" smooth="yes"/>
      <point x="1456" y="672"/>
      <point x="1482" y="632"/>
      <point x="1502" y="474" type="curve"/>
      <point x="1537" y="474" type="line"/>
      <point x="1537" y="942" type="line"/>
      <point x="1502" y="942" type="line"/>
      <point x="1490" y="798"/>
      <point x="1441" y="747"/>
      <point x="1285" y="747" type="curve" smooth="yes"/>
      <point x="1027" y="747" type="line"/>
      <point x="1027" y="1283" type="line"/>
      <point x="1360" y="1283" type="line" smooth="yes"/>
      <point x="1563" y="1283"/>
      <point x="1585" y="1245"/>
      <point x="1625" y="1061" type="curve"/>
      <point x="1657" y="1061" type="line"/>
      <point x="1642" y="1356" type="line"/>
      <point x="530" y="1356" type="line"/>
      <point x="530" y="1320" type="line"/>
      <point x="672" y="1313"/>
      <point x="704" y="1283"/>
      <point x="704" y="1238" type="curve" smooth="yes"/>
      <point x="704" y="1206"/>
      <point x="678" y="1139"/>
      <point x="627" y="1044" type="curve" smooth="yes"/>
      <point x="213" y="274" type="line" smooth="yes"/>
      <point x="136" y="132"/>
      <point x="90" y="79"/>
      <point x="51" y="55" type="curve" smooth="yes"/>
      <point x="32" y="43"/>
      <point x="6" y="38"/>
      <point x="-24" y="38" type="curve"/>
      <point x="-24" y="0" type="line"/>
      <point x="402" y="0" type="line"/>
      <point x="402" y="38" type="line"/>
      <point x="337" y="43"/>
      <point x="295" y="53"/>
      <point x="274" y="67" type="curve" smooth="yes"/>
      <point x="220" y="100"/>
      <point x="241" y="154"/>
      <point x="316" y="292" type="curve" smooth="yes"/>
      <point x="440" y="525" type="line"/>
      <point x="835" y="525" type="line"/>
      <point x="835" y="241" type="line" smooth="yes"/>
      <point x="835" y="158"/>
      <point x="828" y="107"/>
      <point x="812" y="87" type="curve" smooth="yes"/>
      <point x="784" y="53"/>
      <point x="745" y="38"/>
      <point x="688" y="38" type="curve" smooth="yes"/>
      <point x="639" y="38" type="line"/>
      <point x="639" y="0" type="line"/>
      <point x="1657" y="0" type="line"/>
    </contour>
    <contour>
      <point x="835" y="600" type="line"/>
      <point x="477" y="600" type="line"/>
      <point x="835" y="1283" type="line"/>
    </contour>
    <contour>
      <point x="870" y="-100" type="move" name="L"/>
    </contour>
    <contour>
      <point x="870" y="1435" type="move" name="U"/>
    </contour>
  </outline>
</glyph>
<glyph name="LtnCapEth" format="2">
  <advance width="1480"/>
  <unicode hex="00D0"/>
  <anchor x="717" y="-100" name="L"/>
  <anchor x="717" y="1435" name="U"/>
  <outline>
    <contour>
      <point x="818" y="678" type="line"/>
      <point x="818" y="792" type="line"/>
      <point x="36" y="792" type="line"/>
      <point x="36" y="678" type="line"/>
    </contour>
    <component base="LtnCapD"/>
  </outline>
</glyph>
<glyph name="LtnCapNTilde" format="1">
  <advance width="1480"/>
  <unicode hex="00D1"/>
  <outline>
    <component base="LtnCapN"/>
    <component base="SmTilde" xOffset="390" yOffset="435"/>
    <contour>
      <point x="1224" y="0" type="move" name="H"/>
    </contour>
    <contour>
      <point x="731" y="1870" type="move" name="U"/>
    </contour>
    <contour>
      <point x="731" y="-100" type="move" name="L"/>
    </contour>
  </outline>
</glyph>
<glyph name="MultSgn" format="1">
  <advance width="1971"/>
  <unicode hex="00D7"/>
  <outline>
    <contour>
      <point x="1518" y="136" type="line"/>
      <point x="1064" y="591" type="line"/>
      <point x="1518" y="1046" type="line"/>
      <point x="1441" y="1123" type="line"/>
      <point x="985" y="666" type="line"/>
      <point x="530" y="1123" type="line"/>
      <point x="453" y="1046" type="line"/>
      <point x="907" y="591" type="line"/>
      <point x="453" y="136" type="line"/>
      <point x="530" y="59" type="line"/>
      <point x="985" y="517" type="line"/>
      <point x="1441" y="59" type="line"/>
    </contour>
  </outline>
</glyph>
<glyph name="LtnCapOStrk" format="1">
  <advance width="1480"/>
  <unicode hex="00D8"/>
  <outline>
    <contour>
      <point x="751" y="1388" type="curve" smooth="yes"/>
      <point x="365" y="1388"/>
      <point x="71" y="1088"/>
      <point x="71" y="682" type="curve" smooth="yes"/>
      <point x="71" y="465"/>
      <point x="146" y="285"/>
      <point x="270" y="158" type="curve"/>
      <point x="141" y="0" type="line"/>
      <point x="201" y="-47" type="line"/>
      <point x="326" y="107" type="line"/>
      <point x="441" y="15"/>
      <point x="583" y="-32"/>
      <point x="733" y="-32" type="curve" smooth="yes"/>
      <point x="1112" y="-32"/>
      <point x="1399" y="276"/>
      <point x="1399" y="686" type="curve" smooth="yes"/>
      <point x="1399" y="890"/>
      <point x="1324" y="1067"/>
      <point x="1205" y="1191" type="curve"/>
      <point x="1339" y="1356" type="line"/>
      <point x="1279" y="1399" type="line"/>
      <point x="1151" y="1242" type="line"/>
      <point x="1040" y="1336"/>
      <point x="902" y="1388"/>
    </contour>
    <contour>
      <point x="729" y="1317" type="curve"/>
      <point x="880" y="1316"/>
      <point x="991" y="1255"/>
      <point x="1067" y="1139" type="curve"/>
      <point x="375" y="287" type="line"/>
      <point x="321" y="414"/>
      <point x="301" y="540"/>
      <point x="301" y="688" type="curve" smooth="yes"/>
      <point x="301" y="1077"/>
      <point x="457" y="1317"/>
    </contour>
    <contour>
      <point x="731" y="39" type="curve"/>
      <point x="595" y="40"/>
      <point x="487" y="103"/>
      <point x="413" y="215" type="curve"/>
      <point x="1105" y="1068" type="line"/>
      <point x="1158" y="937"/>
      <point x="1175" y="816"/>
      <point x="1173" y="660" type="curve" smooth="yes"/>
      <point x="1170" y="233"/>
      <point x="991" y="39"/>
    </contour>
    <contour>
      <point x="737" y="-100" type="move" name="L"/>
    </contour>
    <contour>
      <point x="737" y="1435" type="move" name="U"/>
    </contour>
  </outline>
</glyph>
<glyph name="LtnCapUDiaer" format="1">
  <advance width="1480"/>
  <unicode hex="00DC"/>
  <outline>
    <component base="LtnCapU"/>
    <component base="CombDiaer" xOffset="1256" yOffset="435"/>
    <contour>
      <point x="744" y="0" type="move" name="H"/>
    </contour>
    <contour>
      <point x="744" y="-100" type="move" name="L"/>
    </contour>
    <contour>
      <point x="1006" y="0" type="move" name="O"/>
    </contour>
    <contour>
      <point x="1490" y="1330" type="move" name="R"/>
    </contour>
    <contour>
      <point x="744" y="1870" type="move" name="U"/>
    </contour>
  </outline>
</glyph>
<glyph name="LtnSmEAcute" format="1">
  <advance width="910"/>
  <unicode hex="00E9"/>
  <outline>
    <component base="LtnSmE"/>
    <component base="CombAcute" xOffset="997"/>
    <contour>
      <point x="463" y="0" type="move" name="H"/>
    </contour>
    <contour>
      <point x="910" y="900" type="move" name="R"/>
    </contour>
    <contour>
      <point x="485" y="1435" type="move" name="U"/>
    </contour>
    <contour>
      <point x="485" y="-100" type="move" name="L"/>
    </contour>
    <contour>
      <point x="661" y="0" type="move" name="O"/>
    </contour>
  </outline>
</glyph>
<glyph name="LtnSmIAcute" format="1">
  <advance width="570"/>
  <unicode hex="00ED"/>
  <outline>
    <component base="LtnSmDotlessI"/>
    <component base="CombAcute" xOffset="806"/>
    <contour>
      <point x="295" y="0" type="move" name="H"/>
    </contour>
    <contour>
      <point x="294" y="-100" type="move" name="L"/>
    </contour>
    <contour>
      <point x="445" y="0" type="move" name="O"/>
    </contour>
    <contour>
      <point x="570" y="900" type="move" name="R"/>
    </contour>
    <contour>
      <point x="294" y="1435" type="move" name="U"/>
    </contour>
  </outline>
</glyph>
<glyph name="LtnSmEth" format="1">
  <advance width="1005"/>
  <unicode hex="00F0"/>
  <outline>
    <contour>
      <point x="950" y="474" type="curve"/>
      <point x="950" y="728"/>
      <point x="812" y="1003"/>
      <point x="566" y="1222" type="curve"/>
      <point x="796" y="1352" type="line"/>
      <point x="761" y="1407" type="line"/>
      <point x="512" y="1269" type="line"/>
      <point x="425" y="1332"/>
      <point x="345" y="1384"/>
      <point x="264" y="1423" type="curve"/>
      <point x="239" y="1380" type="line"/>
      <point x="314" y="1326"/>
      <point x="339" y="1309"/>
      <point x="425" y="1222" type="curve"/>
      <point x="193" y="1090" type="line"/>
      <point x="220" y="1035" type="line"/>
      <point x="469" y="1171" type="line"/>
      <point x="544" y="1084"/>
      <point x="605" y="985"/>
      <point x="658" y="877" type="curve"/>
      <point x="579" y="934"/>
      <point x="546" y="934"/>
      <point x="489" y="934" type="curve" smooth="yes"/>
      <point x="244" y="934"/>
      <point x="67" y="698"/>
      <point x="67" y="442" type="curve" smooth="yes"/>
      <point x="67" y="173"/>
      <point x="258" y="-30"/>
      <point x="500" y="-30" type="curve" smooth="yes"/>
      <point x="784" y="-30"/>
      <point x="950" y="220"/>
    </contour>
    <contour>
      <point x="765" y="376" type="curve"/>
      <point x="765" y="140"/>
      <point x="672" y="43"/>
      <point x="548" y="43" type="curve" smooth="yes"/>
      <point x="369" y="43"/>
      <point x="250" y="254"/>
      <point x="252" y="519" type="curve" smooth="yes"/>
      <point x="254" y="790"/>
      <point x="363" y="875"/>
      <point x="479" y="875" type="curve" smooth="yes"/>
      <point x="651" y="875"/>
      <point x="765" y="680"/>
    </contour>
    <contour>
      <point x="508" y="-100" type="move" name="L"/>
    </contour>
    <contour>
      <point x="508" y="1435" type="move" name="U"/>
    </contour>
  </outline>
</glyph>
<glyph name="LtnSmNTilde" format="1">
  <advance width="1025"/>
  <unicode hex="00F1"/>
  <outline>
    <component base="LtnSmN"/>
    <component base="SmTilde" xOffset="174"/>
    <contour>
      <point x="790" y="0" type="move" name="H"/>
    </contour>
    <contour>
      <point x="515" y="-100" type="move" name="L"/>
    </contour>
    <contour>
      <point x="515" y="1435" type="move" name="U"/>
    </contour>
  </outline>
</glyph>
<glyph name="DivSgn" format="2">
  <advance width="1971"/>
  <unicode hex="00F7"/>
  <outline>
    <contour>
      <point x="1104" y="909" type="curve"/>
      <point x="1104" y="974"/>
      <point x="1051" y="1027"/>
      <point x="985" y="1027" type="curve" smooth="yes"/>
      <point x="920" y="1027"/>
      <point x="867" y="974"/>
      <point x="867" y="909" type="curve" smooth="yes"/>
      <point x="867" y="841"/>
      <point x="920" y="790"/>
      <point x="985" y="790" type="curve" smooth="yes"/>
      <point x="1051" y="790"/>
      <point x="1104" y="841"/>
    </contour>
    <contour>
      <point x="1576" y="530" type="line"/>
      <point x="1576" y="653" type="line"/>
      <point x="395" y="653" type="line"/>
      <point x="395" y="530" type="line"/>
    </contour>
    <contour>
      <point x="1104" y="274" type="curve"/>
      <point x="1104" y="341"/>
      <point x="1051" y="393"/>
      <point x="985" y="393" type="curve" smooth="yes"/>
      <point x="920" y="393"/>
      <point x="867" y="341"/>
      <point x="867" y="274" type="curve" smooth="yes"/>
      <point x="867" y="209"/>
      <point x="920" y="158"/>
      <point x="985" y="158" type="curve" smooth="yes"/>
      <point x="1051" y="158"/>
      <point x="1104" y="209"/>
    </contour>
  </outline>
</glyph>
<glyph name="LtnSmOStrk" format="1">
  <advance width="1023"/>
  <unicode hex="00F8"/>
  <outline>
    <contour>
      <point x="954" y="475" type="curve" smooth="yes"/>
      <point x="954" y="540"/>
      <point x="943" y="601"/>
      <point x="922" y="658" type="curve" smooth="yes"/>
      <point x="904" y="707"/>
      <point x="879" y="750"/>
      <point x="848" y="787" type="curve"/>
      <point x="982" y="936" type="line"/>
      <point x="936" y="980" type="line"/>
      <point x="804" y="833" type="line"/>
      <point x="771" y="863"/>
      <point x="734" y="887"/>
      <point x="692" y="906" type="curve" smooth="yes"/>
      <point x="638" y="930"/>
      <point x="578" y="942"/>
      <point x="512" y="942" type="curve" smooth="yes"/>
      <point x="237" y="942"/>
      <point x="69" y="696"/>
      <point x="69" y="449" type="curve" smooth="yes"/>
      <point x="69" y="386"/>
      <point x="79" y="325"/>
      <point x="100" y="267" type="curve" smooth="yes"/>
      <point x="119" y="216"/>
      <point x="144" y="171"/>
      <point x="175" y="131" type="curve"/>
      <point x="36" y="-24" type="line"/>
      <point x="83" y="-67" type="line"/>
      <point x="218" y="83" type="line"/>
      <point x="250" y="53"/>
      <point x="286" y="28"/>
      <point x="326" y="9" type="curve" smooth="yes"/>
      <point x="379" y="-17"/>
      <point x="438" y="-30"/>
      <point x="502" y="-30" type="curve" smooth="yes"/>
      <point x="803" y="-30"/>
      <point x="954" y="239"/>
    </contour>
    <contour>
      <point x="690" y="740" type="curve" smooth="yes"/>
      <point x="694" y="733"/>
      <point x="698" y="726"/>
      <point x="701" y="718" type="curve"/>
      <point x="297" y="267" type="line"/>
      <point x="288" y="292"/>
      <point x="281" y="318"/>
      <point x="274" y="345" type="curve"/>
      <point x="261" y="404"/>
      <point x="254" y="467"/>
      <point x="254" y="532" type="curve" smooth="yes"/>
      <point x="254" y="798"/>
      <point x="376" y="879"/>
      <point x="481" y="879" type="curve" smooth="yes"/>
      <point x="569" y="879"/>
      <point x="641" y="827"/>
    </contour>
    <contour>
      <point x="767" y="398" type="curve" smooth="yes"/>
      <point x="767" y="136"/>
      <point x="676" y="43"/>
      <point x="544" y="43" type="curve" smooth="yes"/>
      <point x="456" y="43"/>
      <point x="384" y="100"/>
      <point x="333" y="189" type="curve" smooth="yes"/>
      <point x="325" y="203" type="line"/>
      <point x="728" y="653" type="line"/>
      <point x="735" y="632"/>
      <point x="742" y="611"/>
      <point x="747" y="588" type="curve" smooth="yes"/>
      <point x="760" y="529"/>
      <point x="767" y="466"/>
    </contour>
    <contour>
      <point x="509" y="0" type="move" name="H"/>
    </contour>
    <contour>
      <point x="509" y="-100" type="move" name="L"/>
    </contour>
    <contour>
      <point x="702" y="0" type="move" name="O"/>
    </contour>
    <contour>
      <point x="1023" y="900" type="move" name="R"/>
    </contour>
    <contour>
      <point x="509" y="1000" type="move" name="U"/>
    </contour>
  </outline>
</glyph>
<glyph name="LtnSmAOgonek" format="1">
  <advance width="910"/>
  <unicode hex="0105"/>
  <outline>
    <component base="LtnSmA"/>
    <component base="CombOgonek" xOffset="1125"/>
    <contour>
      <point x="445" y="0" type="move" name="H"/>
    </contour>
    <contour>
      <point x="563" y="-500" type="move" name="L"/>
    </contour>
    <contour>
      <point x="910" y="900" type="move" name="R"/>
    </contour>
    <contour>
      <point x="445" y="1000" type="move" name="U"/>
    </contour>
  </outline>
</glyph>
<glyph name="LtnSmCCircum" format="1">
  <advance width="910"/>
  <unicode hex="0109"/>
  <outline>
    <component base="LtnSmC"/>
    <component base="CombCircum" xOffset="992"/>
    <contour>
      <point x="455" y="0" type="move" name="H"/>
    </contour>
    <contour>
      <point x="480" y="-100" type="move" name="L"/>
    </contour>
    <contour>
      <point x="910" y="900" type="move" name="R"/>
    </contour>
    <contour>
      <point x="480" y="1435" type="move" name="U"/>
    </contour>
  </outline>
</glyph>
<glyph name="LtnCapCDotAbv" format="1">
  <advance width="1368"/>
  <unicode hex="010A"/>
  <outline>
    <component base="LtnCapC"/>
    <component base="DotAbv" xOffset="638" yOffset="435"/>
    <contour>
      <point x="684" y="0" type="move" name="H"/>
    </contour>
    <contour>
      <point x="740" y="-100" type="move" name="L"/>
    </contour>
    <contour>
      <point x="740" y="1870" type="move" name="U"/>
    </contour>
  </outline>
</glyph>
<glyph name="LtnCapCCaron" format="1">
  <advance width="1368"/>
  <unicode hex="010C"/>
  <outline>
    <component base="LtnCapC"/>
    <component base="CombCaron" xOffset="1252" yOffset="435"/>
    <contour>
      <point x="684" y="0" type="move" name="H"/>
    </contour>
    <contour>
      <point x="740" y="-100" type="move" name="L"/>
    </contour>
    <contour>
      <point x="740" y="1870" type="move" name="U"/>
    </contour>
  </outline>
</glyph>
<glyph name="LtnCapDCaron" format="1">
  <advance width="1480"/>
  <unicode hex="010E"/>
  <outline>
    <component base="LtnCapD"/>
    <component base="CombCaron" xOffset="1230" yOffset="435"/>
    <contour>
      <point x="718" y="1870" type="move" name="U"/>
    </contour>
    <contour>
      <point x="718" y="-100" type="move" name="L"/>
    </contour>
  </outline>
</glyph>
<glyph name="LtnSmDBarredStem" format="1">
  <advance width="1005"/>
  <unicode hex="0111"/>
  <outline>
    <contour>
      <point x="1068" y="1033" type="line"/>
      <point x="1068" y="1136" type="line"/>
      <point x="879" y="1136" type="line"/>
      <point x="879" y="1423" type="line"/>
      <point x="833" y="1423" type="line"/>
      <point x="558" y="1313" type="line"/>
      <point x="572" y="1277" type="line"/>
      <point x="625" y="1295"/>
      <point x="658" y="1301"/>
      <point x="680" y="1279" type="curve" smooth="yes"/>
      <point x="700" y="1260"/>
      <point x="709" y="1266"/>
      <point x="711" y="1136" type="curve"/>
      <point x="489" y="1136" type="line"/>
      <point x="489" y="1033" type="line"/>
      <point x="711" y="1033" type="line"/>
      <point x="711" y="1029" type="line"/>
      <point x="711" y="867" type="line"/>
      <point x="658" y="920"/>
      <point x="591" y="944"/>
      <point x="512" y="944" type="curve" smooth="yes"/>
      <point x="227" y="942"/>
      <point x="67" y="658"/>
      <point x="67" y="420" type="curve" smooth="yes"/>
      <point x="67" y="162"/>
      <point x="241" y="-30"/>
      <point x="444" y="-30" type="curve" smooth="yes"/>
      <point x="550" y="-30"/>
      <point x="630" y="17"/>
      <point x="711" y="102" type="curve"/>
      <point x="711" y="-30" type="line"/>
      <point x="756" y="-30" type="line"/>
      <point x="1033" y="85" type="line"/>
      <point x="1021" y="120" type="line"/>
      <point x="968" y="100"/>
      <point x="934" y="96"/>
      <point x="910" y="116" type="curve" smooth="yes"/>
      <point x="881" y="138"/>
      <point x="879" y="166"/>
      <point x="879" y="363" type="curve" smooth="yes"/>
      <point x="879" y="1033" type="line"/>
    </contour>
    <contour>
      <point x="711" y="173" type="line"/>
      <point x="654" y="113"/>
      <point x="598" y="83"/>
      <point x="534" y="83" type="curve" smooth="yes"/>
      <point x="406" y="85"/>
      <point x="252" y="203"/>
      <point x="252" y="500" type="curve" smooth="yes"/>
      <point x="252" y="735"/>
      <point x="365" y="889"/>
      <point x="500" y="883" type="curve" smooth="yes"/>
      <point x="632" y="879"/>
      <point x="711" y="749"/>
      <point x="711" y="647" type="curve" smooth="yes"/>
    </contour>
    <contour>
      <point x="567" y="-100" type="move" name="L"/>
    </contour>
    <contour>
      <point x="567" y="1435" type="move" name="U"/>
    </contour>
  </outline>
</glyph>
<glyph name="LtnCapEMacron" format="1">
  <advance width="1251"/>
  <unicode hex="0112"/>
  <outline>
    <component base="LtnCapE"/>
    <component base="CombMacron" xOffset="1136" yOffset="435"/>
    <contour>
      <point x="624" y="0" type="move" name="H"/>
    </contour>
    <contour>
      <point x="624" y="-100" type="move" name="L"/>
    </contour>
    <contour>
      <point x="1044" y="0" type="move" name="O"/>
    </contour>
    <contour>
      <point x="1251" y="1100" type="move" name="R"/>
    </contour>
    <contour>
      <point x="624" y="1800" type="move" name="U"/>
    </contour>
  </outline>
</glyph>
<glyph name="LtnCapGBreve" format="1">
  <advance width="1480"/>
  <unicode hex="011E"/>
  <outline>
    <component base="LtnCapG"/>
    <component base="CombBreve" xOffset="1272" yOffset="435"/>
    <contour>
      <point x="761" y="0" type="move" name="H"/>
    </contour>
    <contour>
      <point x="760" y="-100" type="move" name="L"/>
    </contour>
    <contour>
      <point x="760" y="1870" type="move" name="U"/>
    </contour>
  </outline>
</glyph>
<glyph name="LtnSmGBreve" format="1">
  <advance width="1025"/>
  <unicode hex="011F"/>
  <outline>
    <component base="LtnSmG"/>
    <component base="CombBreve" xOffset="1022"/>
    <contour>
      <point x="520" y="-432" type="move" name="H"/>
    </contour>
    <contour>
      <point x="524" y="-500" type="move" name="L"/>
    </contour>
    <contour>
      <point x="1025" y="900" type="move" name="R"/>
    </contour>
    <contour>
      <point x="510" y="1435" type="move" name="U"/>
    </contour>
  </outline>
</glyph>
<glyph name="LtnCapGDotAbv" format="1">
  <advance width="1480"/>
  <unicode hex="0120"/>
  <outline>
    <component base="LtnCapG"/>
    <component base="DotAbv" xOffset="658" yOffset="435"/>
    <contour>
      <point x="761" y="0" type="move" name="H"/>
    </contour>
    <contour>
      <point x="760" y="-100" type="move" name="L"/>
    </contour>
    <contour>
      <point x="760" y="1870" type="move" name="U"/>
    </contour>
  </outline>
</glyph>
<glyph name="LtnCapGCedilla" format="1">
  <advance width="1480"/>
  <unicode hex="0122"/>
  <outline>
    <component base="LtnCapG"/>
    <component base="CombCommaBlw" xOffset="1272"/>
    <contour>
      <point x="761" y="0" type="move" name="H"/>
    </contour>
    <contour>
      <point x="760" y="-500" type="move" name="L"/>
    </contour>
    <contour>
      <point x="760" y="1435" type="move" name="U"/>
    </contour>
  </outline>
</glyph>
<glyph name="LtnCapHStrk" format="1">
  <advance width="1480"/>
  <unicode hex="0126"/>
  <outline>
    <contour>
      <point x="1439" y="0" type="line"/>
      <point x="1439" y="38" type="line"/>
      <point x="1390" y="38" type="line" smooth="yes"/>
      <point x="1343" y="38"/>
      <point x="1291" y="53"/>
      <point x="1267" y="87" type="curve" smooth="yes"/>
      <point x="1245" y="116"/>
      <point x="1243" y="154"/>
      <point x="1243" y="241" type="curve" smooth="yes"/>
      <point x="1243" y="952" type="line"/>
      <point x="1439" y="952" type="line"/>
      <point x="1439" y="1066" type="line"/>
      <point x="1243" y="1066" type="line"/>
      <point x="1243" y="1117" type="line" smooth="yes"/>
      <point x="1243" y="1224"/>
      <point x="1243" y="1245"/>
      <point x="1273" y="1277" type="curve" smooth="yes"/>
      <point x="1301" y="1305"/>
      <point x="1350" y="1320"/>
      <point x="1390" y="1320" type="curve" smooth="yes"/>
      <point x="1439" y="1320" type="line"/>
      <point x="1439" y="1356" type="line"/>
      <point x="857" y="1356" type="line"/>
      <point x="857" y="1320" type="line"/>
      <point x="907" y="1320" type="line" smooth="yes"/>
      <point x="952" y="1320"/>
      <point x="997" y="1303"/>
      <point x="1023" y="1277" type="curve" smooth="yes"/>
      <point x="1042" y="1258"/>
      <point x="1053" y="1216"/>
      <point x="1053" y="1117" type="curve" smooth="yes"/>
      <point x="1053" y="1066" type="line"/>
      <point x="420" y="1066" type="line"/>
      <point x="420" y="1117" type="line" smooth="yes"/>
      <point x="420" y="1220"/>
      <point x="432" y="1256"/>
      <point x="451" y="1277" type="curve" smooth="yes"/>
      <point x="479" y="1309"/>
      <point x="523" y="1320"/>
      <point x="568" y="1320" type="curve" smooth="yes"/>
      <point x="617" y="1320" type="line"/>
      <point x="617" y="1356" type="line"/>
      <point x="36" y="1356" type="line"/>
      <point x="36" y="1320" type="line"/>
      <point x="85" y="1320" type="line" smooth="yes"/>
      <point x="124" y="1320"/>
      <point x="183" y="1299"/>
      <point x="201" y="1275" type="curve" smooth="yes"/>
      <point x="222" y="1247"/>
      <point x="229" y="1213"/>
      <point x="229" y="1117" type="curve" smooth="yes"/>
      <point x="229" y="1066" type="line"/>
      <point x="36" y="1066" type="line"/>
      <point x="36" y="952" type="line"/>
      <point x="229" y="952" type="line"/>
      <point x="229" y="241" type="line" smooth="yes"/>
      <point x="229" y="158"/>
      <point x="220" y="107"/>
      <point x="204" y="87" type="curve" smooth="yes"/>
      <point x="177" y="53"/>
      <point x="140" y="38"/>
      <point x="85" y="38" type="curve" smooth="yes"/>
      <point x="36" y="38" type="line"/>
      <point x="36" y="0" type="line"/>
      <point x="617" y="0" type="line"/>
      <point x="617" y="38" type="line"/>
      <point x="568" y="38" type="line" smooth="yes"/>
      <point x="521" y="38"/>
      <point x="469" y="57"/>
      <point x="446" y="85" type="curve" smooth="yes"/>
      <point x="427" y="107"/>
      <point x="420" y="150"/>
      <point x="420" y="241" type="curve" smooth="yes"/>
      <point x="420" y="654" type="line"/>
      <point x="1053" y="654" type="line"/>
      <point x="1053" y="241" type="line" smooth="yes"/>
      <point x="1053" y="158"/>
      <point x="1042" y="107"/>
      <point x="1027" y="87" type="curve" smooth="yes"/>
      <point x="1001" y="53"/>
      <point x="961" y="38"/>
      <point x="907" y="38" type="curve" smooth="yes"/>
      <point x="857" y="38" type="line"/>
      <point x="857" y="0" type="line"/>
    </contour>
    <contour>
      <point x="420" y="728" type="line"/>
      <point x="420" y="952" type="line"/>
      <point x="1053" y="952" type="line"/>
      <point x="1053" y="728" type="line"/>
    </contour>
    <contour>
      <point x="737" y="-100" type="move" name="L"/>
    </contour>
    <contour>
      <point x="737" y="1435" type="move" name="U"/>
    </contour>
  </outline>
</glyph>
<glyph name="LtnSmHStrk" format="2">
  <advance width="1025"/>
  <unicode hex="0127"/>
  <anchor x="498" y="-100" name="L"/>
  <anchor x="498" y="1435" name="U"/>
  <outline>
    <contour>
      <point x="1015" y="0" type="line"/>
      <point x="1015" y="38" type="line"/>
      <point x="944" y="38"/>
      <point x="914" y="49"/>
      <point x="903" y="67" type="curve" smooth="yes"/>
      <point x="883" y="96"/>
      <point x="877" y="130"/>
      <point x="877" y="207" type="curve" smooth="yes"/>
      <point x="877" y="530" type="line" smooth="yes"/>
      <point x="877" y="709"/>
      <point x="871" y="942"/>
      <point x="639" y="942" type="curve" smooth="yes"/>
      <point x="542" y="942"/>
      <point x="474" y="907"/>
      <point x="335" y="753" type="curve"/>
      <point x="335" y="1033" type="line"/>
      <point x="560" y="1033" type="line"/>
      <point x="560" y="1136" type="line"/>
      <point x="335" y="1136" type="line"/>
      <point x="335" y="1423" type="line"/>
      <point x="288" y="1423" type="line"/>
      <point x="12" y="1313" type="line"/>
      <point x="28" y="1277" type="line"/>
      <point x="89" y="1303"/>
      <point x="126" y="1291"/>
      <point x="138" y="1279" type="curve" smooth="yes"/>
      <point x="158" y="1260"/>
      <point x="166" y="1303"/>
      <point x="167" y="1136" type="curve"/>
      <point x="-19" y="1136" type="line"/>
      <point x="-19" y="1033" type="line"/>
      <point x="167" y="1033" type="line"/>
      <point x="167" y="207" type="line" smooth="yes"/>
      <point x="167" y="118"/>
      <point x="158" y="87"/>
      <point x="141" y="71" type="curve" smooth="yes"/>
      <point x="118" y="45"/>
      <point x="81" y="38"/>
      <point x="28" y="38" type="curve"/>
      <point x="28" y="0" type="line"/>
      <point x="481" y="0" type="line"/>
      <point x="481" y="38" type="line"/>
      <point x="414" y="38"/>
      <point x="380" y="43"/>
      <point x="361" y="67" type="curve" smooth="yes"/>
      <point x="335" y="98"/>
      <point x="335" y="115"/>
      <point x="335" y="207" type="curve" smooth="yes"/>
      <point x="335" y="690" type="line"/>
      <point x="434" y="805"/>
      <point x="500" y="822"/>
      <point x="562" y="822" type="curve" smooth="yes"/>
      <point x="722" y="822"/>
      <point x="709" y="649"/>
      <point x="709" y="530" type="curve" smooth="yes"/>
      <point x="709" y="207" type="line" smooth="yes"/>
      <point x="709" y="116"/>
      <point x="707" y="98"/>
      <point x="684" y="67" type="curve" smooth="yes"/>
      <point x="658" y="32"/>
      <point x="562" y="38"/>
      <point x="562" y="38" type="curve"/>
      <point x="562" y="0" type="line"/>
    </contour>
  </outline>
</glyph>
<glyph name="LtnCapIMacron" format="1">
  <advance width="1125"/>
  <unicode hex="012A"/>
  <outline>
    <component base="LtnCapI"/>
    <component base="CombMacron.Short" xOffset="119" yOffset="435"/>
    <contour>
      <point x="341" y="0" type="move" name="H"/>
    </contour>
    <contour>
      <point x="341" y="-100" type="move" name="L"/>
    </contour>
    <contour>
      <point x="510" y="0" type="move" name="O"/>
    </contour>
    <contour>
      <point x="682" y="1100" type="move" name="R"/>
    </contour>
    <contour>
      <point x="340" y="1800" type="move" name="U"/>
    </contour>
  </outline>
</glyph>
<glyph name="LtnSmDotlessI" format="1">
  <advance width="570"/>
  <unicode hex="0131"/>
  <outline>
    <contour>
      <point x="525" y="0" type="line"/>
      <point x="525" y="38" type="line"/>
      <point x="451" y="38"/>
      <point x="434" y="41"/>
      <point x="408" y="71" type="curve" smooth="yes"/>
      <point x="391" y="90"/>
      <point x="384" y="126"/>
      <point x="384" y="207" type="curve" smooth="yes"/>
      <point x="384" y="942" type="line"/>
      <point x="341" y="942" type="line"/>
      <point x="64" y="832" type="line"/>
      <point x="77" y="796" type="line"/>
      <point x="134" y="816"/>
      <point x="166" y="818"/>
      <point x="190" y="796" type="curve" smooth="yes"/>
      <point x="217" y="773"/>
      <point x="217" y="724"/>
      <point x="217" y="560" type="curve" smooth="yes"/>
      <point x="217" y="207" type="line" smooth="yes"/>
      <point x="217" y="122"/>
      <point x="207" y="92"/>
      <point x="190" y="69" type="curve" smooth="yes"/>
      <point x="171" y="45"/>
      <point x="144" y="38"/>
      <point x="77" y="38" type="curve"/>
      <point x="77" y="0" type="line"/>
    </contour>
    <contour>
      <point x="294" y="1000" type="move" name="U"/>
    </contour>
    <contour>
      <point x="294" y="-100" type="move" name="L"/>
    </contour>
    <contour>
      <point x="570" y="900" type="move" name="R"/>
    </contour>
    <contour>
      <point x="445" y="0" type="move" name="O"/>
    </contour>
    <contour>
      <point x="295" y="0" type="move" name="H"/>
    </contour>
  </outline>
</glyph>
<glyph name="LtnSmLigIj" format="1">
  <advance width="1140"/>
  <unicode hex="0133"/>
  <outline>
    <component base="LtnSmI"/>
    <component base="LtnSmJ" xOffset="770"/>
    <contour>
      <point x="294" y="0" type="move" name="H"/>
    </contour>
    <contour>
      <point x="691" y="-500" type="move" name="L"/>
    </contour>
    <contour>
      <point x="344" y="0" type="move" name="O"/>
    </contour>
    <contour>
      <point x="596" y="1435" type="move" name="U"/>
    </contour>
  </outline>
</glyph>
<glyph name="LtnSmKCedilla" format="1">
  <advance width="1025"/>
  <unicode hex="0137"/>
  <outline>
    <component base="LtnSmK"/>
    <component base="CombCommaBlw" xOffset="1037"/>
    <contour>
      <point x="250" y="0" type="move" name="H"/>
    </contour>
    <contour>
      <point x="525" y="-500" type="move" name="L"/>
    </contour>
    <contour>
      <point x="1025" y="900" type="move" name="R"/>
    </contour>
    <contour>
      <point x="525" y="1435" type="move" name="U"/>
    </contour>
  </outline>
</glyph>
<glyph name="LtnSmLAcute" format="1">
  <advance width="570"/>
  <unicode hex="013A"/>
  <outline>
    <component base="LtnSmL"/>
    <component base="CombAcute" xOffset="804" yOffset="475"/>
    <contour>
      <point x="293" y="0" type="move" name="H"/>
    </contour>
    <contour>
      <point x="292" y="-100" type="move" name="L"/>
    </contour>
    <contour>
      <point x="470" y="900" type="move" name="R"/>
    </contour>
    <contour>
      <point x="292" y="1910" type="move" name="U"/>
    </contour>
  </outline>
</glyph>
<glyph name="LtnSmLCedilla" format="1">
  <advance width="570"/>
  <unicode hex="013C"/>
  <outline>
    <component base="LtnSmL"/>
    <component base="CombCommaBlw" xOffset="804"/>
    <contour>
      <point x="293" y="0" type="move" name="H"/>
    </contour>
    <contour>
      <point x="292" y="-500" type="move" name="L"/>
    </contour>
    <contour>
      <point x="470" y="900" type="move" name="R"/>
    </contour>
    <contour>
      <point x="292" y="1475" type="move" name="U"/>
    </contour>
  </outline>
</glyph>
<glyph name="LtnCapLCaron" format="2">
  <advance width="1251"/>
  <unicode hex="013D"/>
  <anchor x="624" y="0" name="H"/>
  <anchor x="624" y="-100" name="L"/>
  <anchor x="624" y="1435" name="U"/>
  <outline>
    <contour>
      <point x="1210" y="369" type="line"/>
      <point x="1175" y="374" type="line"/>
      <point x="1124" y="254"/>
      <point x="1091" y="204"/>
      <point x="1023" y="146" type="curve"/>
      <point x="967" y="95"/>
      <point x="899" y="87"/>
      <point x="735" y="87" type="curve" smooth="yes"/>
      <point x="598" y="87" type="line" smooth="yes"/>
      <point x="479" y="87"/>
      <point x="427" y="102"/>
      <point x="427" y="256" type="curve" smooth="yes"/>
      <point x="427" y="1149" type="line" smooth="yes"/>
      <point x="427" y="1304"/>
      <point x="508" y="1318"/>
      <point x="627" y="1318" type="curve"/>
      <point x="627" y="1356" type="line"/>
      <point x="38" y="1356" type="line"/>
      <point x="38" y="1318" type="line"/>
      <point x="156" y="1318"/>
      <point x="237" y="1304"/>
      <point x="237" y="1149" type="curve" smooth="yes"/>
      <point x="237" y="207" type="line" smooth="yes"/>
      <point x="237" y="53"/>
      <point x="156" y="38"/>
      <point x="38" y="38" type="curve"/>
      <point x="38" y="0" type="line"/>
      <point x="1092" y="0" type="line"/>
    </contour>
    <contour>
      <point x="975" y="1279" type="curve" smooth="yes"/>
      <point x="975" y="1370"/>
      <point x="907" y="1425"/>
      <point x="847" y="1425" type="curve" smooth="yes"/>
      <point x="808" y="1425"/>
      <point x="751" y="1396"/>
      <point x="751" y="1341" type="curve" smooth="yes"/>
      <point x="751" y="1291"/>
      <point x="789" y="1262"/>
      <point x="824" y="1262" type="curve" smooth="yes"/>
      <point x="843" y="1262"/>
      <point x="867" y="1273"/>
      <point x="879" y="1273" type="curve" smooth="yes"/>
      <point x="887" y="1273"/>
      <point x="907" y="1265"/>
      <point x="907" y="1228" type="curve" smooth="yes"/>
      <point x="907" y="1149"/>
      <point x="836" y="1105"/>
      <point x="785" y="1076" type="curve"/>
      <point x="785" y="1042" type="line"/>
      <point x="841" y="1061"/>
      <point x="975" y="1125"/>
    </contour>
  </outline>
</glyph>
